<?xml version="1.0" encoding="UTF-8"?>
<svg version="1.1" xmlns="http://www.w3.org/2000/svg" width="2938" height="2463">
<path d="M0 0 C969.54 0 1939.08 0 2938 0 C2938 812.79 2938 1625.58 2938 2463 C1968.46 2463 998.92 2463 0 2463 C0 1650.21 0 837.42 0 0 Z " fill="#FEFEFE" transform="translate(0,0)"/>
<path d="M0 0 C1 3 1 3 0.1105957 5.30224609 C-0.36289307 6.20023926 -0.83638184 7.09823242 -1.32421875 8.0234375 C-1.85233154 9.03414307 -2.38044434 10.04484863 -2.92456055 11.08618164 C-3.50633057 12.1714917 -4.08810059 13.25680176 -4.6875 14.375 C-5.27893799 15.49318115 -5.87037598 16.6113623 -6.47973633 17.76342773 C-28.12338186 58.42995501 -53.84729275 97.30280745 -83 133 C-83.69351563 133.8559375 -84.38703125 134.711875 -85.1015625 135.59375 C-93.42678602 145.83112733 -101.89581503 155.90295632 -110.8359375 165.609375 C-112.62968811 167.590919 -114.33242544 169.60059382 -116 171.6875 C-116.66 172.450625 -117.32 173.21375 -118 174 C-118.66 174 -119.32 174 -120 174 C-120.25394531 174.58265625 -120.50789063 175.1653125 -120.76953125 175.765625 C-122.13320333 178.24188033 -123.64225203 179.80520626 -125.6875 181.75 C-128.42155183 184.41015854 -131.01887216 187.10249898 -133.5 190 C-138.95872685 196.32519142 -144.90180274 202.02419176 -151.2421875 207.45703125 C-152.67962714 208.71878383 -154.04022497 210.06759931 -155.375 211.4375 C-157 213 -157 213 -159 213 C-159 213.66 -159 214.32 -159 215 C-160.3984375 216.41015625 -160.3984375 216.41015625 -162.375 218.0625 C-165.69067835 220.87259619 -168.92342019 223.74786763 -172.125 226.6875 C-174.75972673 229.07206891 -177.31068297 231.34396194 -180.3125 233.25 C-183.07880625 234.9194712 -183.07880625 234.9194712 -185.3125 237.3125 C-188.90607852 240.90607852 -192.79767569 244.13515416 -197 247 C-197.66 247 -198.32 247 -199 247 C-199 247.66 -199 248.32 -199 249 C-200.80078125 250.4453125 -200.80078125 250.4453125 -203.3125 252.125 C-207.05254053 254.66570264 -210.73692388 257.2526316 -214.375 259.9375 C-251.48185096 287 -251.48185096 287 -258 287 C-258 287.66 -258 288.32 -258 289 C-259.02222656 289.4228125 -260.04445313 289.845625 -261.09765625 290.28125 C-264.67166687 291.81360817 -268.03711636 293.60956292 -271.4375 295.5 C-293.2224137 307.34403359 -316.24581855 316.95342416 -340 324 C-341.07556152 324.32846924 -341.07556152 324.32846924 -342.17285156 324.66357422 C-353.97638244 328.26128171 -365.91961534 330.629876 -378.046875 332.87109375 C-382.42740563 333.68514462 -386.74094925 334.60711231 -391.0625 335.6875 C-397.33136518 337.2054058 -403.65109239 337.89556769 -410.0546875 338.5703125 C-412.44693888 338.83085473 -414.8357687 339.13378906 -417.21191406 339.51416016 C-421.3575315 340.0458551 -425.38134029 340.17896946 -429.5546875 340.203125 C-430.36508484 340.21013931 -431.17548218 340.21715363 -432.01043701 340.22438049 C-434.63201463 340.24187665 -437.25336602 340.24823891 -439.875 340.25 C-440.77160339 340.25067474 -441.66820679 340.25134949 -442.59197998 340.25204468 C-472.21685554 340.21665807 -499.85896854 335.12875668 -528 326 C-528.85400391 325.72397949 -529.70800781 325.44795898 -530.58789062 325.16357422 C-541.58859064 321.56719152 -551.75983302 317.41434116 -562 312 C-563.23437973 311.39570269 -564.47145934 310.79689467 -565.7109375 310.203125 C-580.90729459 302.89501173 -595.69546526 294.39692119 -609 284 C-609.79921875 283.3915625 -610.5984375 282.783125 -611.421875 282.15625 C-623.9423843 272.42693704 -635.01834737 261.09505649 -646.13378906 249.82958984 C-650.71141464 245.20856281 -655.32763623 240.73468796 -660.26879883 236.50415039 C-662.68743032 234.40272765 -664.93919504 232.15631433 -667.1875 229.875 C-667.98542969 229.06804687 -668.78335937 228.26109375 -669.60546875 227.4296875 C-670.39566406 226.62789062 -671.18585938 225.82609375 -672 225 C-673.19109375 223.80890625 -673.19109375 223.80890625 -674.40625 222.59375 C-676.29383021 220.70616979 -678.17482123 218.81311036 -680.05078125 216.9140625 C-685.21950333 211.69499062 -690.37105926 206.55872189 -695.9765625 201.8046875 C-699.09560927 199.02283498 -701.99589641 196.02465145 -704.9296875 193.05078125 C-707.57736532 190.38103945 -710.26964747 187.82081989 -713.125 185.375 C-717.61378291 181.46541489 -721.79084167 177.20915833 -726 173 C-726.33 213.59 -726.66 254.18 -727 296 C-739.54 296 -752.08 296 -765 296 C-765.00586624 293.23875259 -765.01173248 290.47750519 -765.01777649 287.63258362 C-765.07442953 261.63189629 -765.14750218 235.63129219 -765.23571491 209.63069248 C-765.24466645 206.96904576 -765.2535938 204.30739899 -765.26245117 201.64575195 C-765.26465486 200.98419627 -765.26685854 200.32264058 -765.269129 199.64103775 C-765.30227673 189.60323148 -765.32665072 179.56542878 -765.34643555 169.52758789 C-765.36941575 157.87571237 -765.40281421 146.22392116 -765.44870156 134.5721125 C-765.47263328 128.40308408 -765.49136247 122.23413916 -765.49761391 116.06506538 C-765.50366487 110.2563092 -765.52366562 104.44776666 -765.55427551 98.63908958 C-765.56305546 96.50947173 -765.56677841 94.37982595 -765.56500816 92.25019073 C-765.56335125 89.33663784 -765.5800907 86.42373298 -765.60127258 83.51026917 C-765.59642501 82.67269422 -765.59157743 81.83511927 -765.58658296 80.97216326 C-765.69599253 71.81781247 -768.54173382 62.68300438 -775 56 C-781.59200663 51.47095947 -788.62691524 48.06976453 -796 45 C-796 44.34 -796 43.68 -796 43 C-746.64839945 42.17631171 -746.64839945 42.17631171 -731.76953125 53.92578125 C-726.78560791 59.76786358 -726.57332161 65.72781727 -726.65942383 73.06616211 C-726.65876671 74.54536133 -726.65876671 74.54536133 -726.65809631 76.05444336 C-726.66017691 79.29561552 -726.6834739 82.53626258 -726.70703125 85.77734375 C-726.71262979 88.03178118 -726.71689867 90.28622228 -726.71989441 92.54066467 C-726.73132282 98.46068482 -726.76077297 104.3804825 -726.79400635 110.30041504 C-726.82475032 116.34673046 -726.838409 122.39308199 -726.85351562 128.43945312 C-726.88564442 140.29306623 -726.93681669 152.14651458 -727 164 C-725.88646874 163.05386972 -724.77412568 162.10634091 -723.66227722 161.15823364 C-723.04271243 160.63073076 -722.42314764 160.10322788 -721.78480816 159.55974007 C-719.4066486 157.48147147 -717.20289505 155.26219085 -715 153 C-714.12754639 152.12230957 -713.25509277 151.24461914 -712.35620117 150.34033203 C-711.42783447 149.40560059 -710.49946777 148.47086914 -709.54296875 147.5078125 C-707.9651599 145.92261789 -706.38686367 144.33791034 -704.80834961 142.75341797 C-703.73224621 141.67228983 -702.65704256 140.59026533 -701.58276367 139.50732422 C-700.00944228 137.92170184 -698.43276047 136.33948434 -696.85546875 134.7578125 C-696.3874736 134.28465607 -695.91947845 133.81149963 -695.43730164 133.32400513 C-692.76252143 130.64878929 -690.00917457 128.11674082 -687.14379883 125.64599609 C-682.84670448 121.91993458 -678.84018987 117.95012126 -674.84375 113.90625 C-674.0971814 113.15589478 -673.35061279 112.40553955 -672.5814209 111.63244629 C-670.21847975 109.2574008 -667.8588263 106.87913183 -665.5 104.5 C-662.38839354 101.36160783 -659.27336245 98.22667255 -656.15625 95.09375 C-655.10745667 94.03250916 -655.10745667 94.03250916 -654.03747559 92.9498291 C-650.07817915 88.9711371 -646.0089364 85.19807847 -641.75793457 81.53308105 C-639.67697381 79.71829137 -637.71520709 77.81393105 -635.78125 75.84375 C-635.07613281 75.13089844 -634.37101562 74.41804688 -633.64453125 73.68359375 C-632.93683594 72.96300781 -632.22914063 72.24242187 -631.5 71.5 C-626.72117226 66.63412621 -621.88069158 61.96695994 -616.70996094 57.51855469 C-614.74344374 55.77216163 -613.03690039 53.9118933 -611.375 51.875 C-610.29092617 50.54879801 -609.16080008 49.25959158 -608 48 C-607.175 47.10152344 -606.35 46.20304687 -605.5 45.27734375 C-601.12523341 41.71271912 -595.98825991 42.4625891 -590.625 42.6875 C-589.60277344 42.71005859 -588.58054687 42.73261719 -587.52734375 42.75585938 C-585.01670419 42.81451918 -582.50912621 42.89654072 -580 43 C-584.81734513 48.83920621 -590.05221529 54.20596276 -595.41259766 59.54296875 C-596.8686674 60.99369065 -598.31932776 62.44966659 -599.76953125 63.90625 C-604.43338623 68.5730894 -609.16174302 73.09690297 -614.17236328 77.390625 C-617.26313807 80.11229043 -620.12065437 83.05827262 -623 86 C-627.34871121 90.40499957 -631.74802122 94.62860023 -636.4765625 98.62890625 C-638.18322378 100.09021376 -638.18322378 100.09021376 -640 102.5 C-641.71852612 104.64815765 -643.25692958 106.12748194 -645.34375 107.875 C-651.37487339 113.09507882 -656.89831137 118.82888944 -662.5 124.5 C-675.05038121 137.20591854 -675.05038121 137.20591854 -681.31494141 142.54638672 C-683.80560579 144.69495464 -686.11510562 146.98285946 -688.4375 149.3125 C-689.28183594 150.15425781 -690.12617187 150.99601562 -690.99609375 151.86328125 C-693.03659707 153.8351513 -693.03659707 153.8351513 -694 156 C-693.360625 156.268125 -692.72125 156.53625 -692.0625 156.8125 C-690 158 -690 158 -689 161 C-687.68425769 161.70074561 -686.34811879 162.36376266 -685 163 C-683.29589844 164.49291992 -683.29589844 164.49291992 -681.609375 166.23046875 C-680.66771484 167.18856445 -680.66771484 167.18856445 -679.70703125 168.16601562 C-679.06121094 168.83310547 -678.41539063 169.50019531 -677.75 170.1875 C-674.09169636 173.94679975 -670.45980175 177.66026641 -666.453125 181.05078125 C-658.87325662 187.57666063 -652.01309727 194.9359714 -644.98144531 202.0390625 C-635.57369318 211.60135316 -635.57369318 211.60135316 -625.62890625 220.59375 C-622.93874313 222.91619298 -620.47923294 225.45678686 -618 228 C-614.79890546 231.24498614 -611.60863969 234.42960507 -608.125 237.375 C-604.20161461 240.70741521 -600.61841219 244.34456838 -597 248 C-590.32116049 254.73338219 -583.58022906 261.00756305 -575.859375 266.54296875 C-574 268 -574 268 -572.32421875 269.78515625 C-568.88479463 273.06272511 -564.99307916 275.59584802 -561.0625 278.25 C-560.21002686 278.8277417 -559.35755371 279.4054834 -558.47924805 280.00073242 C-536.64800108 294.7203009 -513.30704231 306.42921347 -488 314 C-486.8759375 314.34675781 -485.751875 314.69351562 -484.59375 315.05078125 C-477.90901446 317.0489359 -471.33238268 318.60546015 -464.42578125 319.60546875 C-462 320 -462 320 -459 321 C-446.22390488 322.97414614 -433.51308615 323.31476302 -420.60522461 323.26074219 C-417.56929508 323.25002399 -414.53395862 323.26070523 -411.49804688 323.2734375 C-393.6201167 323.28703137 -376.60675819 321.76920841 -359.23046875 317.53662109 C-356.94985633 316.9879361 -354.66411707 316.46899441 -352.375 315.95703125 C-350.87493806 315.61746101 -349.37493585 315.27762677 -347.875 314.9375 C-347.20065918 314.78748535 -346.52631836 314.6374707 -345.83154297 314.48291016 C-341.71975635 313.52931908 -337.86965974 312.25011128 -333.9375 310.72045898 C-331.03082323 309.63961181 -328.05705177 308.86173317 -325.0625 308.0625 C-320.30778636 306.72633975 -315.87215259 305.24888503 -311.4140625 303.13671875 C-308.26886206 301.65572631 -305.07324474 300.29868776 -301.875 298.9375 C-300.73804688 298.45152344 -299.60109375 297.96554687 -298.4296875 297.46484375 C-296.13581966 296.4851166 -293.83890368 295.51249681 -291.5390625 294.546875 C-287.79648796 292.91104772 -284.14764373 291.14739771 -280.5 289.3125 C-279.89414063 289.01150391 -279.28828125 288.71050781 -278.6640625 288.40039062 C-273.80096408 285.96395879 -269.00184283 283.41206765 -264.20507812 280.84838867 C-263.51093811 280.47777061 -262.8167981 280.10715256 -262.10162354 279.72530365 C-260.40090972 278.81719234 -258.70043109 277.90864059 -257 277 C-256.9532094 252.45160527 -256.9179766 227.90321726 -256.89637566 203.35478687 C-256.88607788 191.95566629 -256.87204626 180.55657347 -256.84912109 169.1574707 C-256.82914127 159.21811758 -256.81627268 149.27878457 -256.81182301 139.33941191 C-256.8092234 134.08015463 -256.80314455 128.82095487 -256.78853989 123.56171608 C-256.77488334 118.6033475 -256.77079357 113.64505972 -256.77378464 108.68667412 C-256.77323807 106.87477808 -256.76930902 105.06287912 -256.76158905 103.25099945 C-256.6956885 86.97462327 -257.06468156 70.12817522 -267.3125 56.5 C-272.85666181 51.34264018 -278.94963969 47.70013799 -286 45 C-286 44.34 -286 43.68 -286 43 C-271.66403153 43.24298252 -258.7751603 46.50246164 -247 55 C-245.94941406 55.75539063 -244.89882812 56.51078125 -243.81640625 57.2890625 C-232.5215234 65.81763143 -222.74489066 76.01672616 -212.84814453 86.08642578 C-207.61693704 91.40594879 -202.43041999 96.66233132 -196.73486328 101.4921875 C-193.72788446 104.10562702 -190.96959055 106.96393178 -188.1875 109.8125 C-183.88254638 114.23589934 -183.88254638 114.23589934 -179 118 C-179 118.66 -179 119.32 -179 120 C-178.40670898 120.26876953 -177.81341797 120.53753906 -177.20214844 120.81445312 C-174.99459967 122.00290732 -173.53457118 123.20742389 -171.765625 124.96875 C-171.19199219 125.53980469 -170.61835937 126.11085938 -170.02734375 126.69921875 C-169.44082031 127.29347656 -168.85429688 127.88773438 -168.25 128.5 C-167.64800781 129.09425781 -167.04601563 129.68851563 -166.42578125 130.30078125 C-165.85730469 130.87183594 -165.28882813 131.44289063 -164.703125 132.03125 C-164.18395508 132.55267578 -163.66478516 133.07410156 -163.12988281 133.61132812 C-162 135 -162 135 -162 137 C-161.41444336 137.25885986 -160.82888672 137.51771973 -160.22558594 137.78442383 C-157.8311604 139.09221724 -156.28906671 140.49736101 -154.390625 142.44921875 C-153.71773437 143.13306641 -153.04484375 143.81691406 -152.3515625 144.52148438 C-151.65804687 145.23626953 -150.96453125 145.95105469 -150.25 146.6875 C-145.58758817 151.46957449 -140.87266247 156.06586597 -135.80761719 160.42163086 C-133.43409239 162.49413731 -131.21021782 164.69274753 -129 166.9375 C-128.236875 167.70964844 -127.47375 168.48179687 -126.6875 169.27734375 C-125.8521875 170.13005859 -125.8521875 170.13005859 -125 171 C-121.29703581 169.48705075 -119.2799836 167.3194126 -116.6875 164.3125 C-114.04025405 161.28954378 -111.39802316 158.34568308 -108.5 155.5625 C-104.8621764 151.98294817 -101.71763778 148.06159786 -98.51953125 144.08984375 C-95.73573073 140.67591164 -92.87793857 137.33447994 -90 134 C-85.49149149 128.77173596 -81.08035763 123.48044279 -76.7421875 118.109375 C-75 116 -75 116 -73 114 C-72.66679424 110.92356874 -72.66679424 110.92356874 -72.68115234 107.25537109 C-72.66608391 106.21617775 -72.66608391 106.21617775 -72.65071106 105.1559906 C-72.61977447 102.86181482 -72.60281524 100.56775627 -72.5859375 98.2734375 C-72.56723423 96.68444808 -72.54766146 95.09546867 -72.5272522 93.50650024 C-72.47583591 89.32098282 -72.43626123 85.13543317 -72.39910889 80.94976807 C-72.35912857 76.67997197 -72.30800907 72.41031105 -72.2578125 68.140625 C-72.16094085 59.76050887 -72.07657228 51.38032607 -72 43 C-69.35409986 42.97315321 -66.70846904 42.95323643 -64.0625 42.9375 C-63.30775391 42.92912109 -62.55300781 42.92074219 -61.77539062 42.91210938 C-59.85005687 42.90347559 -57.92464419 42.94775667 -56 43 C-54.45769023 44.54230977 -54.83752513 46.0040971 -54.79467773 48.15258789 C-54.77473251 49.03342545 -54.75478729 49.914263 -54.73423767 50.8217926 C-54.71752518 51.77907761 -54.70081268 52.73636261 -54.68359375 53.72265625 C-54.66281265 54.69786728 -54.64203156 55.67307831 -54.62062073 56.67784119 C-54.55501588 59.8059863 -54.49618972 62.93421822 -54.4375 66.0625 C-54.39432517 68.1777435 -54.35071123 70.29297809 -54.30664062 72.40820312 C-54.19932345 77.60537587 -54.0975778 82.80263577 -54 88 C-52.74491748 86.28471423 -51.49130272 84.56835445 -50.23828125 82.8515625 C-49.54001221 81.89588379 -48.84174316 80.94020508 -48.12231445 79.95556641 C-44.60826795 75.06185343 -41.29785119 70.04100111 -38 65 C-37.58878906 64.37351562 -37.17757812 63.74703125 -36.75390625 63.1015625 C-23.24266108 42.71267508 -23.24266108 42.71267508 -11.61328125 21.234375 C-8.0129846 14.01634685 -3.95536201 7.02810318 0 0 Z " fill="#74543F" transform="translate(1789,1031)"/>
<path d="M0 0 C50.76754703 -0.80191751 50.76754703 -0.80191751 66.3125 13.0625 C69.35402957 16.55462654 69.12979989 19.82531885 69.14476013 24.26916504 C69.15165863 25.58368149 69.15855713 26.89819794 69.16566467 28.25254822 C69.16837954 29.71328722 69.17101668 31.17402636 69.17358398 32.63476562 C69.17988986 34.17086474 69.18665569 35.70696203 69.19384766 37.24305725 C69.20852795 40.55623494 69.22024942 43.86940552 69.22979546 47.18260193 C69.24527468 52.4388659 69.26923103 57.69507009 69.29469299 62.95129395 C69.36580104 77.90059614 69.42535053 92.84993418 69.47680664 107.79931641 C69.50528901 116.05228048 69.54077604 124.30518665 69.58346039 132.55808973 C69.60566142 136.91761933 69.62425333 141.2770961 69.63390923 145.63667297 C68.50530975 188.84190605 68.50530975 188.84190605 88 226 C103.64386318 239.88869805 121.67754924 243.09223955 141.82275391 242.25146484 C162.68003116 240.60070446 182.47388286 232.16547089 197 217 C210.14515109 200.59738822 211.13643477 183.37255286 211.20532227 163.24951172 C211.21491566 161.46480592 211.22492657 159.68010232 211.23532104 157.895401 C211.26221794 153.07591312 211.2833093 148.25641561 211.30332303 143.43689489 C211.3252771 138.39070245 211.35261945 133.3445392 211.37937927 128.29837036 C211.42917933 118.75411622 211.47416493 109.20984577 211.51740164 99.66555989 C211.56688283 88.79489883 211.62176041 77.92426707 211.67708123 67.05363441 C211.79070637 44.70245032 211.89758737 22.35123808 212 0 C214.64590014 -0.02684679 217.29153096 -0.04676357 219.9375 -0.0625 C220.69224609 -0.07087891 221.44699219 -0.07925781 222.22460938 -0.08789062 C224.14994313 -0.09652441 226.07535581 -0.05224333 228 0 C229.88110202 1.88110202 229.13454542 5.12042129 229.14044189 7.62261963 C229.14341302 8.32327883 229.14638414 9.02393804 229.1494453 9.74582934 C229.15817038 12.11214026 229.15964386 14.4784008 229.16113281 16.84472656 C229.16575905 18.5349183 229.17078344 20.225109 229.17617798 21.91529846 C229.18934038 26.52600596 229.19575674 31.13669885 229.20018864 35.74742222 C229.20311891 38.63462329 229.20722408 41.52182039 229.21169281 44.40901947 C229.22539038 53.45980793 229.23504062 62.51058728 229.2388947 71.56138539 C229.24335284 81.97253617 229.26078588 92.38355417 229.2898953 102.79466462 C229.31164647 110.85779399 229.32160642 118.92088644 229.32293582 126.98404479 C229.32397617 131.78973091 229.32971515 136.59529264 229.34775543 141.40094757 C229.58381096 208.20314959 229.58381096 208.20314959 207.02734375 232.140625 C202.63908455 236.16530974 197.89980897 239.62795755 193 243 C192.09636719 243.63164063 191.19273437 244.26328125 190.26171875 244.9140625 C164.54634097 261.42719053 126.07557825 261.67631635 97.12890625 255.375 C81.66417311 251.51430066 65.04057688 244.82918951 54 233 C53.06994141 232.02546875 53.06994141 232.02546875 52.12109375 231.03125 C29.19251529 206.31885424 29.7031674 174.66762409 29.75617027 143.01185036 C29.76389269 138.18156685 29.75300439 133.35142694 29.7389679 128.52116394 C29.70153058 114.80243182 29.68308161 101.08377141 29.69458008 87.36499023 C29.70080251 79.75249994 29.68920256 72.14024771 29.65813476 64.527816 C29.63955727 59.73200948 29.64271999 54.93688183 29.66230237 50.14108717 C29.66920258 47.16001289 29.65519481 44.17930438 29.63535309 41.19829941 C29.62793803 39.16989617 29.64520713 37.1414491 29.66334534 35.1131134 C29.59558926 28.44296492 29.22982903 23.82016242 25.07168293 18.44958019 C24 17 24 17 24 15 C23.4121875 14.72800781 22.824375 14.45601562 22.21875 14.17578125 C20.04707001 13.02494379 18.38485831 11.7540818 16.5 10.1875 C11.49650431 6.33063874 5.8725777 4.21200427 0 2 C0 1.34 0 0.68 0 0 Z " fill="#755540" transform="translate(744,1074)"/>
<path d="M0 0 C49.29264213 -0.82270426 49.29264213 -0.82270426 65.36328125 12.15625 C69.02569732 16.28193111 69.25109774 20.53651072 69.25828552 25.88499451 C69.26196123 26.56542551 69.26563693 27.24585651 69.26942402 27.94690663 C69.279381 30.22045932 69.27525772 32.49376632 69.27124023 34.76733398 C69.27562892 36.40051025 69.28093159 38.03368427 69.28707886 39.66685486 C69.29857385 43.18246771 69.30403795 46.69802032 69.30496025 50.21365166 C69.30690432 55.78377103 69.32497893 61.35376653 69.34571838 66.92384338 C69.39487297 80.76643469 69.42571973 94.60905982 69.44702148 108.45172119 C69.46358743 119.19739845 69.48654037 129.94296976 69.53004223 140.68857628 C69.55170158 146.21344637 69.55988726 151.73811464 69.55764949 157.26302421 C69.55932952 160.71958035 69.57345979 164.17600753 69.59086227 167.63251686 C69.59640943 169.22145006 69.59699606 170.81041061 69.59192467 172.3993454 C69.53526762 192.25072443 73.48394979 209.85450324 87 225 C92.64666786 230.37357155 98.62254134 235.30703971 106 238 C106.99644531 238.36996094 107.99289062 238.73992187 109.01953125 239.12109375 C130.38452116 245.92868149 155.35549304 242.95616535 175.31494141 233.14135742 C189.32589376 225.8385666 201.82588519 213.63732643 207.234375 198.55859375 C210.91376368 186.20064698 211.16122323 174.31174762 211.20532227 161.54663086 C211.21491358 159.78177671 211.22492438 158.01692479 211.23532104 156.2520752 C211.26224041 151.4821135 211.28331977 146.71214205 211.30332303 141.94214702 C211.32526304 136.9493336 211.35261235 131.95654983 211.37937927 126.96376038 C211.42919816 117.51863788 211.47417686 108.07349884 211.51740164 98.62834412 C211.56686661 87.87136764 211.62175027 77.11442091 211.67708123 66.35747325 C211.79073532 44.2383431 211.89741796 22.11918404 212 0 C217.28 0 222.56 0 228 0 C228.06960917 23.45350253 228.12306673 46.90697995 228.15543652 70.36056519 C228.1708695 81.25180592 228.1918904 92.14298107 228.22631836 103.03417969 C228.25633039 112.53298235 228.2756009 122.03173748 228.28226548 131.53058624 C228.28615783 136.5546711 228.29523008 141.57862006 228.31719017 146.60266113 C228.33774231 151.3435622 228.34379646 156.084273 228.33932304 160.82521439 C228.34013995 162.55361596 228.34599299 164.28202474 228.35761642 166.01038742 C228.51939823 191.33580809 222.82757511 214.97577547 204.65234375 233.44921875 C183.37403677 253.91274519 154.03546816 259.12227963 125.5 259.03515625 C100.77310962 258.51174032 74.81939329 251.61743619 56 235 C55.16339844 234.27039062 54.32679687 233.54078125 53.46484375 232.7890625 C43.24488491 223.27991996 36.51224519 211.48311902 33 198 C32.78859375 197.22269531 32.5771875 196.44539063 32.359375 195.64453125 C29.71454576 184.97075611 29.85671322 173.97398139 29.87402344 163.04858398 C29.87262536 161.57552029 29.87072391 160.102457 29.86836243 158.62939453 C29.86389753 155.47893895 29.86201007 152.32849629 29.86190033 149.17803764 C29.86075105 144.18824397 29.84784972 139.19852276 29.83233643 134.20875549 C29.82976357 133.36335801 29.82719072 132.51796053 29.8245399 131.64694494 C29.81927451 129.91954734 29.81398903 128.1921498 29.80868387 126.46475232 C29.77368198 114.86459156 29.7470257 103.26452478 29.74951172 91.66430664 C29.7511033 83.81525631 29.7350036 75.96645729 29.69880509 68.11748749 C29.68040963 63.97341813 29.67094684 59.8297682 29.68328094 55.68566704 C29.69476939 51.7889837 29.68289471 47.89305144 29.65364647 43.99646759 C29.64704264 42.57355923 29.64880928 41.1505813 29.65994453 39.72770119 C29.73305616 29.53366016 28.23704012 22.30577474 21.81640625 14.265625 C15.1113425 8.26941548 8.37321593 5.07661392 0 2 C0 1.34 0 0.68 0 0 Z " fill="#755440" transform="translate(1255,1074)"/>
<path d="M0 0 C62.37 0 124.74 0 189 0 C189 4.62 189 9.24 189 14 C149.07 14 109.14 14 68 14 C68 47 68 80 68 114 C101.66 114 135.32 114 170 114 C170 119.28 170 124.56 170 130 C136.34 130 102.68 130 68 130 C68 166.3 68 202.6 68 240 C107.93 240 147.86 240 189 240 C189 244.62 189 249.24 189 254 C136.53 254 84.06 254 30 254 C29.99742187 237.82484375 29.99484375 221.6496875 29.9921875 204.984375 C29.97724092 194.73956316 29.96078425 184.49479066 29.9375 174.25 C29.92535906 168.86718833 29.91352208 163.48437626 29.90234375 158.1015625 C29.90092731 157.42696818 29.89951087 156.75237386 29.8980515 156.05733728 C29.8757644 145.18413578 29.87451491 134.31102932 29.88111137 123.43781134 C29.88741628 112.26863832 29.87049344 101.09963211 29.83356392 89.93050981 C29.81356472 83.66123336 29.80397129 77.39233657 29.81957626 71.12303925 C29.83394582 65.21642663 29.82009724 59.31053805 29.78504753 53.4040184 C29.77710995 51.24179497 29.77928782 49.07950578 29.79260826 46.91730881 C30.01435884 28.93851849 30.01435884 28.93851849 20.94222832 13.88933945 C14.91530998 8.60837053 7.20476361 5.37178838 0 2 C0 1.34 0 0.68 0 0 Z " fill="#65983E" transform="translate(2277,1074)"/>
<path d="M0 0 C0.99220551 0.00555908 0.99220551 0.00555908 2.00445557 0.01123047 C11.99590839 0.09095192 20.88157755 0.53714289 30.1875 4.4375 C31.17145752 4.84814697 31.17145752 4.84814697 32.17529297 5.26708984 C51.0477752 13.35529651 62.29310781 26.51959125 70.1875 45.4375 C71.44998491 49.73639934 72.37226616 54.03523727 73.1875 58.4375 C73.5175 59.7575 73.8475 61.0775 74.1875 62.4375 C69.8975 62.4375 65.6075 62.4375 61.1875 62.4375 C60.465625 60.66375 59.74375 58.89 59 57.0625 C51.2457548 38.60826282 41.97406261 26.54337727 23.1875 18.4375 C10.20876173 13.96207301 -6.91787128 13.27964851 -19.8125 18.4375 C-22.8692694 20.16340493 -25.75758373 21.99905861 -28.6328125 24.01171875 C-30.8125 25.4375 -30.8125 25.4375 -32.8125 25.4375 C-33.080625 26.076875 -33.34875 26.71625 -33.625 27.375 C-34.8125 29.4375 -34.8125 29.4375 -37.8125 30.4375 C-38.53705635 32.07982772 -39.19024395 33.75374835 -39.8125 35.4375 C-40.493125 36.406875 -41.17375 37.37625 -41.875 38.375 C-45.68118161 44.88970035 -45.48928496 53.98037995 -44.25 61.25 C-40.61349711 74.21700372 -28.69908395 84.47601094 -17.8125 91.4375 C-16.66568422 92.22774281 -15.51967569 93.01916041 -14.375 93.8125 C-11.84717128 95.5598333 -11.84717128 95.5598333 -8.8125 96.4375 C-8.8125 97.0975 -8.8125 97.7575 -8.8125 98.4375 C-7.93126465 98.71062012 -7.0500293 98.98374023 -6.14208984 99.26513672 C-3.05379156 100.35254018 -0.39689469 101.61196893 2.4609375 103.1953125 C3.44231689 103.73422119 4.42369629 104.27312988 5.43481445 104.82836914 C6.46695068 105.40063232 7.49908691 105.97289551 8.5625 106.5625 C15.47583171 110.36262578 22.38567402 114.09082091 29.5 117.5 C38.1349653 121.68135603 46.15309069 126.8669991 54.16894531 132.11914062 C55.46221595 132.96380214 56.76309883 133.79698845 58.07324219 134.61523438 C59.47837408 135.50484977 60.83916783 136.46394387 62.1875 137.4375 C62.1875 138.0975 62.1875 138.7575 62.1875 139.4375 C62.75082031 139.68757813 63.31414062 139.93765625 63.89453125 140.1953125 C76.24745112 146.88735427 85.08273362 159.92254963 89.2578125 172.98046875 C90.63704343 178.10912158 91.63274549 183.15593313 92.1875 188.4375 C92.27128906 189.15808594 92.35507812 189.87867188 92.44140625 190.62109375 C93.40210521 207.01495659 84.81662842 225.97469012 74.34790039 238.05688477 C61.36401964 252.49265871 43.64021322 260.97488998 24.1875 262.4375 C-2.14948595 263.60694612 -26.83175406 262.40270672 -47.70703125 244.4296875 C-54.03231623 238.44472397 -58.59649781 232.04356243 -62.8125 224.4375 C-63.17085937 223.83808594 -63.52921875 223.23867187 -63.8984375 222.62109375 C-69.17567269 213.18539723 -72.2270715 201.17035577 -72.8125 190.4375 C-68.8525 190.4375 -64.8925 190.4375 -60.8125 190.4375 C-60.4825 192.2525 -60.1525 194.0675 -59.8125 195.9375 C-57.14118721 207.52162893 -51.00868493 222.64004338 -40.8125 229.4375 C-40.8125 230.0975 -40.8125 230.7575 -40.8125 231.4375 C-40.07128906 231.70949219 -39.33007812 231.98148438 -38.56640625 232.26171875 C-35.96989302 233.370301 -34.01915499 234.59294848 -31.75 236.25 C-16.0119677 246.97809202 4.612202 249.86627364 23.1875 246.4375 C29.08788964 244.9675423 34.13324357 242.5387221 39.33984375 239.42578125 C41.1875 238.4375 41.1875 238.4375 43.1875 238.4375 C43.5175 237.4475 43.8475 236.4575 44.1875 235.4375 C45.115625 234.715625 46.04375 233.99375 47 233.25 C50.75996491 230.23663099 52.38252178 226.83362473 54.1875 222.4375 C54.48785156 221.79296875 54.78820312 221.1484375 55.09765625 220.484375 C58.28587634 212.71401534 58.56521649 202.84717776 56.49609375 194.72265625 C55.55326834 192.47802171 54.47938649 190.4997039 53.1875 188.4375 C52.75179687 187.69242188 52.31609375 186.94734375 51.8671875 186.1796875 C46.29449448 177.19638454 39.11999396 170.92697384 30.1875 165.4375 C29.23101563 164.83292969 28.27453125 164.22835938 27.2890625 163.60546875 C16.21846592 156.67609534 4.90634293 150.20651158 -6.8125 144.4375 C-26.15058628 134.87932415 -45.69119302 124.14363196 -59.8125 107.4375 C-59.8125 106.7775 -59.8125 106.1175 -59.8125 105.4375 C-60.4725 105.4375 -61.1325 105.4375 -61.8125 105.4375 C-73.03220291 91.48868017 -77.21639753 74.88520499 -75.50390625 57.26171875 C-74.55688168 50.12970188 -72.92513422 43.91874165 -69.8125 37.4375 C-69.1628125 36.04337891 -69.1628125 36.04337891 -68.5 34.62109375 C-65.66388307 28.95656673 -62.73642833 24.8938373 -57.7421875 20.97265625 C-55.73968766 19.44896035 -55.73968766 19.44896035 -53.91015625 17.4609375 C-40.18701863 4.22334851 -18.30328237 -0.14848651 0 0 Z " fill="#74543F" transform="translate(652.8125,1069.5625)"/>
<path d="M0 0 C62.7 0 125.4 0 190 0 C190 4.29 190 8.58 190 13 C150.07 13 110.14 13 69 13 C69 46 69 79 69 113 C102.33 113 135.66 113 170 113 C170 118.28 170 123.56 170 129 C136.67 129 103.34 129 69 129 C69 169.92 69 210.84 69 253 C56.13 253 43.26 253 30 253 C29.99413376 250.18641968 29.98826752 247.37283936 29.98222351 244.47399902 C29.92702454 218.66105708 29.85705377 192.84818768 29.77101372 167.03532955 C29.75974582 163.65083205 29.74860733 160.26633413 29.73754883 156.88183594 C29.73534514 156.20805548 29.73314146 155.53427503 29.730871 154.84007698 C29.6955178 143.93646336 29.67064252 133.03284981 29.64965298 122.12920016 C29.62787516 110.93747631 29.5945841 99.74581928 29.55129844 88.55415583 C29.52735531 82.26946437 29.5086336 75.98485505 29.50238609 69.70011902 C29.49634029 63.78384591 29.47635822 57.867783 29.44572449 51.95158768 C29.43693626 49.7812356 29.4332233 47.61085606 29.43499184 45.44048691 C29.43664574 42.47403873 29.41993479 39.50823044 29.39872742 36.54187012 C29.40357499 35.68581853 29.40842257 34.82976695 29.41341704 33.94777441 C29.31307176 25.42511277 26.80905756 19.07605096 20.94140625 12.81640625 C14.88425866 7.14925609 7.78563656 4.56181791 0 2 C0 1.34 0 0.68 0 0 Z " fill="#65983E" transform="translate(2059,1075)"/>
<path d="M0 0 C4.76479624 -0.05003421 9.5294342 -0.08601444 14.29443359 -0.10986328 C15.91002064 -0.11982216 17.52559015 -0.13339418 19.14111328 -0.15087891 C34.60393661 -0.31384729 50.52382586 -0.28592388 62.72265625 10.53515625 C65.9540283 14.24085814 65.13596416 19.17724323 65.12025452 23.78874207 C65.12110894 24.69785396 65.12196337 25.60696586 65.12284368 26.54362661 C65.12449612 29.602265 65.11898093 32.66084904 65.11352539 35.71948242 C65.11324344 37.90708922 65.1134014 40.09469611 65.1139679 42.28230286 C65.11425557 48.23235692 65.10836364 54.18239094 65.10139394 60.13244033 C65.09515545 66.34645598 65.09455621 72.56047206 65.09336853 78.77449036 C65.09061055 89.20798077 65.08435838 99.6414643 65.07543945 110.07495117 C65.06626201 120.82202111 65.05919427 131.56908905 65.05493164 142.31616211 C65.05466364 142.98524379 65.05439565 143.65432547 65.05411953 144.34368235 C65.05180672 150.16362794 65.0496539 155.98357359 65.04751682 161.80351925 C65.03810527 186.86901977 65.01818537 211.93450076 65 237 C107.24 237 149.48 237 193 237 C193 242.28 193 247.56 193 253 C139.21 253 85.42 253 30 253 C29.93941406 236.98339844 29.87882812 220.96679688 29.81640625 204.46484375 C29.77592397 194.33398183 29.73519688 184.20312189 29.69335938 174.07226562 C29.67139946 168.75105822 29.64948897 163.42985062 29.62768555 158.10864258 C29.62495036 157.44172632 29.62221517 156.77481006 29.6193971 156.08768421 C29.57534222 145.3242868 29.53471145 134.56087906 29.49534739 123.79746359 C29.45486559 112.74928269 29.41062703 101.7011214 29.36312145 90.65296847 C29.33656095 84.44825223 29.31170887 78.2435397 29.29092598 72.03880119 C29.27131156 66.19893632 29.24715344 60.35910788 29.21950912 54.51927567 C29.21016413 52.37590892 29.20247974 50.2325342 29.19658089 48.0891552 C29.18827628 45.16197164 29.17398753 42.23487549 29.15821838 39.307724 C29.15724028 38.46043242 29.15626217 37.61314084 29.15525442 36.74017376 C29.24759481 27.04570159 29.24759481 27.04570159 24.9375 18.6875 C22 15.16941176 22 15.16941176 22 13 C21.484375 12.773125 20.96875 12.54625 20.4375 12.3125 C18 11 18 11 14.9375 8.6875 C10.35399176 5.32492627 5.20838264 3.21332716 0 1 C0 0.67 0 0.34 0 0 Z " fill="#63973C" transform="translate(1773,1075)"/>
<path d="M0 0 C4.94383313 -0.0498757 9.88751599 -0.08594211 14.83154297 -0.10986328 C16.50930334 -0.11984803 18.18704664 -0.13344057 19.86474609 -0.15087891 C28.80600918 -0.24140986 37.29331164 -0.31443615 46 2 C47.55267578 2.29970703 47.55267578 2.29970703 49.13671875 2.60546875 C55.7017739 4.10346755 60.08056929 6.40081328 64 12 C66.50664954 16.74834789 66.27438261 21.29082188 66.24050903 26.52278137 C66.24221788 27.4866883 66.24392673 28.45059523 66.24568737 29.44371146 C66.24898345 32.67584729 66.23797648 35.90777585 66.22705078 39.13989258 C66.22648669 41.45587153 66.22680318 43.77185084 66.22793579 46.08782959 C66.2285104 52.37868644 66.21673854 58.66946725 66.20278788 64.96030641 C66.19029856 71.53332272 66.18911144 78.10634072 66.18673706 84.67936707 C66.18155718 95.71293458 66.16872544 106.74647541 66.15087891 117.7800293 C66.13251712 129.14396017 66.11836208 140.50788346 66.10986328 151.87182617 C66.10933783 152.57245652 66.10881239 153.27308686 66.10827102 153.99494842 C66.10566092 157.50985195 66.10313351 161.02475553 66.10064721 164.53965914 C66.0799183 193.69312476 66.04414496 222.84656072 66 252 C54.78 252 43.56 252 32 252 C31.99413376 249.29774734 31.98826752 246.59549469 31.98222351 243.81135559 C31.92552039 218.3416948 31.85242205 192.87211859 31.76428509 167.40254688 C31.71936625 154.30849323 31.67994251 141.21446654 31.65356445 128.12036133 C31.63055275 116.70430126 31.59711919 105.28832679 31.55129844 93.87233466 C31.52740913 87.83061093 31.5086522 81.78897176 31.50238609 75.74720192 C31.49631588 70.05334064 31.47624601 64.3596956 31.44572449 58.66591454 C31.43697528 56.58312866 31.43321517 54.50031448 31.43499184 52.41751099 C32.00159085 32.39566473 32.00159085 32.39566473 23.84765625 14.76953125 C16.89472099 8.11058902 8.94375221 4.33469799 0 1 C0 0.67 0 0.34 0 0 Z " fill="#62963A" transform="translate(1972,1075)"/>
<path d="M0 0 C7.87311067 6.74838058 7.87311067 6.74838058 10.5168457 9.41918945 C11.11048416 10.01613113 11.70412262 10.61307281 12.31575012 11.22810364 C12.92956039 11.85021225 13.54337067 12.47232086 14.17578125 13.11328125 C15.1526313 14.09581123 15.1526313 14.09581123 16.1492157 15.09819031 C18.20611227 17.16719381 20.25970113 19.23943134 22.3125 21.3125 C25.03490678 24.06144527 27.76057417 26.80709645 30.48828125 29.55078125 C31.42417839 30.4991259 31.42417839 30.4991259 32.37898254 31.46662903 C35.39435439 34.61875403 35.39435439 34.61875403 39 37 C39 37.66 39 38.32 39 39 C39.79712402 39.30707886 39.79712402 39.30707886 40.61035156 39.62036133 C43.9981 41.57624265 46.52262631 44.29806639 49.234375 47.07421875 C49.83123108 47.6762764 50.42808716 48.27833405 51.04302979 48.89863586 C52.95017565 50.82355915 54.85052066 52.75501347 56.75 54.6875 C67.53617837 65.70345456 67.53617837 65.70345456 79 76 C80.37052685 77.2108981 81.73047903 78.43436865 83.0625 79.6875 C83.65160156 80.22761719 84.24070312 80.76773437 84.84765625 81.32421875 C86 83 86 83 85.98828125 84.9140625 C84.58227048 87.88168997 82.58632399 89.52251105 80.125 91.6875 C79.63612305 92.12030273 79.14724609 92.55310547 78.64355469 92.99902344 C74.34554834 96.7745594 69.92358479 100.39889217 65.47265625 103.9921875 C63.50883327 105.58682417 61.58862024 107.20735067 59.6875 108.875 C44.50528859 121.94956324 28.06089937 133.72566364 11.4375 144.875 C10.52669678 145.48835205 9.61589355 146.1017041 8.67749023 146.73364258 C7.83387939 147.2933374 6.99026855 147.85303223 6.12109375 148.4296875 C5.3727124 148.92710449 4.62433105 149.42452148 3.85327148 149.93701172 C2 151 2 151 0 151 C0 101.17 0 51.34 0 0 Z " fill="#FDFCFC" transform="translate(1549,1147)"/>
<path d="M0 0 C0.33 0 0.66 0 1 0 C1 60.72 1 121.44 1 184 C0.34 184 -0.32 184 -1 184 C-2.25227484 182.52295788 -3.50166522 181.04172601 -4.68359375 179.5078125 C-6.11764091 177.73237056 -6.11764091 177.73237056 -9 176 C-9 175.34 -9 174.68 -9 174 C-9.99 173.67 -10.98 173.34 -12 173 C-12 172.34 -12 171.68 -12 171 C-12.59834656 170.72729782 -13.19669312 170.45459564 -13.81317139 170.17362976 C-15.94427996 169.0299039 -17.30322739 167.93403106 -18.98925781 166.22192383 C-19.54373596 165.66406693 -20.09821411 165.10621002 -20.66949463 164.53144836 C-21.25809265 163.92939072 -21.84669067 163.32733307 -22.453125 162.70703125 C-23.07217712 162.08277756 -23.69122925 161.45852386 -24.32904053 160.81535339 C-26.30751147 158.8191003 -28.27918743 156.816312 -30.25 154.8125 C-32.20732784 152.82736234 -34.16615943 150.8437716 -36.12811279 148.86320496 C-37.34652827 147.63274322 -38.56226621 146.39962165 -39.77471924 145.1632843 C-42.73487698 142.1690356 -45.75237208 139.30781184 -48.94091797 136.55688477 C-53.13330922 132.93422825 -57.0372977 129.07310649 -60.9296875 125.1328125 C-61.64609406 124.41261932 -62.36250061 123.69242615 -63.10061646 122.95040894 C-65.36121562 120.67771159 -67.61850488 118.40177171 -69.875 116.125 C-72.86954456 113.1039215 -75.86734985 110.08613409 -78.8671875 107.0703125 C-79.55360321 106.37559845 -80.24001892 105.6808844 -80.94723511 104.96511841 C-81.58194733 104.32710297 -82.21665955 103.68908752 -82.87060547 103.03173828 C-83.70711136 102.18737717 -83.70711136 102.18737717 -84.56051636 101.32595825 C-85.98236158 99.89338188 -85.98236158 99.89338188 -88 99 C-86.67504335 95.98168412 -85.37434571 94.24036974 -82.8125 92.1875 C-77.57351269 87.79101158 -72.86151496 82.8843347 -68.10473633 77.97924805 C-67.47462646 77.33769775 -66.8445166 76.69614746 -66.1953125 76.03515625 C-65.62828613 75.4512915 -65.06125977 74.86742676 -64.47705078 74.26586914 C-63 73 -63 73 -61 73 C-60.505 71.515 -60.505 71.515 -60 70 C-56.06785699 71.58939426 -53.66979654 74.16342502 -50.75 77.1875 C-47.65011879 80.39041195 -44.53912326 83.43665247 -41.16015625 86.34375 C-36.78499041 90.12598075 -32.73665434 94.18687438 -28.6875 98.3125 C-27.29793562 99.72758439 -25.906103 101.14044599 -24.51171875 102.55078125 C-23.90803467 103.16606689 -23.30435059 103.78135254 -22.68237305 104.4152832 C-20.88308349 106.19836134 -20.88308349 106.19836134 -18 108 C-18 108.66 -18 109.32 -18 110 C-17.34 110 -16.68 110 -16 110 C-16.03330917 108.34868073 -16.03330917 108.34868073 -16.06729126 106.66400146 C-16.27070483 96.24908498 -16.42024138 85.83457547 -16.51812172 75.41811752 C-16.57013814 70.06370504 -16.64059532 64.71090591 -16.75439453 59.35742188 C-16.86368716 54.18309119 -16.92297288 49.01030405 -16.94877243 43.83490753 C-16.96713785 41.86848925 -17.00300285 39.90214802 -17.05730057 37.93639374 C-17.52880656 20.14591535 -17.52880656 20.14591535 -11.16162109 12.99316406 C-9.46161774 11.30780498 -7.74264004 9.641235 -6 8 C-4.77693735 6.44397351 -3.58075688 4.86556938 -2.4375 3.25 C-1.64808139 2.14973384 -0.84404074 1.0589441 0 0 Z " fill="#65983F" transform="translate(1733,1143)"/>
<path d="M0 0 C14.104742 13.71294361 23.78260781 31.08589404 24.1875 50.875 C24.01451014 64.6276936 19.28611657 74.88203752 10 85 C3.25270441 91.37083704 -4.21919845 97.67142857 -13 101 C-14.485 100.505 -14.485 100.505 -16 100 C-15.05046826 84.61103735 -8.95920655 73.23171748 -0.8125 60.3125 C3.37647169 53.58574352 7.34287785 47.11477578 7 39 C6.731875 39.73863281 6.46375 40.47726562 6.1875 41.23828125 C2.48729847 50.81742139 -2.64072503 58.44331115 -9.625 65.9375 C-16.70952895 73.8145904 -21.68913762 85.51310099 -23 96 C-23.66 96 -24.32 96 -25 96 C-25.77252241 94.62594827 -26.5429232 93.25070366 -27.3125 91.875 C-27.95638672 90.72644531 -27.95638672 90.72644531 -28.61328125 89.5546875 C-29.07089844 88.71164062 -29.52851562 87.86859375 -30 87 C-30.53753906 86.0925 -31.07507813 85.185 -31.62890625 84.25 C-35.26495517 75.63121737 -34.30068706 64.22814816 -30.99804688 55.61328125 C-26.32017045 44.95986246 -19.23590361 36.36234352 -11.25 28 C-4.01719987 20.10034596 -0.04843586 10.72854375 0 0 Z " fill="#65983E" transform="translate(892,1162)"/>
<path d="M0 0 C1.51821796 0.07964092 3.03644784 0.15905502 4.5546875 0.23828125 C8.70516015 0.46427152 12.8525145 0.72481139 17 1 C17 2.32 17 3.64 17 5 C14.69 5.33 12.38 5.66 10 6 C10.495 7.0209375 10.495 7.0209375 11 8.0625 C12.76411096 13.24457594 12.5446035 17.32653974 10.25 22.25 C8.23521624 25.91775775 6.31772842 28.28296855 2.20703125 29.5546875 C-3.38431544 30.68285303 -9.53421901 30.70715697 -14.9375 28.8125 C-17.99089111 27.62093704 -17.99089111 27.62093704 -20.4375 29.375 C-20.953125 29.91125 -21.46875 30.4475 -22 31 C-21.65213292 32.97536745 -21.65213292 32.97536745 -21 35 C-18.30508721 36.34745639 -16.15906344 36.14441044 -13.14453125 36.17578125 C-11.96439453 36.19962891 -10.78425781 36.22347656 -9.56835938 36.24804688 C-7.0841536 36.29067755 -4.59972791 36.32210992 -2.11523438 36.34179688 C4.75064051 36.50216223 9.47308308 36.76478463 15 41 C19.06399853 46.24386907 18.7491406 52.65843769 18 59 C16.08660718 63.65869555 13.86345718 65.27252299 9.4375 67.3125 C0.04115369 71.06786944 -10.29196646 71.46220798 -19.93359375 68.03125 C-23.61642141 66.1933171 -24.96974053 64.65446704 -27 61 C-27.8481854 57.05593789 -27.96605808 53.6289738 -25.8671875 50.08984375 C-24.5 48.4375 -24.5 48.4375 -22 46 C-23.2375 45.0409375 -23.2375 45.0409375 -24.5 44.0625 C-27.48399446 40.40710678 -27.50465214 38.71672264 -27.37109375 34.18359375 C-26.95706137 31.74734004 -26.31343488 30.09176666 -25 28 C-22 26 -22 26 -19 26 C-19.30035156 25.43152344 -19.60070313 24.86304688 -19.91015625 24.27734375 C-22.46591583 19.08785227 -23.63751012 15.78586909 -22 10 C-20.41942688 5.52170948 -18.51489518 2.85374686 -14.18359375 0.68359375 C-9.53793775 -0.77077083 -4.8020212 -0.27967816 0 0 Z " fill="#68505C" transform="translate(1822,1442)"/>
<path d="M0 0 C12.67186361 1.10190118 24.63629067 7.76946576 33.3125 16.91796875 C35.83729244 20.03304831 37.50708786 23.29728228 39 27 C39.35578125 27.76054688 39.7115625 28.52109375 40.078125 29.3046875 C44.90489772 43.41686196 38.24203578 59.05736142 32.171875 71.6484375 C31.59179688 72.81246094 31.59179688 72.81246094 31 74 C30.45914888 71.89422721 29.9732951 69.83531978 29.625 67.6875 C29.05185919 64.84367547 29.05185919 64.84367547 27.5625 61.75 C24.15571232 53.92269758 23.80846646 46.28024647 23.46655273 37.89770508 C23.12829216 31.00537664 21.86949463 24.65493056 20 18 C19.89386506 20.90263462 19.89386506 20.90263462 20.49829102 23.29394531 C21.06725144 26.36273236 21.07879439 29.17661286 21.02734375 32.296875 C21.00897461 34.10671875 21.00897461 34.10671875 20.99023438 35.953125 C20.9552943 38.46881063 20.91628301 40.98444327 20.87304688 43.5 C20.78992365 52.69245038 21.87944708 60.30703115 25 69 C18.50318102 67.99521956 13.39707441 64.84398658 9.15625 59.8125 C2.18923461 49.70349727 0.98510565 38.65516537 2.5 26.6875 C3.62140225 17.22154573 3.34131003 8.98971507 0 0 Z " fill="#669840" transform="translate(1763,951)"/>
<path d="M0 0 C3.3 0 6.6 0 10 0 C10 1.32 10 2.64 10 4 C10.8353125 3.3503125 11.670625 2.700625 12.53125 2.03125 C16.14462411 -0.36918398 19.1525706 -0.53534495 23.5 -0.5 C25.40265625 -0.51546875 25.40265625 -0.51546875 27.34375 -0.53125 C31.52920208 0.07689261 33.59130582 1.58710412 37 4 C41.02360676 4.38394583 41.02360676 4.38394583 43.7890625 2.03515625 C49.41375749 -1.52988765 55.56377076 -0.81227278 62 0 C66.62082904 1.76223757 69.26897195 3.90345792 72 8 C73.23040933 12.33094378 73.12880966 16.67926037 73.09765625 21.14453125 C73.0962413 21.91431808 73.09482635 22.68410492 73.09336853 23.47721863 C73.08779606 25.92235288 73.07524871 28.36739368 73.0625 30.8125 C73.05748144 32.47591013 73.05291915 34.1393217 73.04882812 35.80273438 C73.03783566 39.86852528 73.0205901 43.93424683 73 48 C69.7 48 66.4 48 63 48 C62.98541748 46.94087402 62.97083496 45.88174805 62.95581055 44.79052734 C62.89762673 40.84292658 62.82039593 36.89588429 62.73754883 32.94873047 C62.70439364 31.24374488 62.67633263 29.53865202 62.65356445 27.83349609 C62.61984432 25.37551366 62.56752206 22.91850594 62.51171875 20.4609375 C62.50532883 19.70444916 62.4989389 18.94796082 62.49235535 18.16854858 C62.36175987 13.41628167 61.54891653 10.14866322 59 6 C56.99304113 4.29036837 55.71874411 3.99703611 53.10546875 4.0078125 C48.89076668 4.36750878 46.00215122 4.81624852 43 8 C42.35890733 11.00065306 42.39499866 13.98347041 42.390625 17.04296875 C42.37408875 17.9265657 42.35755249 18.81016266 42.34051514 19.72053528 C42.29192715 22.54292678 42.27064059 25.36477912 42.25 28.1875 C42.2218493 30.10093874 42.19192314 32.01435225 42.16015625 33.92773438 C42.08616545 38.61844521 42.03665698 43.30885483 42 48 C38.7 48 35.4 48 32 48 C31.98541748 46.97640381 31.97083496 45.95280762 31.95581055 44.89819336 C31.89753495 41.07542189 31.82030579 37.25322155 31.73754883 33.4309082 C31.7044364 31.7812634 31.67636244 30.13150904 31.65356445 28.48168945 C31.61976467 26.10060232 31.56743996 23.72050694 31.51171875 21.33984375 C31.50532883 20.61039047 31.4989389 19.88093719 31.49235535 19.12937927 C31.34990513 14.09035217 30.38382534 10.46918913 28 6 C24.66461097 3.77640731 23.8905952 3.76809488 20.0625 4.125 C18.78052734 4.22167969 18.78052734 4.22167969 17.47265625 4.3203125 C14.14721187 5.23441569 13.07791167 6.22532132 11 9 C10.38585279 11.96796219 10.39508709 14.89869837 10.390625 17.921875 C10.37408875 18.78186096 10.35755249 19.64184692 10.34051514 20.52789307 C10.29201632 23.26866788 10.27066044 26.0088878 10.25 28.75 C10.22184183 30.61070503 10.19191461 32.47138419 10.16015625 34.33203125 C10.08625703 38.88797515 10.03669405 43.44361067 10 48 C6.7 48 3.4 48 0 48 C0 32.16 0 16.32 0 0 Z " fill="#654D59" transform="translate(906,1442)"/>
<path d="M0 0 C3.39908834 3.13328285 4.58509001 5.07745807 5.2734375 9.70703125 C5.35543483 12.50393381 5.39004019 15.27439131 5.37109375 18.0703125 C5.3696788 18.86229538 5.36826385 19.65427826 5.36680603 20.47026062 C5.36123207 22.98672344 5.34868443 25.50309556 5.3359375 28.01953125 C5.33091913 29.7311185 5.32635681 31.44270716 5.32226562 33.15429688 C5.31127118 37.33857633 5.29402457 41.52278844 5.2734375 45.70703125 C1.6434375 45.70703125 -1.9865625 45.70703125 -5.7265625 45.70703125 C-6.0565625 44.38703125 -6.3865625 43.06703125 -6.7265625 41.70703125 C-7.50580078 42.10535156 -7.50580078 42.10535156 -8.30078125 42.51171875 C-9.74546175 43.24340536 -11.19495271 43.96565039 -12.6484375 44.6796875 C-14.16815356 45.4309757 -15.67141834 46.21579978 -17.1640625 47.01953125 C-22.29301871 48.39559267 -27.05446235 47.63202282 -31.6640625 45.08203125 C-35.44763107 40.72519472 -35.94552494 36.24491662 -35.7265625 30.64453125 C-35.13110232 26.37922411 -34.15565653 23.75744921 -30.84765625 20.94921875 C-23.09303045 16.40783569 -13.49984732 15.04324297 -4.7265625 13.70703125 C-5.00868127 12.08034645 -5.30258625 10.45570229 -5.6015625 8.83203125 C-5.76398437 7.92710938 -5.92640625 7.0221875 -6.09375 6.08984375 C-6.55700953 3.54197137 -6.55700953 3.54197137 -8.7265625 1.70703125 C-15.02302149 0.27099674 -19.90322115 0.81258939 -25.7265625 3.70703125 C-26.24605469 4.238125 -26.76554688 4.76921875 -27.30078125 5.31640625 C-28.7265625 6.70703125 -28.7265625 6.70703125 -31.7265625 6.70703125 C-30.74088182 3.15858081 -29.83755715 1.79582697 -26.9140625 -0.54296875 C-19.43561341 -4.64878394 -7.09522089 -5.3133894 0 0 Z " fill="#674F5A" transform="translate(845.7265625,1444.29296875)"/>
<path d="M0 0 C4.97225396 5.22724134 5.13930257 8.9686397 5.09765625 15.9453125 C5.0962413 16.8303244 5.09482635 17.7153363 5.09336853 18.62716675 C5.0877614 21.45981191 5.07520771 24.29237864 5.0625 27.125 C5.05748592 29.04296761 5.05292285 30.96093646 5.04882812 32.87890625 C5.03778966 37.58596782 5.02052025 42.2929706 5 47 C1.7 47 -1.6 47 -5 47 C-5.33 45.02 -5.66 43.04 -6 41 C-6.50789063 41.33773438 -7.01578125 41.67546875 -7.5390625 42.0234375 C-13.99507444 46.20654636 -19.05768867 48.69870494 -26.87890625 47.6171875 C-30.21328036 46.64696446 -31.90886251 44.67926991 -34 42 C-35.33827901 39.32344199 -35.20578556 37.17565948 -35.25 34.1875 C-35.27578125 33.14980469 -35.3015625 32.11210938 -35.328125 31.04296875 C-34.86331027 26.73236545 -33.33790811 24.2268902 -30.1640625 21.31640625 C-23.03577002 16.98024277 -14.13974347 15.36862943 -6 14 C-5.94604522 12.37536158 -5.90722805 10.75021459 -5.875 9.125 C-5.85179687 8.22007813 -5.82859375 7.31515625 -5.8046875 6.3828125 C-5.75675164 3.81193006 -5.75675164 3.81193006 -8 2 C-13.61183785 0.58275378 -18.61629588 0.78318066 -24 3 C-25.37086915 4.29470975 -26.71340837 5.62150897 -28 7 C-28.99 7 -29.98 7 -31 7 C-30.00261116 3.40940017 -29.11279244 2.08827235 -26.125 -0.25 C-17.99437277 -4.80315125 -8.16166906 -4.15242812 0 0 Z " fill="#69515D" transform="translate(1503,1444)"/>
<path d="M0 0 C3.3 0 6.6 0 10 0 C10 8.91 10 17.82 10 27 C10.66 27 11.32 27 12 27 C12 26.34 12 25.68 12 25 C17.40728431 21.66729259 23.89865758 22.31223707 30 23 C34.05997989 24.62520028 36.93475952 26.93475952 40 30 C41.66089063 35.410466 42.28123714 40.33517696 42.1953125 46 C42.1924826 46.7211499 42.18965271 47.4422998 42.18673706 48.18530273 C42.17566696 50.45704747 42.15058895 52.72837727 42.125 55 C42.1149531 56.55337967 42.10583027 58.1067656 42.09765625 59.66015625 C42.07577111 63.44026062 42.04133514 67.22006032 42 71 C38.7 71 35.4 71 32 71 C31.98541748 69.94087402 31.97083496 68.88174805 31.95581055 67.79052734 C31.89762673 63.84292658 31.82039593 59.89588429 31.73754883 55.94873047 C31.70439364 54.24374488 31.67633263 52.53865202 31.65356445 50.83349609 C31.61984432 48.37551366 31.56752206 45.91850594 31.51171875 43.4609375 C31.50532883 42.70444916 31.4989389 41.94796082 31.49235535 41.16854858 C31.36211027 36.42903259 30.61495899 33.10079249 28 29 C24.6344583 26.75630553 23.86078219 26.7910804 20 27.1875 C19.13375 27.26355469 18.2675 27.33960938 17.375 27.41796875 C14.67534593 28.07956161 13.82662204 28.98310483 12 31 C11.34 31 10.68 31 10 31 C10 44.2 10 57.4 10 71 C6.7 71 3.4 71 0 71 C0 47.57 0 24.14 0 0 Z " fill="#644C57" transform="translate(1271,1419)"/>
<path d="M0 0 C0.70600342 0.00427002 1.41200684 0.00854004 2.1394043 0.01293945 C7.94989892 0.20279859 12.01759713 1.34721146 16.125 5.5 C20.53423023 11.33156256 20.125 16.04876413 20.125 23.5 C9.235 23.5 -1.655 23.5 -12.875 23.5 C-10.68902907 35.78907731 -10.68902907 35.78907731 -3.625 44.375 C2.49196535 46.87739492 8.11283198 45.50405601 14.125 43.5 C14.125 42.84 14.125 42.18 14.125 41.5 C15.625 39.875 15.625 39.875 17.125 38.5 C18.115 38.83 19.105 39.16 20.125 39.5 C18.61411671 44.03264988 15.09901173 46.21413553 11.125 48.5 C3.76418387 51.31049343 -2.81019402 51.45389021 -9.99609375 48.40234375 C-16.2088196 45.41868539 -20.37802199 41.98215491 -22.875 35.5 C-24.21136915 28.13261425 -25.16152606 19.47574899 -21.875 12.5 C-16.13401339 4.2892068 -10.26884687 -0.09356304 0 0 Z " fill="#6C5560" transform="translate(1391.875,1441.5)"/>
<path d="M0 0 C3.96593154 3.11483561 6.16479003 7.17905514 7.25 12.0625 C7.25 15.0325 7.25 18.0025 7.25 21.0625 C-3.31 21.0625 -13.87 21.0625 -24.75 21.0625 C-23.65543403 33.302207 -23.65543403 33.302207 -16.5 42.0625 C-12.44838631 43.53581407 -8.99634416 43.94744087 -4.75 43.0625 C-2.1762306 41.68155063 0.08047116 40.14404578 2.40234375 38.375 C4.25 37.0625 4.25 37.0625 6.25 37.0625 C5.29996458 40.48262751 4.38625109 41.94895743 1.625 44.25 C-5.69743822 48.18242053 -13.14763897 49.22095175 -21.25 47 C-27.80430726 44.59935935 -31.97642336 40.04528214 -35.1875 33.9375 C-38.07118225 26.62218486 -38.04390389 18.30989021 -35 11.0625 C-32.13186205 5.61502966 -29.21325543 1.45307204 -23.421875 -1.203125 C-16.26693134 -3.16968846 -6.66183982 -3.60640953 0 0 Z " fill="#6C5460" transform="translate(2455.75,1443.9375)"/>
<path d="M0 0 C0.68578125 -0.01998047 1.3715625 -0.03996094 2.078125 -0.06054688 C8.01216082 -0.05488463 11.50595522 1.96122751 15.64453125 6.0703125 C20.99699182 12.90857316 20 12.74434967 20 23.4375 C9.11 23.4375 -1.78 23.4375 -13 23.4375 C-10.1105896 37.46609592 -10.1105896 37.46609592 -1 45.4375 C4.05469925 46.38463299 8.01763964 45.79289771 12.375 43.0625 C13.59506589 42.20393511 14.80455457 41.33002713 16 40.4375 C16.99 39.7775 17.98 39.1175 19 38.4375 C19 42.4375 19 42.4375 16.5625 45 C10.46679179 49.64708109 3.521097 51.15379495 -4 50.4375 C-9.72615544 49.04114073 -13.79722417 46.53520644 -18 42.4375 C-18 41.7775 -18 41.1175 -18 40.4375 C-18.66 40.4375 -19.32 40.4375 -20 40.4375 C-23.74957323 31.48204607 -25.72687759 24.64987328 -22.375 15.3125 C-17.87405989 5.12199122 -11.45758859 -0.11845251 0 0 Z " fill="#6B545F" transform="translate(2086,1441.5625)"/>
<path d="M0 0 C2.97 0 5.94 0 9 0 C9 1.32 9 2.64 9 4 C10.299375 3.01 10.299375 3.01 11.625 2 C17.32567885 -1.22111528 23.68056715 -0.94862818 30 0 C34.30975225 1.78682566 37.87668202 3.86484218 40.09228516 8.07617188 C41.28809415 11.92797621 41.24787411 15.59240011 41.1953125 19.58203125 C41.1924826 20.39621017 41.18965271 21.2103891 41.18673706 22.04924011 C41.17558584 24.637146 41.15049083 27.22469958 41.125 29.8125 C41.11496365 31.57226061 41.10583894 33.33202667 41.09765625 35.09179688 C41.0756631 39.39466598 41.04116836 43.69727336 41 48 C37.7 48 34.4 48 31 48 C30.97494385 46.86981445 30.9498877 45.73962891 30.92407227 44.57519531 C30.82983044 40.37814183 30.72965074 36.18124737 30.62768555 31.984375 C30.58440014 30.16865766 30.54272056 28.35290129 30.50268555 26.53710938 C30.44482798 23.92566167 30.38117828 21.31440923 30.31640625 18.703125 C30.29969376 17.89256653 30.28298126 17.08200806 30.26576233 16.24688721 C30.13716155 11.04316117 30.13716155 11.04316117 29 6 C25.99043275 3.83015576 23.61366769 3.80740386 20 4.1875 C18.7315625 4.30158203 18.7315625 4.30158203 17.4375 4.41796875 C14.3746071 5.1493326 13.15918444 5.66134942 11 8 C10.35975089 11.07419074 10.39499043 14.13025459 10.390625 17.26171875 C10.37408875 18.16751175 10.35755249 19.07330475 10.34051514 20.00654602 C10.2919213 22.90026552 10.27063915 25.79345913 10.25 28.6875 C10.22184981 30.64911516 10.19192373 32.61070571 10.16015625 34.57226562 C10.08615935 39.38146713 10.03665439 44.19037474 10 49 C6.7 49 3.4 49 0 49 C0 32.83 0 16.66 0 0 Z " fill="#68515C" transform="translate(2162,1442)"/>
<path d="M0 0 C3.3 0 6.6 0 10 0 C10 0.99 10 1.98 10 3 C11.0828125 2.2575 11.0828125 2.2575 12.1875 1.5 C17.41500506 -1.08271034 23.35072448 -0.73806164 29 0 C34.26304588 2.01404748 37.93691757 5.28984349 41 10 C41.53902227 12.94239462 41.46708787 15.81785291 41.390625 18.80078125 C41.38496521 19.63715622 41.37930542 20.47353119 41.37347412 21.33525085 C41.35116268 23.99492711 41.30097788 26.65323405 41.25 29.3125 C41.22992815 31.12042319 41.21167858 32.92836759 41.1953125 34.73632812 C41.15131527 39.15807611 41.08232546 43.57880625 41 48 C37.7 48 34.4 48 31 48 C30.98541748 46.90534424 30.97083496 45.81068848 30.95581055 44.68286133 C30.89771261 40.61043095 30.82048073 36.53854685 30.73754883 32.46655273 C30.70435346 30.70622645 30.67630476 28.94579512 30.65356445 27.18530273 C30.6199188 24.65042475 30.5675994 22.11650477 30.51171875 19.58203125 C30.50532883 18.79850784 30.4989389 18.01498444 30.49235535 17.2077179 C30.33657407 11.38080072 29.08883108 8.08883108 25 4 C20.36894338 3.53689434 18.15609301 3.45491429 13.90869141 5.45751953 C10.83617517 8.1431989 10.57706303 8.37037409 10.22705078 12.12597656 C10.18620393 13.79706038 10.17751981 15.46913674 10.1953125 17.140625 C10.18160614 18.02280701 10.16789978 18.90498901 10.15377808 19.81390381 C10.11644225 22.62645295 10.12019515 25.43723799 10.125 28.25 C10.10687566 30.15888181 10.08607379 32.06774021 10.0625 33.9765625 C10.01061564 38.65133775 9.99557167 43.32495259 10 48 C6.7 48 3.4 48 0 48 C0 32.16 0 16.32 0 0 Z " fill="#654D58" transform="translate(1698,1442)"/>
<path d="M0 0 C1.51821796 0.07964092 3.03644784 0.15905502 4.5546875 0.23828125 C8.70516015 0.46427152 12.8525145 0.72481139 17 1 C17 2.32 17 3.64 17 5 C14.69 5.33 12.38 5.66 10 6 C10.495 7.0209375 10.495 7.0209375 11 8.0625 C12.76411096 13.24457594 12.5446035 17.32653974 10.25 22.25 C8.23521624 25.91775775 6.31772842 28.28296855 2.20703125 29.5546875 C-3.47166335 30.70047721 -9.30704132 30.527315 -14.8125 28.8125 C-18.06575476 27.65136786 -18.06575476 27.65136786 -21.3125 29.3125 C-22.199375 29.869375 -23.08625 30.42625 -24 31 C-24.66 31.33 -25.32 31.66 -26 32 C-25.6875 30.125 -25.6875 30.125 -25 28 C-22 26 -22 26 -19 26 C-19.30035156 25.43152344 -19.60070313 24.86304688 -19.91015625 24.27734375 C-22.46591583 19.08785227 -23.63751012 15.78586909 -22 10 C-20.41942688 5.52170948 -18.51489518 2.85374686 -14.18359375 0.68359375 C-9.53793775 -0.77077083 -4.8020212 -0.27967816 0 0 Z " fill="#69515C" transform="translate(1822,1442)"/>
<path d="M0 0 C1.89398688 2.57582216 1.90996426 3.99782166 1.5625 7.125 C0.2425 7.125 -1.0775 7.125 -2.4375 7.125 C-2.7675 5.145 -3.0975 3.165 -3.4375 1.125 C-9.2715674 -0.7800016 -14.18285116 -1.58253236 -20.3125 -0.25 C-22.70469622 1.00759415 -22.70469622 1.00759415 -23.5625 3.9375 C-23.7254522 7.2296042 -23.7254522 7.2296042 -21.5625 9.75 C-18.43793434 12.1246699 -15.63808932 13.47353588 -12.05078125 14.96875 C-8.96230059 16.33525265 -6.02015072 17.86917929 -3.0625 19.5 C-1.56589844 20.31597656 -1.56589844 20.31597656 -0.0390625 21.1484375 C3.83968587 24.09535443 5.30501637 27.35939796 6 32.125 C5.30120356 36.916747 3.10265547 39.9271013 -0.6875 42.875 C-8.96469146 46.63735976 -16.81948268 47.1952585 -25.41796875 44.03125 C-28.19203807 42.78640652 -29.74179895 41.66855158 -31.4375 39.125 C-32.1875 35.375 -32.1875 35.375 -32.4375 32.125 C-31.1175 32.125 -29.7975 32.125 -28.4375 32.125 C-28.1590625 33.5171875 -28.1590625 33.5171875 -27.875 34.9375 C-26.68752239 38.37885415 -26.68752239 38.37885415 -23.3125 40 C-17.16470316 42.16003673 -11.47130749 41.53852299 -5.4375 39.125 C-5.1075 36.815 -4.7775 34.505 -4.4375 32.125 C-8.9673027 28.84253427 -13.2815852 26.03649677 -18.5625 24.125 C-24.10988586 22.01992667 -28.46791337 19.3701914 -31.6015625 14.20703125 C-33.22222093 10.56407296 -33.70493326 7.99867365 -32.625 4.125 C-32.233125 3.135 -31.84125 2.145 -31.4375 1.125 C-30.7775 1.125 -30.1175 1.125 -29.4375 1.125 C-29.4375 0.465 -29.4375 -0.195 -29.4375 -0.875 C-19.55115582 -6.16304456 -9.2190827 -7.09160207 0 0 Z " fill="#69515C" transform="translate(683.4375,1445.875)"/>
<path d="M0 0 C3.3 0 6.6 0 10 0 C10 23.76 10 47.52 10 72 C6.7 72 3.4 72 0 72 C0 48.24 0 24.48 0 0 Z " fill="#69515D" transform="translate(583,1419)"/>
<path d="M0 0 C3.3 0 6.6 0 10 0 C10 4.29 10 8.58 10 13 C13.63 13 17.26 13 21 13 C21 13.99 21 14.98 21 16 C17.37 16 13.74 16 10 16 C10.495 36.295 10.495 36.295 11 57 C15.76881134 58.03453058 15.76881134 58.03453058 20 57 C20 56.34 20 55.68 20 55 C20.99 55 21.98 55 23 55 C21.34208827 58.55266799 20.09918059 60.49062363 16.4375 62.1875 C12.11271365 63.20972223 8.32027293 63.02040732 4 62 C1 60 1 60 0 57 C-0.08567246 55.63407817 -0.11773647 54.26435142 -0.11352539 52.89575195 C-0.11341209 51.6648156 -0.11341209 51.6648156 -0.11329651 50.40901184 C-0.10813522 49.52767075 -0.10297394 48.64632965 -0.09765625 47.73828125 C-0.0962413 46.83248825 -0.09482635 45.92669525 -0.09336853 44.99345398 C-0.08777001 42.09976909 -0.07521781 39.20616151 -0.0625 36.3125 C-0.05748481 34.35091258 -0.05292193 32.38932394 -0.04882812 30.42773438 C-0.03780107 25.61845979 -0.02053747 20.809243 0 16 C-2.31 16 -4.62 16 -7 16 C-7 15.01 -7 14.02 -7 13 C-4.69 13 -2.38 13 0 13 C0 8.71 0 4.42 0 0 Z " fill="#664E5A" transform="translate(2264,1429)"/>
<path d="M0 0 C3.3 0 6.6 0 10 0 C10 23.43 10 46.86 10 71 C6.7 71 3.4 71 0 71 C0 47.57 0 24.14 0 0 Z " fill="#644C58" transform="translate(1564,1419)"/>
<path d="M0 0 C2.97 0 5.94 0 9 0 C9 23.43 9 46.86 9 71 C6.03 71 3.06 71 0 71 C0 47.57 0 24.14 0 0 Z " fill="#614854" transform="translate(745,1419)"/>
<path d="M0 0 C3.86201445 2.49710055 6.3218292 4.51384341 8.1484375 8.80078125 C3.05562345 8.80078125 1.85321887 7.10286899 -1.8515625 3.80078125 C-5.07435177 2.18938661 -8.36647403 2.20429495 -11.8515625 2.80078125 C-14.76822917 4.88411458 -14.76822917 4.88411458 -16.8515625 7.80078125 C-17.38265625 8.48140625 -17.91375 9.16203125 -18.4609375 9.86328125 C-20.47176267 14.11086701 -20.32663428 17.97145835 -20.2890625 22.61328125 C-20.30904297 23.47759766 -20.32902344 24.34191406 -20.34960938 25.23242188 C-20.3443806 32.16055093 -18.74944177 37.60312136 -14.0390625 42.80078125 C-10.69198928 44.33087187 -8.5063097 44.28808088 -4.8515625 43.80078125 C0.51567744 41.24638664 0.51567744 41.24638664 4.1484375 36.80078125 C5.4684375 37.13078125 6.7884375 37.46078125 8.1484375 37.80078125 C4.25092711 43.05651496 0.45934786 46.73405037 -5.8515625 48.80078125 C-12.97905065 49.69171727 -18.98281421 47.49789532 -24.6015625 43.17578125 C-30.67080378 37.46763899 -32.09720326 31.49771274 -32.3515625 23.30078125 C-32.11160237 15.80202729 -31.13084458 10.28460608 -25.91015625 4.73828125 C-18.74128214 -1.81008257 -9.30630003 -3.91374535 0 0 Z " fill="#69515C" transform="translate(1134.8515625,1443.19921875)"/>
<path d="M0 0 C1.20269531 -0.02578125 2.40539063 -0.0515625 3.64453125 -0.078125 C8.89187653 0.40784744 12.0846682 2.00205875 15.5625 5.9375 C16.09875 6.700625 16.635 7.46375 17.1875 8.25 C16.5275 9.57 15.8675 10.89 15.1875 12.25 C14.94 11.63125 14.6925 11.0125 14.4375 10.375 C12.95077031 7.84755953 11.84140305 7.37589826 9.1875 6.25 C8.1975 5.59 7.2075 4.93 6.1875 4.25 C3.07256276 3.57954684 0.2998667 3.55423202 -2.8125 4.25 C-7.36308849 7.58133799 -9.37953935 11.89253449 -10.8125 17.25 C-11.72719143 26.4546843 -11.97585167 35.69178454 -5.8125 43.25 C-2.13169292 45.57897374 0.86206774 45.62942388 5.1875 45.25 C8.1749738 43.8604773 10.01850063 42.42396994 12.3125 40.0625 C14.1875 38.25 14.1875 38.25 17.1875 38.25 C15.71057692 42.92692308 15.71057692 42.92692308 13.0625 44.5625 C12.44375 44.789375 11.825 45.01625 11.1875 45.25 C11.1875 45.91 11.1875 46.57 11.1875 47.25 C4.24680002 50.17239999 -1.018854 51.52676878 -8.3125 48.75 C-14.02731884 46.00493317 -18.04206388 41.62396244 -20.97265625 36.0390625 C-23.19374833 28.66297066 -23.2025914 19.25250454 -20.6796875 11.98828125 C-15.79366751 3.43135096 -9.83462547 0.12568211 0 0 Z " fill="#674F5B" transform="translate(1990.8125,1441.75)"/>
<path d="M0 0 C3.3 0 6.6 0 10 0 C10.33 2.31 10.66 4.62 11 7 C11.763125 6.21625 12.52625 5.4325 13.3125 4.625 C17.94428744 0.10092854 17.94428744 0.10092854 21.04296875 -0.1953125 C21.75066406 -0.17210937 22.45835937 -0.14890625 23.1875 -0.125 C25.0746875 -0.063125 25.0746875 -0.063125 27 0 C27 1.98 27 3.96 27 6 C26.33613281 6.08636719 25.67226562 6.17273437 24.98828125 6.26171875 C19.14110314 7.19214563 15.7860503 8.1147738 12 13 C10.4725361 16.0549278 10.76008168 19.2763314 10.68359375 22.6328125 C10.66281265 23.38464813 10.64203156 24.13648376 10.62062073 24.91110229 C10.55517295 27.31564085 10.49626262 29.72028967 10.4375 32.125 C10.39431023 33.75391771 10.35069579 35.38282422 10.30664062 37.01171875 C10.19949649 41.00769915 10.09821567 45.00379059 10 49 C6.7 49 3.4 49 0 49 C0 32.83 0 16.66 0 0 Z " fill="#69525D" transform="translate(2343,1442)"/>
<path d="M0 0 C1.0415625 -0.01611328 2.083125 -0.03222656 3.15625 -0.04882812 C12.77411315 -0.05497765 12.77411315 -0.05497765 16.625 3.3125 C18.03500664 6.13251327 17.87048451 8.18257255 17.625 11.3125 C16.06416344 15.16868444 13.7639565 17.62782554 10.0546875 19.5859375 C3.90552391 21.42475491 -4.48262161 21.77453784 -10.2265625 18.87109375 C-14.97200267 15.42849261 -14.97200267 15.42849261 -16.1875 12.0625 C-16.43650533 8.41042186 -15.66181124 5.7225498 -14.375 2.3125 C-9.82643839 -0.71987441 -5.35019218 -0.01643179 0 0 Z " fill="#FAF9FA" transform="translate(1819.375,1488.6875)"/>
<path d="M0 0 C3.39908834 3.13328285 4.58509001 5.07745807 5.2734375 9.70703125 C5.35543483 12.50393381 5.39004019 15.27439131 5.37109375 18.0703125 C5.3696788 18.86229538 5.36826385 19.65427826 5.36680603 20.47026062 C5.36123207 22.98672344 5.34868443 25.50309556 5.3359375 28.01953125 C5.33091913 29.7311185 5.32635681 31.44270716 5.32226562 33.15429688 C5.31127118 37.33857633 5.29402457 41.52278844 5.2734375 45.70703125 C1.9734375 45.70703125 -1.3265625 45.70703125 -4.7265625 45.70703125 C-4.7265625 43.72703125 -4.7265625 41.74703125 -4.7265625 39.70703125 C-5.3865625 39.70703125 -6.0465625 39.70703125 -6.7265625 39.70703125 C-6.3965625 38.71703125 -6.0665625 37.72703125 -5.7265625 36.70703125 C-5.57941051 35.08136046 -5.47934383 33.45116268 -5.41015625 31.8203125 C-5.36826172 30.88251953 -5.32636719 29.94472656 -5.28320312 28.97851562 C-5.24388672 28.00205078 -5.20457031 27.02558594 -5.1640625 26.01953125 C-5.12087891 25.03146484 -5.07769531 24.04339844 -5.03320312 23.02539062 C-4.92714596 20.58607579 -4.82508536 18.14666012 -4.7265625 15.70703125 C-5.3865625 15.70703125 -6.0465625 15.70703125 -6.7265625 15.70703125 C-6.7265625 15.04703125 -6.7265625 14.38703125 -6.7265625 13.70703125 C-6.0665625 13.70703125 -5.4065625 13.70703125 -4.7265625 13.70703125 C-5.00868127 12.08034645 -5.30258625 10.45570229 -5.6015625 8.83203125 C-5.76398437 7.92710938 -5.92640625 7.0221875 -6.09375 6.08984375 C-6.55700953 3.54197137 -6.55700953 3.54197137 -8.7265625 1.70703125 C-15.02302149 0.27099674 -19.90322115 0.81258939 -25.7265625 3.70703125 C-26.24605469 4.238125 -26.76554688 4.76921875 -27.30078125 5.31640625 C-28.7265625 6.70703125 -28.7265625 6.70703125 -31.7265625 6.70703125 C-30.74088182 3.15858081 -29.83755715 1.79582697 -26.9140625 -0.54296875 C-19.43561341 -4.64878394 -7.09522089 -5.3133894 0 0 Z " fill="#654D58" transform="translate(845.7265625,1444.29296875)"/>
<path d="M0 0 C4.97225396 5.22724134 5.13930257 8.9686397 5.09765625 15.9453125 C5.0962413 16.8303244 5.09482635 17.7153363 5.09336853 18.62716675 C5.0877614 21.45981191 5.07520771 24.29237864 5.0625 27.125 C5.05748592 29.04296761 5.05292285 30.96093646 5.04882812 32.87890625 C5.03778966 37.58596782 5.02052025 42.2929706 5 47 C1.7 47 -1.6 47 -5 47 C-5.33 45.02 -5.66 43.04 -6 41 C-6.66 41 -7.32 41 -8 41 C-6.125 37.125 -6.125 37.125 -5 36 C-4.84344973 34.51361008 -4.74933057 33.02050873 -4.68359375 31.52734375 C-4.64169922 30.62822266 -4.59980469 29.72910156 -4.55664062 28.80273438 C-4.51732422 27.85720703 -4.47800781 26.91167969 -4.4375 25.9375 C-4.39431641 24.98810547 -4.35113281 24.03871094 -4.30664062 23.06054688 C-4.20020724 20.70718647 -4.09818992 18.35371646 -4 16 C-4.99 15.67 -5.98 15.34 -7 15 C-6.67 14.67 -6.34 14.34 -6 14 C-5.8754514 12.35769636 -5.82431476 10.70947724 -5.8125 9.0625 C-5.79123047 7.71865234 -5.79123047 7.71865234 -5.76953125 6.34765625 C-5.76805231 3.80885466 -5.76805231 3.80885466 -8 2 C-13.61183785 0.58275378 -18.61629588 0.78318066 -24 3 C-25.37086915 4.29470975 -26.71340837 5.62150897 -28 7 C-28.99 7 -29.98 7 -31 7 C-30.00261116 3.40940017 -29.11279244 2.08827235 -26.125 -0.25 C-17.99437277 -4.80315125 -8.16166906 -4.15242812 0 0 Z " fill="#67505B" transform="translate(1503,1444)"/>
<path d="M0 0 C3.3 0 6.6 0 10 0 C10 16.17 10 32.34 10 49 C6.7 49 3.4 49 0 49 C0 32.83 0 16.66 0 0 Z " fill="#6B545F" transform="translate(1036,1442)"/>
<path d="M0 0 C11.8210392 -0.68860423 11.8210392 -0.68860423 15.625 1.8125 C19.08128202 4.99591765 20.38200194 7.4245973 21 12 C21.08180692 14.72425831 21.11665566 17.42131306 21.09765625 20.14453125 C21.0962413 20.91431808 21.09482635 21.68410492 21.09336853 22.47721863 C21.08779606 24.92235288 21.07524871 27.36739368 21.0625 29.8125 C21.05748144 31.47591013 21.05291915 33.1393217 21.04882812 34.80273438 C21.03783566 38.86852528 21.0205901 42.93424683 21 47 C17.7 47 14.4 47 11 47 C10.98541748 45.94087402 10.97083496 44.88174805 10.95581055 43.79052734 C10.89762673 39.84292658 10.82039593 35.89588429 10.73754883 31.94873047 C10.70439364 30.24374488 10.67633263 28.53865202 10.65356445 26.83349609 C10.61984432 24.37551366 10.56752206 21.91850594 10.51171875 19.4609375 C10.50532883 18.70444916 10.4989389 17.94796082 10.49235535 17.16854858 C10.36203368 12.42624558 9.5856525 9.12020756 7 5 C4.94906855 3.59533047 4.94906855 3.59533047 3 3 C3 2.34 3 1.68 3 1 C2.01 0.67 1.02 0.34 0 0 Z " fill="#644B57" transform="translate(958,1443)"/>
<path d="M0 0 C2.97 0 5.94 0 9 0 C9 15.84 9 31.68 9 48 C6.03 48 3.06 48 0 48 C0 32.16 0 16.32 0 0 Z " fill="#634A56" transform="translate(1631,1442)"/>
<path d="M0 0 C0.17499733 3.2284763 0.28106618 6.45572926 0.375 9.6875 C0.45041016 11.05551758 0.45041016 11.05551758 0.52734375 12.45117188 C0.67245539 19.10212211 0.67245539 19.10212211 -1.29199219 21.72509766 C-4.27587185 24.24552367 -6.95145096 25.88349455 -10.8125 26.3125 C-14.91921721 25.90988067 -16.31730366 25.14258715 -19 22 C-20.37493742 17.55465017 -20.3817909 14.06499566 -18.8125 9.6875 C-14.23938555 2.90667512 -8.29092246 0 0 0 Z " fill="#FAF9F9" transform="translate(1498,1461)"/>
<path d="M0 0 C0.23315639 3.39466737 0.37464625 6.78727962 0.5 10.1875 C0.60054687 11.62706055 0.60054687 11.62706055 0.703125 13.09570312 C0.78166808 15.93307191 0.74419388 18.25740348 0 21 C-3.38315455 24.55378322 -6.98508887 25.83084814 -11.75 26.625 C-15 26 -15 26 -17.4375 24.1875 C-19.74419661 19.48183891 -19.78686423 15.14547494 -19 10 C-17.125 6.8125 -17.125 6.8125 -15 5 C-14.34 5 -13.68 5 -13 5 C-13 4.34 -13 3.68 -13 3 C-11.02119196 2.49858258 -9.0419435 1.99890291 -7.0625 1.5 C-5.96035156 1.2215625 -4.85820313 0.943125 -3.72265625 0.65625 C-1 0 -1 0 0 0 Z " fill="#FAFAFA" transform="translate(840,1461)"/>
<path d="M0 0 C4.13422253 0.66442862 5.0706425 1.20967182 7.5 4.5625 C7.87305672 7.54695372 8.01564017 10.09317365 7.9375 13.0625 C7.94458984 13.82175781 7.95167969 14.58101562 7.95898438 15.36328125 C7.9220863 18.60463531 7.7025481 21.1497121 6.265625 24.078125 C3.97930263 26.00025442 2.76052422 25.98339995 -0.1875 25.8125 C-0.99574219 25.77640625 -1.80398438 25.7403125 -2.63671875 25.703125 C-3.55904297 25.63351562 -3.55904297 25.63351562 -4.5 25.5625 C-7.10072384 21.04400102 -7.93183763 17.70371765 -7.9375 12.5 C-7.95683594 11.31277344 -7.97617188 10.12554688 -7.99609375 8.90234375 C-7.21023576 3.61172501 -5.3541546 0.86048913 0 0 Z " fill="#F7F6F7" transform="translate(1816.5,1443.4375)"/>
<path d="M0 0 C1 3 1 3 0.1105957 5.30224609 C-0.59963745 6.64923584 -0.59963745 6.64923584 -1.32421875 8.0234375 C-1.85233154 9.03414307 -2.38044434 10.04484863 -2.92456055 11.08618164 C-3.50633057 12.1714917 -4.08810059 13.25680176 -4.6875 14.375 C-5.27893799 15.49318115 -5.87037598 16.6113623 -6.47973633 17.76342773 C-17.57418666 38.60893485 -29.60776582 58.77751469 -42.87011719 78.31201172 C-43.94088738 79.9116887 -44.97551233 81.53538808 -46.0078125 83.16015625 C-46.60335938 84.07667969 -47.19890625 84.99320313 -47.8125 85.9375 C-48.31394531 86.73027344 -48.81539062 87.52304688 -49.33203125 88.33984375 C-51 90 -51 90 -56 90 C-56 74.82 -56 59.64 -56 44 C-55.67 44 -55.34 44 -55 44 C-54.67 58.52 -54.34 73.04 -54 88 C-48.48351028 80.41482663 -43.12791313 72.8383815 -38 65 C-37.58878906 64.37351562 -37.17757813 63.74703125 -36.75390625 63.1015625 C-23.24266108 42.71267508 -23.24266108 42.71267508 -11.61328125 21.234375 C-8.0129846 14.01634685 -3.95536201 7.02810318 0 0 Z " fill="#988071" transform="translate(1789,1031)"/>
<path d="M0 0 C2.66570809 2.59555787 3.825604 4.476812 5 8 C5 10.31 5 12.62 5 15 C-1.93 15 -8.86 15 -16 15 C-14.87237546 7.10662824 -14.87237546 7.10662824 -12.0625 4.125 C-11.53785156 3.55007813 -11.01320313 2.97515625 -10.47265625 2.3828125 C-7.25875546 -0.63501476 -4.26314205 -0.44101469 0 0 Z " fill="#F9F8F8" transform="translate(2446,1445)"/>
<path d="M0 0 C2.5078125 0.47265625 2.5078125 0.47265625 4.6953125 2.41015625 C5.5078125 5.47265625 5.5078125 5.47265625 5.5078125 14.47265625 C-1.0921875 14.47265625 -7.6921875 14.47265625 -14.4921875 14.47265625 C-11.14722924 -0.57965592 -11.14722924 -0.57965592 0 0 Z " fill="#FBFAFB" transform="translate(2088.4921875,1445.52734375)"/>
<path d="M0 0 C2.69205207 0.58860122 3.62063664 1.36298355 5.3046875 3.50390625 C6.77415708 7.24437427 6.3046875 10.25499086 6.3046875 14.50390625 C-0.2953125 14.50390625 -6.8953125 14.50390625 -13.6953125 14.50390625 C-12.40219589 4.15897339 -10.51069321 -0.23960547 0 0 Z " fill="#FBFAFA" transform="translate(1393.6953125,1445.49609375)"/>
<path d="M0 0 C2.3125 1.375 2.3125 1.375 4.3125 4.375 C3.96608161 7.83918389 3.27963413 9.42429881 1.3125 12.375 C-1.7871593 12.77070119 -3.80948451 12.87254211 -6.5625 11.3125 C-8.37037817 8.19893204 -8.18848542 5.88189795 -7.6875 2.375 C-4.93946143 -0.2160078 -3.71360934 -0.86363008 0 0 Z " fill="#6A535E" transform="translate(1637.6875,1421.625)"/>
<path d="M0 0 C0.33 0 0.66 0 1 0 C1.33 14.52 1.66 29.04 2 44 C8.22813468 35.5198848 8.22813468 35.5198848 14 26.8125 C14.5775 25.89082031 15.155 24.96914062 15.75 24.01953125 C16.1625 23.35308594 16.575 22.68664063 17 22 C17.66 23.32 18.32 24.64 19 26 C17.3389514 28.37292658 15.67628043 30.74440141 14.00390625 33.109375 C12.68464916 35.01239692 11.39944567 36.93955645 10.15234375 38.890625 C9.27255859 40.24414062 9.27255859 40.24414062 8.375 41.625 C7.84648438 42.46289062 7.31796875 43.30078125 6.7734375 44.1640625 C6.18820312 44.76992187 5.60296875 45.37578125 5 46 C3.35 46 1.7 46 0 46 C0 30.82 0 15.64 0 0 Z " fill="#9E8879" transform="translate(1733,1075)"/>
<path d="M0 0 C2 2 2 2 2.4375 4.375 C2 7 2 7 -0.1875 9.375 C-3 11 -3 11 -5.6875 10.9375 C-8 10 -8 10 -10 7 C-9.875 3.4375 -9.875 3.4375 -9 0 C-5.79489724 -2.86169889 -3.57109425 -1.87952329 0 0 Z " fill="#68505B" transform="translate(1045,1423)"/>
<path d="M0 0 C0.33 0 0.66 0 1 0 C1.33 2.31 1.66 4.62 2 7 C2.763125 6.21625 3.52625 5.4325 4.3125 4.625 C8.94428744 0.10092854 8.94428744 0.10092854 12.04296875 -0.1953125 C12.75066406 -0.17210937 13.45835937 -0.14890625 14.1875 -0.125 C16.0746875 -0.063125 16.0746875 -0.063125 18 0 C18 1.98 18 3.96 18 6 C17.34773438 6.08636719 16.69546875 6.17273437 16.0234375 6.26171875 C9.85382562 7.25358851 6.42933725 8.57066275 2 13 C2 12.34 2 11.68 2 11 C1.34 11 0.68 11 0 11 C0 7.37 0 3.74 0 0 Z " fill="#725C67" transform="translate(2352,1442)"/>
<path d="M0 0 C0.33 0.66 0.66 1.32 1 2 C-2.62509162 8.93495788 -7.83378437 10.61126146 -15 13 C-17.39490986 13.06970052 -19.79167691 13.08448003 -22.1875 13.0625 C-23.45980469 13.05347656 -24.73210937 13.04445313 -26.04296875 13.03515625 C-27.50669922 13.01775391 -27.50669922 13.01775391 -29 13 C-29 12.67 -29 12.34 -29 12 C-28.32195312 11.97421875 -27.64390625 11.9484375 -26.9453125 11.921875 C-19.0523658 11.4408644 -11.67178919 10.12102081 -5.5 4.875 C-5.005 4.25625 -4.51 3.6375 -4 3 C-2 1 -2 1 0 0 Z " fill="#806C75" transform="translate(1839,1499)"/>
<path d="M0 0 C1 3 1 3 -0.1875 5.53125 C-0.785625 6.5109375 -1.38375 7.490625 -2 8.5 C-2.64324219 9.55832031 -3.28648438 10.61664062 -3.94921875 11.70703125 C-4.62597656 12.79371094 -5.30273438 13.88039063 -6 15 C-6.64582031 16.05574219 -7.29164062 17.11148437 -7.95703125 18.19921875 C-12.71090047 25.85545024 -12.71090047 25.85545024 -15 27 C-14.49045746 21.87460153 -11.92180014 18.27543455 -9.1875 14.0625 C-8.74857422 13.37220703 -8.30964844 12.68191406 -7.85742188 11.97070312 C-5.28983427 7.94573296 -2.66104866 3.96365989 0 0 Z " fill="#866A58" transform="translate(1766,1073)"/>
<path d="M0 0 C0 0.33 0 0.66 0 1 C-2.64 1.33 -5.28 1.66 -8 2 C-8 2.66 -8 3.32 -8 4 C-8.92232422 4.27263672 -8.92232422 4.27263672 -9.86328125 4.55078125 C-10.67152344 4.80214844 -11.47976563 5.05351563 -12.3125 5.3125 C-13.51326172 5.67794922 -13.51326172 5.67794922 -14.73828125 6.05078125 C-17.05985928 6.85737234 -17.05985928 6.85737234 -18.60546875 8.60546875 C-19.06566406 9.06566406 -19.52585937 9.52585937 -20 10 C-20.99 10 -21.98 10 -23 10 C-22.01431932 6.45154956 -21.11099465 5.08879572 -18.1875 2.75 C-12.24269951 -0.51381204 -6.63324863 -0.11592085 0 0 Z " fill="#7F6B75" transform="translate(837,1441)"/>
<path d="M0 0 C0 6.93 0 13.86 0 21 C-0.33 21 -0.66 21 -1 21 C-1.33 14.73 -1.66 8.46 -2 2 C-5.3 2.66 -8.6 3.32 -12 4 C-12 3.34 -12 2.68 -12 2 C-13.32 1.67 -14.64 1.34 -16 1 C-14.46155045 0.63210989 -12.91899612 0.28136934 -11.375 -0.0625 C-10.51648438 -0.25972656 -9.65796875 -0.45695312 -8.7734375 -0.66015625 C-6 -1 -6 -1 0 0 Z " fill="#918088" transform="translate(841,1460)"/>
<path d="M0 0 C0.98484375 0.00902344 1.9696875 0.01804687 2.984375 0.02734375 C4.10585937 0.04474609 4.10585937 0.04474609 5.25 0.0625 C5.25 0.3925 5.25 0.7225 5.25 1.0625 C1.95 1.3925 -1.35 1.7225 -4.75 2.0625 C-4.42 2.7225 -4.09 3.3825 -3.75 4.0625 C-5.35875 4.43375 -5.35875 4.43375 -7 4.8125 C-10.82008662 6.08586221 -12.08689535 7.20917359 -14.75 10.0625 C-15.74 10.0625 -16.73 10.0625 -17.75 10.0625 C-16.75261116 6.47190017 -15.86279244 5.15077235 -12.875 2.8125 C-8.39348109 0.30284941 -5.11292652 -0.06086817 0 0 Z " fill="#7A656F" transform="translate(1489.75,1440.9375)"/>
<path d="M0 0 C0.99 0.495 0.99 0.495 2 1 C1.01 1.495 1.01 1.495 0 2 C0 1.34 0 0.68 0 0 Z M-2 2 C-1.34 2.33 -0.68 2.66 0 3 C-3.51740479 6.56673193 -7.04124462 10.12692951 -10.57128906 13.68115234 C-11.77198895 14.89192849 -12.9708902 16.10449101 -14.16796875 17.31884766 C-15.88595748 19.06101338 -17.61024875 20.79671544 -19.3359375 22.53125 C-19.87245941 23.07809448 -20.40898132 23.62493896 -20.96176147 24.18835449 C-22.27042287 25.49741098 -23.63096626 26.75421906 -25 28 C-25.66 28 -26.32 28 -27 28 C-25.67504335 24.98168412 -24.37434571 23.24036974 -21.8125 21.1875 C-14.77859338 15.26283654 -8.45635227 8.53831768 -2 2 Z " fill="#7BA659" transform="translate(1672,1214)"/>
<path d="M0 0 C0 6.6 0 13.2 0 20 C-0.33 20 -0.66 20 -1 20 C-1 13.73 -1 7.46 -1 1 C-3.64 1.99 -6.28 2.98 -9 4 C-10.32 4 -11.64 4 -13 4 C-13 3.34 -13 2.68 -13 2 C-13.99 1.67 -14.98 1.34 -16 1 C-14.46155045 0.63210989 -12.91899612 0.28136934 -11.375 -0.0625 C-10.51648437 -0.25972656 -9.65796875 -0.45695312 -8.7734375 -0.66015625 C-6 -1 -6 -1 0 0 Z " fill="#84717A" transform="translate(1499,1460)"/>
<path d="M0 0 C0.66 0 1.32 0 2 0 C4.91691481 8.19080097 6.62867565 15.28585694 6 24 C5.01 24.33 4.02 24.66 3 25 C2.95101563 23.865625 2.90203125 22.73125 2.8515625 21.5625 C2.7764586 20.04164602 2.70091416 18.52081375 2.625 17 C2.5940625 16.25621094 2.563125 15.51242187 2.53125 14.74609375 C2.26246207 9.59432517 1.38936116 4.97007244 0 0 Z " fill="#E2ECDB" transform="translate(1781,969)"/>
<path d="M0 0 C0.33 0 0.66 0 1 0 C1.8089913 7.1191234 -1.06720223 12.62116486 -4 19 C-4.99 19 -5.98 19 -7 19 C-7.66 19.33 -8.32 19.66 -9 20 C-7.85390548 16.94374794 -6.53860282 14.03196111 -5.0625 11.125 C-3.20993875 7.47538495 -1.57399345 3.77758429 0 0 Z " fill="#E8EFE2" transform="translate(899,1199)"/>
<path d="M0 0 C3.90853901 1.30284634 6.46045282 2.7079944 9 6 C9.25 8.75 9.25 8.75 9 11 C7.68 11 6.36 11 5 11 C4.67 9.02 4.34 7.04 4 5 C1.69 4.34 -0.62 3.68 -3 3 C-2.01 2.67 -1.02 2.34 0 2 C0 1.34 0 0.68 0 0 Z " fill="#75606A" transform="translate(676,1442)"/>
<path d="M0 0 C4.95696581 1.23924145 7.11658466 2.78577758 10 7 C9.34 8.32 8.68 9.64 8 11 C7.7525 10.38125 7.505 9.7625 7.25 9.125 C5.76045906 6.5927804 4.62418952 6.19281342 2 5 C0.25 3.375 0.25 3.375 -1 2 C-0.67 1.34 -0.34 0.68 0 0 Z " fill="#725C67" transform="translate(1998,1443)"/>
<path d="M0 0 C1.32 0.33 2.64 0.66 4 1 C-1.96583144 8.66742597 -1.96583144 8.66742597 -7 10 C-7 9.34 -7 8.68 -7 8 C-7.66 7.67 -8.32 7.34 -9 7 C-8.43410156 6.66226562 -7.86820313 6.32453125 -7.28515625 5.9765625 C-6.55167969 5.53054688 -5.81820313 5.08453125 -5.0625 4.625 C-4.33160156 4.18414063 -3.60070313 3.74328125 -2.84765625 3.2890625 C-0.86227728 2.1226016 -0.86227728 2.1226016 0 0 Z " fill="#755F6A" transform="translate(1139,1480)"/>
<path d="M0 0 C-1.47692308 4.67692308 -1.47692308 4.67692308 -4.125 6.3125 C-4.74375 6.539375 -5.3625 6.76625 -6 7 C-6 7.66 -6 8.32 -6 9 C-7.32 9.33 -8.64 9.66 -10 10 C-10 9.34 -10 8.68 -10 8 C-10.66 7.67 -11.32 7.34 -12 7 C-10.88625 6.38125 -10.88625 6.38125 -9.75 5.75 C-6.94971894 4.11678763 -6.94971894 4.11678763 -4.875 1.8125 C-3 0 -3 0 0 0 Z " fill="#7C6771" transform="translate(2008,1480)"/>
<path d="M0 0 C0.99 0.33 1.98 0.66 3 1 C1.51697598 5.44907205 -2.08285501 7.74579392 -6 10 C-6.66 10 -7.32 10 -8 10 C-8 9.34 -8 8.68 -8 8 C-8.66 7.67 -9.32 7.34 -10 7 C-7.69 6.34 -5.38 5.68 -3 5 C-3 4.34 -3 3.68 -3 3 C-1.5 1.375 -1.5 1.375 0 0 Z " fill="#7E6A74" transform="translate(1409,1480)"/>
<path d="M0 0 C1.39456452 0.00667256 2.78911118 0.01863093 4.18359375 0.03515625 C4.89451172 0.03966797 5.60542969 0.04417969 6.33789062 0.04882812 C8.09899388 0.06064761 9.86005411 0.07858362 11.62109375 0.09765625 C11.62109375 0.42765625 11.62109375 0.75765625 11.62109375 1.09765625 C10.52796875 1.22140625 9.43484375 1.34515625 8.30859375 1.47265625 C4.54727573 1.85230426 4.54727573 1.85230426 1.62109375 4.09765625 C-0.69999294 4.80578439 -3.03267772 5.47789777 -5.37890625 6.09765625 C-4.3067966 0.12447389 -4.3067966 0.12447389 0 0 Z " fill="#7B6670" transform="translate(956.37890625,1441.90234375)"/>
<path d="M0 0 C1.76923828 0.01353516 1.76923828 0.01353516 3.57421875 0.02734375 C4.47785156 0.03894531 5.38148437 0.05054688 6.3125 0.0625 C6.3125 0.3925 6.3125 0.7225 6.3125 1.0625 C4.3325 1.3925 2.3525 1.7225 0.3125 2.0625 C0.3125 2.3925 0.3125 2.7225 0.3125 3.0625 C-0.925 3.35125 -2.1625 3.64 -3.4375 3.9375 C-6.41198742 4.67584794 -9.021356 5.50724933 -11.6875 7.0625 C-10.875 4.125 -10.875 4.125 -9.6875 1.0625 C-6.26517028 -0.07827657 -3.60076783 -0.03565117 0 0 Z " fill="#725C67" transform="translate(1720.6875,1441.9375)"/>
<path d="M0 0 C0.33 0.66 0.66 1.32 1 2 C1.66 2 2.32 2 3 2 C3 3.98 3 5.96 3 8 C2.34 6.68 1.68 5.36 1 4 C-2.96 5.98 -2.96 5.98 -7 8 C-7.33 7.34 -7.66 6.68 -8 6 C-8.99 5.67 -9.98 5.34 -11 5 C-10.37351562 4.80664062 -9.74703125 4.61328125 -9.1015625 4.4140625 C-8.28429687 4.15367188 -7.46703125 3.89328125 -6.625 3.625 C-5.81289063 3.36976562 -5.00078125 3.11453125 -4.1640625 2.8515625 C-1.83540815 2.10145717 -1.83540815 2.10145717 0 0 Z " fill="#75606A" transform="translate(838,1482)"/>
<path d="M0 0 C0.66 0.33 1.32 0.66 2 1 C0.50733258 4.79951706 -1.55281135 6.8354862 -5 9 C-7.8125 8.75 -7.8125 8.75 -10 8 C-9.195625 7.4121875 -9.195625 7.4121875 -8.375 6.8125 C-5.50791468 4.6244612 -2.76035432 2.32120704 0 0 Z " fill="#725C67" transform="translate(2104,1480)"/>
<path d="M0 0 C-1.0210886 3.67591895 -1.91435217 4.9339798 -5 7.3125 C-8 9 -8 9 -10 9 C-10.33 8.01 -10.66 7.02 -11 6 C-9.54550599 4.9944239 -8.08627557 3.99569565 -6.625 3 C-5.40683594 2.1646875 -5.40683594 2.1646875 -4.1640625 1.3125 C-2 0 -2 0 0 0 Z " fill="#725B66" transform="translate(2462,1481)"/>
<path d="M0 0 C1.28132813 0.00902344 2.56265625 0.01804687 3.8828125 0.02734375 C4.87023438 0.03894531 5.85765625 0.05054688 6.875 0.0625 C6.875 0.3925 6.875 0.7225 6.875 1.0625 C5.781875 1.18625 4.68875 1.31 3.5625 1.4375 C-0.19881802 1.81714801 -0.19881802 1.81714801 -3.125 4.0625 C-5.1146995 4.45263716 -7.11519869 4.79452649 -9.125 5.0625 C-9.125 3.7425 -9.125 2.4225 -9.125 1.0625 C-6.12186252 -0.43906874 -3.33432478 -0.03031204 0 0 Z " fill="#79646E" transform="translate(1294.125,1441.9375)"/>
<path d="M0 0 C1 3 1 3 0.07421875 5.04296875 C-0.61220703 6.10451172 -0.61220703 6.10451172 -1.3125 7.1875 C-1.76238281 7.90292969 -2.21226563 8.61835937 -2.67578125 9.35546875 C-3.11277344 9.89816406 -3.54976562 10.44085937 -4 11 C-4.66 11 -5.32 11 -6 11 C-4.54955729 6.89041233 -2.48889248 3.56741255 0 0 Z " fill="#8B705E" transform="translate(1766,1073)"/>
<path d="M0 0 C0.66 0.33 1.32 0.66 2 1 C-0.46153846 5.8 -0.46153846 5.8 -3.1875 6.8125 C-3.785625 6.874375 -4.38375 6.93625 -5 7 C-3.75023244 3.34683329 -3.32901247 2.21934164 0 0 Z " fill="#745E69" transform="translate(819,1444)"/>
<path d="M0 0 C0.66 0.66 1.32 1.32 2 2 C-1.08559304 4.26881841 -2.42209376 5.05451946 -6.3125 4.6875 C-7.199375 4.460625 -8.08625 4.23375 -9 4 C-9 3.67 -9 3.34 -9 3 C-6.03 2.01 -3.06 1.02 0 0 Z " fill="#735D68" transform="translate(1494,1484)"/>
<path d="M0 0 C0.33 0.66 0.66 1.32 1 2 C-0.8125 5 -0.8125 5 -3 8 C-3.99 8 -4.98 8 -6 8 C-5.1875 6.0625 -5.1875 6.0625 -4 4 C-3.01 3.67 -2.02 3.34 -1 3 C-0.67 2.01 -0.34 1.02 0 0 Z " fill="#7F614E" transform="translate(1741,1113)"/>
<path d="M0 0 C0.99 0 1.98 0 3 0 C1.95125002 2.62187494 1.35068687 3.79371361 -1.125 5.25 C-1.74375 5.4975 -2.3625 5.745 -3 6 C-3.33 5.01 -3.66 4.02 -4 3 C-2.68 2.67 -1.36 2.34 0 2 C0 1.34 0 0.68 0 0 Z " fill="#816D76" transform="translate(2284,1484)"/>
<path d="M0 0 C0.625 1.875 0.625 1.875 1 4 C0.34 4.66 -0.32 5.32 -1 6 C-1.66 6 -2.32 6 -3 6 C-3.99 6.495 -3.99 6.495 -5 7 C-3.75023244 3.34683329 -3.32901247 2.21934164 0 0 Z " fill="#E9F0E3" transform="translate(895,1212)"/>
<path d="M0 0 C0.66 0.33 1.32 0.66 2 1 C-1.5 5.875 -1.5 5.875 -6 7 C-4.02 4.69 -2.04 2.38 0 0 Z " fill="#68505B" transform="translate(2006,1481)"/>
<path d="M0 0 C0.33 0.66 0.66 1.32 1 2 C1.66 2 2.32 2 3 2 C3 3.98 3 5.96 3 8 C2.34 6.68 1.68 5.36 1 4 C0.01 4.33 -0.98 4.66 -2 5 C-1.125 1.125 -1.125 1.125 0 0 Z " fill="#95848C" transform="translate(838,1482)"/>
<path d="M0 0 C0.33 0 0.66 0 1 0 C1.125 3.375 1.125 3.375 1 7 C0.34 7.66 -0.32 8.32 -1 9 C-1.80967438 6.08517222 -2.21845993 4.53886783 -1.0625 1.6875 C-0.711875 1.130625 -0.36125 0.57375 0 0 Z " fill="#D2E1C7" transform="translate(899,1199)"/>
</svg>
