<svg width="150" height="188" viewBox="0 0 150 188" fill="none" xmlns="http://www.w3.org/2000/svg">
<g opacity="0.4">
<path fill-rule="evenodd" clip-rule="evenodd" d="M52.5 15.4924C53.1575 15.4924 53.8025 15.2257 54.2675 14.7585C54.7337 14.2927 55 13.6478 55 12.9878C55 12.3278 54.7337 11.6829 54.2675 11.2171C53.8025 10.75 53.1575 10.4832 52.5 10.4832C51.8412 10.4832 51.1975 10.75 50.7312 11.2171C50.2662 11.6829 50 12.3278 50 12.9878C50 13.6478 50.2662 14.2927 50.7312 14.7585C51.1975 15.2257 51.8412 15.4924 52.5 15.4924Z" fill="white"/>
<path fill-rule="evenodd" clip-rule="evenodd" d="M79.9938 15.4924H80.0062C81.384 15.4924 82.5 14.3703 82.5 12.9878C82.5 11.6053 81.384 10.4832 80.0062 10.4832H79.9938C78.6172 10.4832 77.5 11.6053 77.5 12.9878C77.5 14.3703 78.6172 15.4924 79.9938 15.4924Z" fill="white"/>
<path fill-rule="evenodd" clip-rule="evenodd" d="M65.8271 15.4924H65.8396C67.2161 15.4924 68.3333 14.3703 68.3333 12.9878C68.3333 11.6053 67.2161 10.4832 65.8396 10.4832H65.8271C64.4505 10.4832 63.3333 11.6053 63.3333 12.9878C63.3333 14.3703 64.4505 15.4924 65.8271 15.4924Z" fill="white"/>
<path fill-rule="evenodd" clip-rule="evenodd" d="M93.3333 15.4924C93.9908 15.4924 94.6358 15.2257 95.1008 14.7585C95.5671 14.2927 95.8333 13.6478 95.8333 12.9878C95.8333 12.3278 95.5671 11.6829 95.1008 11.2171C94.6358 10.75 93.9908 10.4832 93.3333 10.4832C92.6746 10.4832 92.0308 10.75 91.5646 11.2171C91.0996 11.6829 90.8333 12.3278 90.8333 12.9878C90.8333 13.6478 91.0996 14.2927 91.5646 14.7585C92.0308 15.2257 92.6746 15.4924 93.3333 15.4924Z" fill="white"/>
<path fill-rule="evenodd" clip-rule="evenodd" d="M106.667 15.4924C107.325 15.4924 107.969 15.2257 108.435 14.7585C108.9 14.2927 109.167 13.6478 109.167 12.9878C109.167 12.3278 108.9 11.6829 108.435 11.2171C107.969 10.75 107.325 10.4832 106.667 10.4832C106.009 10.4832 105.364 10.75 104.899 11.2171C104.433 11.6829 104.167 12.3278 104.167 12.9878C104.167 13.6478 104.433 14.2927 104.899 14.7585C105.364 15.2257 106.009 15.4924 106.667 15.4924Z" fill="white"/>
<path fill-rule="evenodd" clip-rule="evenodd" d="M134.16 15.4924H134.173C135.551 15.4924 136.667 14.3703 136.667 12.9878C136.667 11.6053 135.551 10.4832 134.173 10.4832H134.16C132.784 10.4832 131.667 11.6053 131.667 12.9878C131.667 14.3703 132.784 15.4924 134.16 15.4924Z" fill="white"/>
<path fill-rule="evenodd" clip-rule="evenodd" d="M119.994 15.4924H120.006C121.383 15.4924 122.5 14.3703 122.5 12.9878C122.5 11.6053 121.383 10.4832 120.006 10.4832H119.994C118.617 10.4832 117.5 11.6053 117.5 12.9878C117.5 14.3703 118.617 15.4924 119.994 15.4924Z" fill="white"/>
<mask id="mask0_41_6348" style="mask-type:luminance" maskUnits="userSpaceOnUse" x="144" y="10" width="6" height="6">
<path fill-rule="evenodd" clip-rule="evenodd" d="M144.419 10.3061H149.752V15.6492H144.419V10.3061Z" fill="white"/>
</mask>
<g mask="url(#mask0_41_6348)">
<path fill-rule="evenodd" clip-rule="evenodd" d="M147.086 15.6492C147.787 15.6492 148.475 15.3647 148.971 14.8664C149.468 14.3695 149.752 13.6816 149.752 12.9777C149.752 12.2737 149.468 11.5858 148.971 11.0889C148.475 10.5906 147.787 10.3061 147.086 10.3061C146.383 10.3061 145.696 10.5906 145.199 11.0889C144.703 11.5858 144.419 12.2737 144.419 12.9777C144.419 13.6816 144.703 14.3695 145.199 14.8664C145.696 15.3647 146.383 15.6492 147.086 15.6492Z" fill="white"/>
</g>
<path fill-rule="evenodd" clip-rule="evenodd" d="M52.5 5.47402C53.1575 5.47402 53.8025 5.20728 54.2675 4.74017C54.7337 4.27432 55 3.62814 55 2.96943C55 2.30947 54.7337 1.66454 54.2675 1.19744C53.8025 0.731582 53.1575 0.464844 52.5 0.464844C51.8412 0.464844 51.1975 0.731582 50.7312 1.19744C50.2662 1.66454 50 2.30947 50 2.96943C50 3.62814 50.2662 4.27432 50.7312 4.74017C51.1975 5.20728 51.8412 5.47402 52.5 5.47402Z" fill="white"/>
<path fill-rule="evenodd" clip-rule="evenodd" d="M79.9938 5.47402H80.0062C81.384 5.47402 82.5 4.35196 82.5 2.96943C82.5 1.5869 81.384 0.464844 80.0062 0.464844H79.9938C78.6172 0.464844 77.5 1.5869 77.5 2.96943C77.5 4.35196 78.6172 5.47402 79.9938 5.47402Z" fill="white"/>
<path fill-rule="evenodd" clip-rule="evenodd" d="M65.8271 5.47402H65.8396C67.2161 5.47402 68.3333 4.35196 68.3333 2.96943C68.3333 1.5869 67.2161 0.464844 65.8396 0.464844H65.8271C64.4505 0.464844 63.3333 1.5869 63.3333 2.96943C63.3333 4.35196 64.4505 5.47402 65.8271 5.47402Z" fill="white"/>
<path fill-rule="evenodd" clip-rule="evenodd" d="M93.3333 5.47402C93.9908 5.47402 94.6358 5.20728 95.1008 4.74017C95.5671 4.27432 95.8333 3.62814 95.8333 2.96943C95.8333 2.30947 95.5671 1.66454 95.1008 1.19744C94.6358 0.731582 93.9908 0.464844 93.3333 0.464844C92.6746 0.464844 92.0308 0.731582 91.5646 1.19744C91.0996 1.66454 90.8333 2.30947 90.8333 2.96943C90.8333 3.62814 91.0996 4.27432 91.5646 4.74017C92.0308 5.20728 92.6746 5.47402 93.3333 5.47402Z" fill="white"/>
<path fill-rule="evenodd" clip-rule="evenodd" d="M106.667 5.47402C107.325 5.47402 107.969 5.20728 108.435 4.74017C108.9 4.27432 109.167 3.62814 109.167 2.96943C109.167 2.30947 108.9 1.66454 108.435 1.19744C107.969 0.731582 107.325 0.464844 106.667 0.464844C106.009 0.464844 105.364 0.731582 104.899 1.19744C104.433 1.66454 104.167 2.30947 104.167 2.96943C104.167 3.62814 104.433 4.27432 104.899 4.74017C105.364 5.20728 106.009 5.47402 106.667 5.47402Z" fill="white"/>
<path fill-rule="evenodd" clip-rule="evenodd" d="M134.16 5.47402H134.173C135.551 5.47402 136.667 4.35196 136.667 2.96943C136.667 1.5869 135.551 0.464844 134.173 0.464844H134.16C132.784 0.464844 131.667 1.5869 131.667 2.96943C131.667 4.35196 132.784 5.47402 134.16 5.47402Z" fill="white"/>
<path fill-rule="evenodd" clip-rule="evenodd" d="M119.994 5.47402H120.006C121.383 5.47402 122.5 4.35196 122.5 2.96943C122.5 1.5869 121.383 0.464844 120.006 0.464844H119.994C118.617 0.464844 117.5 1.5869 117.5 2.96943C117.5 4.35196 118.617 5.47402 119.994 5.47402Z" fill="white"/>
<mask id="mask1_41_6348" style="mask-type:luminance" maskUnits="userSpaceOnUse" x="144" y="0" width="6" height="6">
<path fill-rule="evenodd" clip-rule="evenodd" d="M144.419 0H149.752V5.34312H144.419V0Z" fill="white"/>
</mask>
<g mask="url(#mask1_41_6348)">
<path fill-rule="evenodd" clip-rule="evenodd" d="M147.086 5.34312C147.787 5.34312 148.475 5.0586 148.971 4.56035C149.468 4.06344 149.752 3.37418 149.752 2.67156C149.752 1.9676 149.468 1.27968 148.971 0.781431C148.475 0.284521 147.787 0 147.086 0C146.383 0 145.696 0.284521 145.199 0.781431C144.703 1.27968 144.419 1.9676 144.419 2.67156C144.419 3.37418 144.703 4.06344 145.199 4.56035C145.696 5.0586 146.383 5.34312 147.086 5.34312Z" fill="white"/>
</g>
<path fill-rule="evenodd" clip-rule="evenodd" d="M52.5 27.1804C53.1575 27.1804 53.8025 26.9137 54.2675 26.4466C54.7337 25.9807 55 25.3358 55 24.6759C55 24.0171 54.7337 23.371 54.2675 22.9051C53.8025 22.438 53.1575 22.1713 52.5 22.1713C51.8412 22.1713 51.1975 22.438 50.7312 22.9051C50.2662 23.371 50 24.0171 50 24.6759C50 25.3358 50.2662 25.9807 50.7312 26.4466C51.1975 26.9137 51.8412 27.1804 52.5 27.1804Z" fill="white"/>
<path fill-rule="evenodd" clip-rule="evenodd" d="M79.9938 27.1804H80.0062C81.384 27.1804 82.5 26.0584 82.5 24.6759C82.5 23.2933 81.384 22.1713 80.0062 22.1713H79.9938C78.6172 22.1713 77.5 23.2933 77.5 24.6759C77.5 26.0584 78.6172 27.1804 79.9938 27.1804Z" fill="white"/>
<path fill-rule="evenodd" clip-rule="evenodd" d="M65.8271 27.1804H65.8396C67.2161 27.1804 68.3333 26.0584 68.3333 24.6759C68.3333 23.2933 67.2161 22.1713 65.8396 22.1713H65.8271C64.4505 22.1713 63.3333 23.2933 63.3333 24.6759C63.3333 26.0584 64.4505 27.1804 65.8271 27.1804Z" fill="white"/>
<path fill-rule="evenodd" clip-rule="evenodd" d="M93.3333 27.1804C93.9908 27.1804 94.6358 26.9137 95.1008 26.4466C95.5671 25.9807 95.8333 25.3358 95.8333 24.6759C95.8333 24.0171 95.5671 23.371 95.1008 22.9051C94.6358 22.438 93.9908 22.1713 93.3333 22.1713C92.6746 22.1713 92.0308 22.438 91.5646 22.9051C91.0996 23.371 90.8333 24.0171 90.8333 24.6759C90.8333 25.3358 91.0996 25.9807 91.5646 26.4466C92.0308 26.9137 92.6746 27.1804 93.3333 27.1804Z" fill="white"/>
<path fill-rule="evenodd" clip-rule="evenodd" d="M106.667 27.1804C107.325 27.1804 107.969 26.9137 108.435 26.4466C108.9 25.9807 109.167 25.3358 109.167 24.6759C109.167 24.0171 108.9 23.371 108.435 22.9051C107.969 22.438 107.325 22.1713 106.667 22.1713C106.009 22.1713 105.364 22.438 104.899 22.9051C104.433 23.371 104.167 24.0171 104.167 24.6759C104.167 25.3358 104.433 25.9807 104.899 26.4466C105.364 26.9137 106.009 27.1804 106.667 27.1804Z" fill="white"/>
<path fill-rule="evenodd" clip-rule="evenodd" d="M134.16 27.1804H134.173C135.551 27.1804 136.667 26.0584 136.667 24.6759C136.667 23.2933 135.551 22.1713 134.173 22.1713H134.16C132.784 22.1713 131.667 23.2933 131.667 24.6759C131.667 26.0584 132.784 27.1804 134.16 27.1804Z" fill="white"/>
<path fill-rule="evenodd" clip-rule="evenodd" d="M119.994 27.1804H120.006C121.383 27.1804 122.5 26.0584 122.5 24.6759C122.5 23.2933 121.383 22.1713 120.006 22.1713H119.994C118.617 22.1713 117.5 23.2933 117.5 24.6759C117.5 26.0584 118.617 27.1804 119.994 27.1804Z" fill="white"/>
<mask id="mask2_41_6348" style="mask-type:luminance" maskUnits="userSpaceOnUse" x="144" y="22" width="6" height="6">
<path fill-rule="evenodd" clip-rule="evenodd" d="M144.419 22.2817H149.752V27.6249H144.419V22.2817Z" fill="white"/>
</mask>
<g mask="url(#mask2_41_6348)">
<path fill-rule="evenodd" clip-rule="evenodd" d="M147.086 27.6249C147.787 27.6249 148.475 27.3403 148.971 26.8421C149.468 26.3452 149.752 25.6573 149.752 24.9533C149.752 24.2507 149.468 23.5614 148.971 23.0645C148.475 22.5663 147.787 22.2817 147.086 22.2817C146.383 22.2817 145.696 22.5663 145.199 23.0645C144.703 23.5614 144.419 24.2507 144.419 24.9533C144.419 25.6573 144.703 26.3452 145.199 26.8421C145.696 27.3403 146.383 27.6249 147.086 27.6249Z" fill="white"/>
</g>
<path fill-rule="evenodd" clip-rule="evenodd" d="M52.5 37.1988C53.1575 37.1988 53.8025 36.9321 54.2675 36.465C54.7337 35.9991 55 35.3542 55 34.6942C55 34.0343 54.7337 33.3893 54.2675 32.9235C53.8025 32.4564 53.1575 32.1896 52.5 32.1896C51.8412 32.1896 51.1975 32.4564 50.7312 32.9235C50.2662 33.3893 50 34.0343 50 34.6942C50 35.3542 50.2662 35.9991 50.7312 36.465C51.1975 36.9321 51.8412 37.1988 52.5 37.1988Z" fill="white"/>
<path fill-rule="evenodd" clip-rule="evenodd" d="M79.9938 37.1988H80.0062C81.384 37.1988 82.5 36.0768 82.5 34.6942C82.5 33.3117 81.384 32.1896 80.0062 32.1896H79.9938C78.6172 32.1896 77.5 33.3117 77.5 34.6942C77.5 36.0768 78.6172 37.1988 79.9938 37.1988Z" fill="white"/>
<path fill-rule="evenodd" clip-rule="evenodd" d="M65.8271 37.1988H65.8396C67.2161 37.1988 68.3333 36.0768 68.3333 34.6942C68.3333 33.3117 67.2161 32.1896 65.8396 32.1896H65.8271C64.4505 32.1896 63.3333 33.3117 63.3333 34.6942C63.3333 36.0768 64.4505 37.1988 65.8271 37.1988Z" fill="white"/>
<path fill-rule="evenodd" clip-rule="evenodd" d="M93.3333 37.1988C93.9908 37.1988 94.6358 36.9321 95.1008 36.465C95.5671 35.9991 95.8333 35.3542 95.8333 34.6942C95.8333 34.0343 95.5671 33.3893 95.1008 32.9235C94.6358 32.4564 93.9908 32.1896 93.3333 32.1896C92.6746 32.1896 92.0308 32.4564 91.5646 32.9235C91.0996 33.3893 90.8333 34.0343 90.8333 34.6942C90.8333 35.3542 91.0996 35.9991 91.5646 36.465C92.0308 36.9321 92.6746 37.1988 93.3333 37.1988Z" fill="white"/>
<path fill-rule="evenodd" clip-rule="evenodd" d="M106.667 37.1988C107.325 37.1988 107.969 36.9321 108.435 36.465C108.9 35.9991 109.167 35.3542 109.167 34.6942C109.167 34.0343 108.9 33.3893 108.435 32.9235C107.969 32.4564 107.325 32.1896 106.667 32.1896C106.009 32.1896 105.364 32.4564 104.899 32.9235C104.433 33.3893 104.167 34.0343 104.167 34.6942C104.167 35.3542 104.433 35.9991 104.899 36.465C105.364 36.9321 106.009 37.1988 106.667 37.1988Z" fill="white"/>
<path fill-rule="evenodd" clip-rule="evenodd" d="M134.16 37.1988H134.173C135.551 37.1988 136.667 36.0768 136.667 34.6942C136.667 33.3117 135.551 32.1896 134.173 32.1896H134.16C132.784 32.1896 131.667 33.3117 131.667 34.6942C131.667 36.0768 132.784 37.1988 134.16 37.1988Z" fill="white"/>
<path fill-rule="evenodd" clip-rule="evenodd" d="M119.994 37.1988H120.006C121.383 37.1988 122.5 36.0768 122.5 34.6942C122.5 33.3117 121.383 32.1896 120.006 32.1896H119.994C118.617 32.1896 117.5 33.3117 117.5 34.6942C117.5 36.0768 118.617 37.1988 119.994 37.1988Z" fill="white"/>
<mask id="mask3_41_6348" style="mask-type:luminance" maskUnits="userSpaceOnUse" x="144" y="32" width="6" height="6">
<path fill-rule="evenodd" clip-rule="evenodd" d="M144.419 32.5877H149.752V37.9308H144.419V32.5877Z" fill="white"/>
</mask>
<g mask="url(#mask3_41_6348)">
<path fill-rule="evenodd" clip-rule="evenodd" d="M147.086 37.9308C147.787 37.9308 148.475 37.6463 148.971 37.1481C149.468 36.6511 149.752 35.9632 149.752 35.2593C149.752 34.5553 149.468 33.8674 148.971 33.3705C148.475 32.8722 147.787 32.5877 147.086 32.5877C146.383 32.5877 145.696 32.8722 145.199 33.3705C144.703 33.8674 144.419 34.5553 144.419 35.2593C144.419 35.9632 144.703 36.6511 145.199 37.1481C145.696 37.6463 146.383 37.9308 147.086 37.9308Z" fill="white"/>
</g>
<path fill-rule="evenodd" clip-rule="evenodd" d="M52.5 48.052C53.1575 48.052 53.8025 47.7853 54.2675 47.3182C54.7337 46.8523 55 46.2074 55 45.5474C55 44.8887 54.7337 44.2425 54.2675 43.7767C53.8025 43.3096 53.1575 43.0428 52.5 43.0428C51.8412 43.0428 51.1975 43.3096 50.7312 43.7767C50.2662 44.2425 50 44.8887 50 45.5474C50 46.2074 50.2662 46.8523 50.7312 47.3182C51.1975 47.7853 51.8412 48.052 52.5 48.052Z" fill="white"/>
<path fill-rule="evenodd" clip-rule="evenodd" d="M79.9938 48.052H80.0062C81.384 48.052 82.5 46.93 82.5 45.5474C82.5 44.1649 81.384 43.0428 80.0062 43.0428H79.9938C78.6172 43.0428 77.5 44.1649 77.5 45.5474C77.5 46.93 78.6172 48.052 79.9938 48.052Z" fill="white"/>
<path fill-rule="evenodd" clip-rule="evenodd" d="M65.8271 48.052H65.8396C67.2161 48.052 68.3333 46.93 68.3333 45.5474C68.3333 44.1649 67.2161 43.0428 65.8396 43.0428H65.8271C64.4505 43.0428 63.3333 44.1649 63.3333 45.5474C63.3333 46.93 64.4505 48.052 65.8271 48.052Z" fill="white"/>
<path fill-rule="evenodd" clip-rule="evenodd" d="M93.3333 48.052C93.9908 48.052 94.6358 47.7853 95.1008 47.3182C95.5671 46.8523 95.8333 46.2074 95.8333 45.5474C95.8333 44.8887 95.5671 44.2425 95.1008 43.7767C94.6358 43.3096 93.9908 43.0428 93.3333 43.0428C92.6746 43.0428 92.0308 43.3096 91.5646 43.7767C91.0996 44.2425 90.8333 44.8887 90.8333 45.5474C90.8333 46.2074 91.0996 46.8523 91.5646 47.3182C92.0308 47.7853 92.6746 48.052 93.3333 48.052Z" fill="white"/>
<path fill-rule="evenodd" clip-rule="evenodd" d="M106.667 48.052C107.325 48.052 107.969 47.7853 108.435 47.3182C108.9 46.8523 109.167 46.2074 109.167 45.5474C109.167 44.8887 108.9 44.2425 108.435 43.7767C107.969 43.3096 107.325 43.0428 106.667 43.0428C106.009 43.0428 105.364 43.3096 104.899 43.7767C104.433 44.2425 104.167 44.8887 104.167 45.5474C104.167 46.2074 104.433 46.8523 104.899 47.3182C105.364 47.7853 106.009 48.052 106.667 48.052Z" fill="white"/>
<path fill-rule="evenodd" clip-rule="evenodd" d="M134.16 48.052H134.173C135.551 48.052 136.667 46.93 136.667 45.5474C136.667 44.1649 135.551 43.0428 134.173 43.0428H134.16C132.784 43.0428 131.667 44.1649 131.667 45.5474C131.667 46.93 132.784 48.052 134.16 48.052Z" fill="white"/>
<path fill-rule="evenodd" clip-rule="evenodd" d="M119.994 48.052H120.006C121.383 48.052 122.5 46.93 122.5 45.5474C122.5 44.1649 121.383 43.0428 120.006 43.0428H119.994C118.617 43.0428 117.5 44.1649 117.5 45.5474C117.5 46.93 118.617 48.052 119.994 48.052Z" fill="white"/>
<mask id="mask4_41_6348" style="mask-type:luminance" maskUnits="userSpaceOnUse" x="144" y="42" width="6" height="6">
<path fill-rule="evenodd" clip-rule="evenodd" d="M144.419 42.3928H149.752V47.7359H144.419V42.3928Z" fill="white"/>
</mask>
<g mask="url(#mask4_41_6348)">
<path fill-rule="evenodd" clip-rule="evenodd" d="M147.086 47.7359C147.787 47.7359 148.475 47.4514 148.971 46.9532C149.468 46.4563 149.752 45.7683 149.752 45.0644C149.752 44.3618 149.468 43.6725 148.971 43.1756C148.475 42.6773 147.787 42.3928 147.086 42.3928C146.383 42.3928 145.696 42.6773 145.199 43.1756C144.703 43.6725 144.419 44.3618 144.419 45.0644C144.419 45.7683 144.703 46.4563 145.199 46.9532C145.696 47.4514 146.383 47.7359 147.086 47.7359Z" fill="white"/>
</g>
<path fill-rule="evenodd" clip-rule="evenodd" d="M52.5 58.9052C53.1575 58.9052 53.8025 58.6385 54.2675 58.1726C54.7337 57.7055 55 57.0606 55 56.4006C55 55.7419 54.7337 55.0958 54.2675 54.6299C53.8025 54.1628 53.1575 53.8961 52.5 53.8961C51.8412 53.8961 51.1975 54.1628 50.7312 54.6299C50.2662 55.0958 50 55.7419 50 56.4006C50 57.0606 50.2662 57.7055 50.7312 58.1726C51.1975 58.6385 51.8412 58.9052 52.5 58.9052Z" fill="white"/>
<path fill-rule="evenodd" clip-rule="evenodd" d="M79.9938 58.9052H80.0062C81.384 58.9052 82.5 57.7832 82.5 56.4006C82.5 55.0181 81.384 53.8961 80.0062 53.8961H79.9938C78.6172 53.8961 77.5 55.0181 77.5 56.4006C77.5 57.7832 78.6172 58.9052 79.9938 58.9052Z" fill="white"/>
<path fill-rule="evenodd" clip-rule="evenodd" d="M65.8271 58.9052H65.8396C67.2161 58.9052 68.3333 57.7832 68.3333 56.4006C68.3333 55.0181 67.2161 53.8961 65.8396 53.8961H65.8271C64.4505 53.8961 63.3333 55.0181 63.3333 56.4006C63.3333 57.7832 64.4505 58.9052 65.8271 58.9052Z" fill="white"/>
<path fill-rule="evenodd" clip-rule="evenodd" d="M93.3333 58.9052C93.9908 58.9052 94.6358 58.6385 95.1008 58.1726C95.5671 57.7055 95.8333 57.0606 95.8333 56.4006C95.8333 55.7419 95.5671 55.0958 95.1008 54.6299C94.6358 54.1628 93.9908 53.8961 93.3333 53.8961C92.6746 53.8961 92.0308 54.1628 91.5646 54.6299C91.0996 55.0958 90.8333 55.7419 90.8333 56.4006C90.8333 57.0606 91.0996 57.7055 91.5646 58.1726C92.0308 58.6385 92.6746 58.9052 93.3333 58.9052Z" fill="white"/>
<path fill-rule="evenodd" clip-rule="evenodd" d="M106.667 58.9052C107.325 58.9052 107.969 58.6385 108.435 58.1726C108.9 57.7055 109.167 57.0606 109.167 56.4006C109.167 55.7419 108.9 55.0958 108.435 54.6299C107.969 54.1628 107.325 53.8961 106.667 53.8961C106.009 53.8961 105.364 54.1628 104.899 54.6299C104.433 55.0958 104.167 55.7419 104.167 56.4006C104.167 57.0606 104.433 57.7055 104.899 58.1726C105.364 58.6385 106.009 58.9052 106.667 58.9052Z" fill="white"/>
<path fill-rule="evenodd" clip-rule="evenodd" d="M134.16 58.9052H134.173C135.551 58.9052 136.667 57.7832 136.667 56.4006C136.667 55.0181 135.551 53.8961 134.173 53.8961H134.16C132.784 53.8961 131.667 55.0181 131.667 56.4006C131.667 57.7832 132.784 58.9052 134.16 58.9052Z" fill="white"/>
<path fill-rule="evenodd" clip-rule="evenodd" d="M119.994 58.9052H120.006C121.383 58.9052 122.5 57.7832 122.5 56.4006C122.5 55.0181 121.383 53.8961 120.006 53.8961H119.994C118.617 53.8961 117.5 55.0181 117.5 56.4006C117.5 57.7832 118.617 58.9052 119.994 58.9052Z" fill="white"/>
<mask id="mask5_41_6348" style="mask-type:luminance" maskUnits="userSpaceOnUse" x="144" y="53" width="6" height="6">
<path fill-rule="evenodd" clip-rule="evenodd" d="M144.419 53.5336H149.752V58.8767H144.419V53.5336Z" fill="white"/>
</mask>
<g mask="url(#mask5_41_6348)">
<path fill-rule="evenodd" clip-rule="evenodd" d="M147.086 58.8767C147.787 58.8767 148.475 58.5922 148.971 58.0953C149.468 57.5971 149.752 56.9091 149.752 56.2052C149.752 55.5026 149.468 54.8133 148.971 54.3164C148.475 53.8182 147.787 53.5336 147.086 53.5336C146.383 53.5336 145.696 53.8182 145.199 54.3164C144.703 54.8133 144.419 55.5026 144.419 56.2052C144.419 56.9091 144.703 57.5971 145.199 58.0953C145.696 58.5922 146.383 58.8767 147.086 58.8767Z" fill="white"/>
</g>
<path fill-rule="evenodd" clip-rule="evenodd" d="M52.5 68.9235C53.1575 68.9235 53.8025 68.6568 54.2675 68.1897C54.7337 67.7238 55 67.0789 55 66.419C55 65.7602 54.7337 65.1141 54.2675 64.6482C53.8025 64.1811 53.1575 63.9144 52.5 63.9144C51.8412 63.9144 51.1975 64.1811 50.7312 64.6482C50.2662 65.1141 50 65.7602 50 66.419C50 67.0789 50.2662 67.7238 50.7312 68.1897C51.1975 68.6568 51.8412 68.9235 52.5 68.9235Z" fill="white"/>
<path fill-rule="evenodd" clip-rule="evenodd" d="M79.9938 68.9235H80.0062C81.384 68.9235 82.5 67.8015 82.5 66.419C82.5 65.0364 81.384 63.9144 80.0062 63.9144H79.9938C78.6172 63.9144 77.5 65.0364 77.5 66.419C77.5 67.8015 78.6172 68.9235 79.9938 68.9235Z" fill="white"/>
<path fill-rule="evenodd" clip-rule="evenodd" d="M65.8271 68.9235H65.8396C67.2161 68.9235 68.3333 67.8015 68.3333 66.419C68.3333 65.0364 67.2161 63.9144 65.8396 63.9144H65.8271C64.4505 63.9144 63.3333 65.0364 63.3333 66.419C63.3333 67.8015 64.4505 68.9235 65.8271 68.9235Z" fill="white"/>
<path fill-rule="evenodd" clip-rule="evenodd" d="M93.3333 68.9235C93.9908 68.9235 94.6358 68.6568 95.1008 68.1897C95.5671 67.7238 95.8333 67.0789 95.8333 66.419C95.8333 65.7602 95.5671 65.1141 95.1008 64.6482C94.6358 64.1811 93.9908 63.9144 93.3333 63.9144C92.6746 63.9144 92.0308 64.1811 91.5646 64.6482C91.0996 65.1141 90.8333 65.7602 90.8333 66.419C90.8333 67.0789 91.0996 67.7238 91.5646 68.1897C92.0308 68.6568 92.6746 68.9235 93.3333 68.9235Z" fill="white"/>
<path fill-rule="evenodd" clip-rule="evenodd" d="M106.667 68.9235C107.325 68.9235 107.969 68.6568 108.435 68.1897C108.9 67.7238 109.167 67.0789 109.167 66.419C109.167 65.7602 108.9 65.1141 108.435 64.6482C107.969 64.1811 107.325 63.9144 106.667 63.9144C106.009 63.9144 105.364 64.1811 104.899 64.6482C104.433 65.1141 104.167 65.7602 104.167 66.419C104.167 67.0789 104.433 67.7238 104.899 68.1897C105.364 68.6568 106.009 68.9235 106.667 68.9235Z" fill="white"/>
<path fill-rule="evenodd" clip-rule="evenodd" d="M134.16 68.9235H134.173C135.551 68.9235 136.667 67.8015 136.667 66.419C136.667 65.0364 135.551 63.9144 134.173 63.9144H134.16C132.784 63.9144 131.667 65.0364 131.667 66.419C131.667 67.8015 132.784 68.9235 134.16 68.9235Z" fill="white"/>
<path fill-rule="evenodd" clip-rule="evenodd" d="M119.994 68.9235H120.006C121.383 68.9235 122.5 67.8015 122.5 66.419C122.5 65.0364 121.383 63.9144 120.006 63.9144H119.994C118.617 63.9144 117.5 65.0364 117.5 66.419C117.5 67.8015 118.617 68.9235 119.994 68.9235Z" fill="white"/>
<mask id="mask6_41_6348" style="mask-type:luminance" maskUnits="userSpaceOnUse" x="144" y="63" width="6" height="7">
<path fill-rule="evenodd" clip-rule="evenodd" d="M144.419 63.8396H149.752V69.1827H144.419V63.8396Z" fill="white"/>
</mask>
<g mask="url(#mask6_41_6348)">
<path fill-rule="evenodd" clip-rule="evenodd" d="M147.086 69.1827C147.787 69.1827 148.475 68.8982 148.971 68.4C149.468 67.903 149.752 67.2151 149.752 66.5112C149.752 65.8085 149.468 65.1193 148.971 64.6224C148.475 64.1241 147.787 63.8396 147.086 63.8396C146.383 63.8396 145.696 64.1241 145.199 64.6224C144.703 65.1193 144.419 65.8085 144.419 66.5112C144.419 67.2151 144.703 67.903 145.199 68.4C145.696 68.8982 146.383 69.1827 147.086 69.1827Z" fill="white"/>
</g>
<path fill-rule="evenodd" clip-rule="evenodd" d="M52.5 80.6117C53.1575 80.6117 53.8025 80.3449 54.2675 79.8791C54.7337 79.412 55 78.767 55 78.1071C55 77.4484 54.7337 76.8022 54.2675 76.3363C53.8025 75.8692 53.1575 75.6025 52.5 75.6025C51.8412 75.6025 51.1975 75.8692 50.7312 76.3363C50.2662 76.8022 50 77.4484 50 78.1071C50 78.767 50.2662 79.412 50.7312 79.8791C51.1975 80.3449 51.8412 80.6117 52.5 80.6117Z" fill="white"/>
<path fill-rule="evenodd" clip-rule="evenodd" d="M79.9938 80.6117H80.0062C81.384 80.6117 82.5 79.4908 82.5 78.1071C82.5 76.7245 81.384 75.6025 80.0062 75.6025H79.9938C78.6172 75.6025 77.5 76.7245 77.5 78.1071C77.5 79.4908 78.6172 80.6117 79.9938 80.6117Z" fill="white"/>
<path fill-rule="evenodd" clip-rule="evenodd" d="M65.8271 80.6117H65.8396C67.2161 80.6117 68.3333 79.4908 68.3333 78.1071C68.3333 76.7245 67.2161 75.6025 65.8396 75.6025H65.8271C64.4505 75.6025 63.3333 76.7245 63.3333 78.1071C63.3333 79.4908 64.4505 80.6117 65.8271 80.6117Z" fill="white"/>
<path fill-rule="evenodd" clip-rule="evenodd" d="M93.3333 80.6117C93.9908 80.6117 94.6358 80.3449 95.1008 79.8791C95.5671 79.412 95.8333 78.767 95.8333 78.1071C95.8333 77.4484 95.5671 76.8022 95.1008 76.3363C94.6358 75.8692 93.9908 75.6025 93.3333 75.6025C92.6746 75.6025 92.0308 75.8692 91.5646 76.3363C91.0996 76.8022 90.8333 77.4484 90.8333 78.1071C90.8333 78.767 91.0996 79.412 91.5646 79.8791C92.0308 80.3449 92.6746 80.6117 93.3333 80.6117Z" fill="white"/>
<path fill-rule="evenodd" clip-rule="evenodd" d="M106.667 80.6117C107.325 80.6117 107.969 80.3449 108.435 79.8791C108.9 79.412 109.167 78.767 109.167 78.1071C109.167 77.4484 108.9 76.8022 108.435 76.3363C107.969 75.8692 107.325 75.6025 106.667 75.6025C106.009 75.6025 105.364 75.8692 104.899 76.3363C104.433 76.8022 104.167 77.4484 104.167 78.1071C104.167 78.767 104.433 79.412 104.899 79.8791C105.364 80.3449 106.009 80.6117 106.667 80.6117Z" fill="white"/>
<path fill-rule="evenodd" clip-rule="evenodd" d="M134.16 80.6117H134.173C135.551 80.6117 136.667 79.4908 136.667 78.1071C136.667 76.7245 135.551 75.6025 134.173 75.6025H134.16C132.784 75.6025 131.667 76.7245 131.667 78.1071C131.667 79.4908 132.784 80.6117 134.16 80.6117Z" fill="white"/>
<path fill-rule="evenodd" clip-rule="evenodd" d="M119.994 80.6117H120.006C121.383 80.6117 122.5 79.4908 122.5 78.1071C122.5 76.7245 121.383 75.6025 120.006 75.6025H119.994C118.617 75.6025 117.5 76.7245 117.5 78.1071C117.5 79.4908 118.617 80.6117 119.994 80.6117Z" fill="white"/>
<mask id="mask7_41_6348" style="mask-type:luminance" maskUnits="userSpaceOnUse" x="144" y="75" width="6" height="7">
<path fill-rule="evenodd" clip-rule="evenodd" d="M144.419 75.8154H149.752V81.1585H144.419V75.8154Z" fill="white"/>
</mask>
<g mask="url(#mask7_41_6348)">
<path fill-rule="evenodd" clip-rule="evenodd" d="M147.086 81.1585C147.787 81.1585 148.475 80.874 148.971 80.3771C149.468 79.8788 149.752 79.1909 149.752 78.4869C149.752 77.7843 149.468 77.095 148.971 76.5981C148.475 76.0999 147.787 75.8154 147.086 75.8154C146.383 75.8154 145.696 76.0999 145.199 76.5981C144.703 77.095 144.419 77.7843 144.419 78.4869C144.419 79.1909 144.703 79.8788 145.199 80.3771C145.696 80.874 146.383 81.1585 147.086 81.1585Z" fill="white"/>
</g>
<mask id="mask8_41_6348" style="mask-type:luminance" maskUnits="userSpaceOnUse" x="50" y="85" width="6" height="6">
<path fill-rule="evenodd" clip-rule="evenodd" d="M50.0003 85.6211H55.0003V90.63H50.0003V85.6211Z" fill="white"/>
</mask>
<g mask="url(#mask8_41_6348)">
<path fill-rule="evenodd" clip-rule="evenodd" d="M52.5003 90.6303C53.1578 90.6303 53.8028 90.3635 54.2678 89.8964C54.734 89.4306 55.0003 88.7844 55.0003 88.1257C55.0003 87.4657 54.734 86.8208 54.2678 86.3537C53.8028 85.8878 53.1578 85.6211 52.5003 85.6211C51.8415 85.6211 51.1978 85.8878 50.7315 86.3537C50.2665 86.8208 50.0003 87.4657 50.0003 88.1257C50.0003 88.7844 50.2665 89.4306 50.7315 89.8964C51.1978 90.3635 51.8415 90.6303 52.5003 90.6303Z" fill="white"/>
</g>
<mask id="mask9_41_6348" style="mask-type:luminance" maskUnits="userSpaceOnUse" x="77" y="85" width="6" height="6">
<path fill-rule="evenodd" clip-rule="evenodd" d="M77.4937 85.6211H82.8404V90.63H77.4937V85.6211Z" fill="white"/>
</mask>
<g mask="url(#mask9_41_6348)">
<path fill-rule="evenodd" clip-rule="evenodd" d="M80.1604 90.6303H80.1737C81.6471 90.6303 82.8404 89.5082 82.8404 88.1257C82.8404 86.7419 81.6471 85.6211 80.1737 85.6211H80.1604C78.6884 85.6211 77.4937 86.7419 77.4937 88.1257C77.4937 89.5082 78.6884 90.6303 80.1604 90.6303Z" fill="white"/>
</g>
<mask id="mask10_41_6348" style="mask-type:luminance" maskUnits="userSpaceOnUse" x="62" y="85" width="7" height="6">
<path fill-rule="evenodd" clip-rule="evenodd" d="M62.9104 85.6211H68.2571V90.63H62.9104V85.6211Z" fill="white"/>
</mask>
<g mask="url(#mask10_41_6348)">
<path fill-rule="evenodd" clip-rule="evenodd" d="M65.5771 90.6303H65.5904C67.0624 90.6303 68.2571 89.5082 68.2571 88.1257C68.2571 86.7419 67.0624 85.6211 65.5904 85.6211H65.5771C64.1051 85.6211 62.9104 86.7419 62.9104 88.1257C62.9104 89.5082 64.1051 90.6303 65.5771 90.6303Z" fill="white"/>
</g>
<mask id="mask11_41_6348" style="mask-type:luminance" maskUnits="userSpaceOnUse" x="90" y="85" width="6" height="6">
<path fill-rule="evenodd" clip-rule="evenodd" d="M90.4176 85.6211H95.7509V90.63H90.4176V85.6211Z" fill="white"/>
</mask>
<g mask="url(#mask11_41_6348)">
<path fill-rule="evenodd" clip-rule="evenodd" d="M93.0843 90.6303C93.7856 90.6303 94.4736 90.3635 94.9696 89.8964C95.4669 89.4306 95.7509 88.7844 95.7509 88.1257C95.7509 87.4657 95.4669 86.8208 94.9696 86.3537C94.4736 85.8878 93.7856 85.6211 93.0843 85.6211C92.3816 85.6211 91.6949 85.8878 91.1976 86.3537C90.7016 86.8208 90.4176 87.4657 90.4176 88.1257C90.4176 88.7844 90.7016 89.4306 91.1976 89.8964C91.6949 90.3635 92.3816 90.6303 93.0843 90.6303Z" fill="white"/>
</g>
<mask id="mask12_41_6348" style="mask-type:luminance" maskUnits="userSpaceOnUse" x="103" y="85" width="7" height="6">
<path fill-rule="evenodd" clip-rule="evenodd" d="M103.668 85.6211H109.001V90.63H103.668V85.6211Z" fill="white"/>
</mask>
<g mask="url(#mask12_41_6348)">
<path fill-rule="evenodd" clip-rule="evenodd" d="M106.334 90.6303C107.037 90.6303 107.724 90.3635 108.221 89.8964C108.717 89.4306 109.001 88.7844 109.001 88.1257C109.001 87.4657 108.717 86.8208 108.221 86.3537C107.724 85.8878 107.037 85.6211 106.334 85.6211C105.633 85.6211 104.945 85.8878 104.449 86.3537C103.952 86.8208 103.668 87.4657 103.668 88.1257C103.668 88.7844 103.952 89.4306 104.449 89.8964C104.945 90.3635 105.633 90.6303 106.334 90.6303Z" fill="white"/>
</g>
<mask id="mask13_41_6348" style="mask-type:luminance" maskUnits="userSpaceOnUse" x="131" y="85" width="6" height="6">
<path fill-rule="evenodd" clip-rule="evenodd" d="M131.162 85.6211H136.508V90.63H131.162V85.6211Z" fill="white"/>
</mask>
<g mask="url(#mask13_41_6348)">
<path fill-rule="evenodd" clip-rule="evenodd" d="M133.828 90.6303H133.842C135.315 90.6303 136.508 89.5082 136.508 88.1257C136.508 86.7419 135.315 85.6211 133.842 85.6211H133.828C132.356 85.6211 131.162 86.7419 131.162 88.1257C131.162 89.5082 132.356 90.6303 133.828 90.6303Z" fill="white"/>
</g>
<mask id="mask14_41_6348" style="mask-type:luminance" maskUnits="userSpaceOnUse" x="117" y="85" width="6" height="6">
<path fill-rule="evenodd" clip-rule="evenodd" d="M117.412 85.6211H122.758V90.63H117.412V85.6211Z" fill="white"/>
</mask>
<g mask="url(#mask14_41_6348)">
<path fill-rule="evenodd" clip-rule="evenodd" d="M120.078 90.6303H120.092C121.564 90.6303 122.758 89.5082 122.758 88.1257C122.758 86.7419 121.564 85.6211 120.092 85.6211H120.078C118.606 85.6211 117.412 86.7419 117.412 88.1257C117.412 89.5082 118.606 90.6303 120.078 90.6303Z" fill="white"/>
</g>
<mask id="mask15_41_6348" style="mask-type:luminance" maskUnits="userSpaceOnUse" x="144" y="85" width="6" height="6">
<path fill-rule="evenodd" clip-rule="evenodd" d="M144.419 85.6211H149.752V90.63H144.419V85.6211Z" fill="white"/>
</mask>
<g mask="url(#mask15_41_6348)">
<path fill-rule="evenodd" clip-rule="evenodd" d="M147.086 90.6303C147.787 90.6303 148.475 90.3635 148.971 89.8964C149.468 89.4306 149.752 88.7844 149.752 88.1257C149.752 87.4657 149.468 86.8208 148.971 86.3537C148.475 85.8878 147.787 85.6211 147.086 85.6211C146.383 85.6211 145.696 85.8878 145.199 86.3537C144.703 86.8208 144.419 87.4657 144.419 88.1257C144.419 88.7844 144.703 89.4306 145.199 89.8964C145.696 90.3635 146.383 90.6303 147.086 90.6303Z" fill="white"/>
</g>
<path fill-rule="evenodd" clip-rule="evenodd" d="M-0.333332 15.4924C0.325418 15.4924 0.969168 15.2257 1.43542 14.7585C1.90042 14.2927 2.16667 13.6478 2.16667 12.9878C2.16667 12.3278 1.90042 11.6829 1.43542 11.2171C0.969168 10.75 0.325418 10.4832 -0.333332 10.4832C-0.990832 10.4832 -1.63583 10.75 -2.10083 11.2171C-2.56708 11.6829 -2.83333 12.3278 -2.83333 12.9878C-2.83333 13.6478 -2.56708 14.2927 -2.10083 14.7585C-1.63583 15.2257 -0.990832 15.4924 -0.333332 15.4924Z" fill="white"/>
<path fill-rule="evenodd" clip-rule="evenodd" d="M27.1604 15.4924H27.1729C28.5507 15.4924 29.6667 14.3703 29.6667 12.9878C29.6667 11.6053 28.5507 10.4832 27.1729 10.4832H27.1604C25.7839 10.4832 24.6667 11.6053 24.6667 12.9878C24.6667 14.3703 25.7839 15.4924 27.1604 15.4924Z" fill="white"/>
<path fill-rule="evenodd" clip-rule="evenodd" d="M12.9938 15.4924H13.0062C14.3828 15.4924 15.5 14.3703 15.5 12.9878C15.5 11.6053 14.3828 10.4832 13.0062 10.4832H12.9938C11.6172 10.4832 10.5 11.6053 10.5 12.9878C10.5 14.3703 11.6172 15.4924 12.9938 15.4924Z" fill="white"/>
<mask id="mask16_41_6348" style="mask-type:luminance" maskUnits="userSpaceOnUse" x="37" y="10" width="6" height="6">
<path fill-rule="evenodd" clip-rule="evenodd" d="M37.4189 10.3061H42.752V15.6492H37.4189V10.3061Z" fill="white"/>
</mask>
<g mask="url(#mask16_41_6348)">
<path fill-rule="evenodd" clip-rule="evenodd" d="M40.0856 15.6492C40.7869 15.6492 41.4749 15.3647 41.9709 14.8664C42.4683 14.3695 42.7523 13.6816 42.7523 12.9777C42.7523 12.2737 42.4683 11.5858 41.9709 11.0889C41.4749 10.5906 40.7869 10.3061 40.0856 10.3061C39.3829 10.3061 38.6963 10.5906 38.1989 11.0889C37.7029 11.5858 37.4189 12.2737 37.4189 12.9777C37.4189 13.6816 37.7029 14.3695 38.1989 14.8664C38.6963 15.3647 39.3829 15.6492 40.0856 15.6492Z" fill="white"/>
</g>
<path fill-rule="evenodd" clip-rule="evenodd" d="M-0.333332 5.47402C0.325418 5.47402 0.969168 5.20728 1.43542 4.74017C1.90042 4.27432 2.16667 3.62814 2.16667 2.96943C2.16667 2.30947 1.90042 1.66454 1.43542 1.19744C0.969168 0.731582 0.325418 0.464844 -0.333332 0.464844C-0.990832 0.464844 -1.63583 0.731582 -2.10083 1.19744C-2.56708 1.66454 -2.83333 2.30947 -2.83333 2.96943C-2.83333 3.62814 -2.56708 4.27432 -2.10083 4.74017C-1.63583 5.20728 -0.990832 5.47402 -0.333332 5.47402Z" fill="white"/>
<path fill-rule="evenodd" clip-rule="evenodd" d="M27.1604 5.47402H27.1729C28.5507 5.47402 29.6667 4.35196 29.6667 2.96943C29.6667 1.5869 28.5507 0.464844 27.1729 0.464844H27.1604C25.7839 0.464844 24.6667 1.5869 24.6667 2.96943C24.6667 4.35196 25.7839 5.47402 27.1604 5.47402Z" fill="white"/>
<path fill-rule="evenodd" clip-rule="evenodd" d="M12.9938 5.47402H13.0062C14.3828 5.47402 15.5 4.35196 15.5 2.96943C15.5 1.5869 14.3828 0.464844 13.0062 0.464844H12.9938C11.6172 0.464844 10.5 1.5869 10.5 2.96943C10.5 4.35196 11.6172 5.47402 12.9938 5.47402Z" fill="white"/>
<mask id="mask17_41_6348" style="mask-type:luminance" maskUnits="userSpaceOnUse" x="37" y="0" width="6" height="6">
<path fill-rule="evenodd" clip-rule="evenodd" d="M37.4189 0H42.752V5.34312H37.4189V0Z" fill="white"/>
</mask>
<g mask="url(#mask17_41_6348)">
<path fill-rule="evenodd" clip-rule="evenodd" d="M40.0856 5.34312C40.7869 5.34312 41.4749 5.0586 41.9709 4.56035C42.4683 4.06344 42.7523 3.37418 42.7523 2.67156C42.7523 1.9676 42.4683 1.27968 41.9709 0.781431C41.4749 0.284521 40.7869 0 40.0856 0C39.3829 0 38.6963 0.284521 38.1989 0.781431C37.7029 1.27968 37.4189 1.9676 37.4189 2.67156C37.4189 3.37418 37.7029 4.06344 38.1989 4.56035C38.6963 5.0586 39.3829 5.34312 40.0856 5.34312Z" fill="white"/>
</g>
<path fill-rule="evenodd" clip-rule="evenodd" d="M-0.333332 27.1804C0.325418 27.1804 0.969168 26.9137 1.43542 26.4466C1.90042 25.9807 2.16667 25.3358 2.16667 24.6759C2.16667 24.0171 1.90042 23.371 1.43542 22.9051C0.969168 22.438 0.325418 22.1713 -0.333332 22.1713C-0.990832 22.1713 -1.63583 22.438 -2.10083 22.9051C-2.56708 23.371 -2.83333 24.0171 -2.83333 24.6759C-2.83333 25.3358 -2.56708 25.9807 -2.10083 26.4466C-1.63583 26.9137 -0.990832 27.1804 -0.333332 27.1804Z" fill="white"/>
<path fill-rule="evenodd" clip-rule="evenodd" d="M27.1604 27.1804H27.1729C28.5507 27.1804 29.6667 26.0584 29.6667 24.6759C29.6667 23.2933 28.5507 22.1713 27.1729 22.1713H27.1604C25.7839 22.1713 24.6667 23.2933 24.6667 24.6759C24.6667 26.0584 25.7839 27.1804 27.1604 27.1804Z" fill="white"/>
<path fill-rule="evenodd" clip-rule="evenodd" d="M12.9938 27.1804H13.0062C14.3828 27.1804 15.5 26.0584 15.5 24.6759C15.5 23.2933 14.3828 22.1713 13.0062 22.1713H12.9938C11.6172 22.1713 10.5 23.2933 10.5 24.6759C10.5 26.0584 11.6172 27.1804 12.9938 27.1804Z" fill="white"/>
<mask id="mask18_41_6348" style="mask-type:luminance" maskUnits="userSpaceOnUse" x="37" y="22" width="6" height="6">
<path fill-rule="evenodd" clip-rule="evenodd" d="M37.4189 22.2817H42.752V27.6249H37.4189V22.2817Z" fill="white"/>
</mask>
<g mask="url(#mask18_41_6348)">
<path fill-rule="evenodd" clip-rule="evenodd" d="M40.0856 27.6249C40.7869 27.6249 41.4749 27.3403 41.9709 26.8421C42.4683 26.3452 42.7523 25.6573 42.7523 24.9533C42.7523 24.2507 42.4683 23.5614 41.9709 23.0645C41.4749 22.5663 40.7869 22.2817 40.0856 22.2817C39.3829 22.2817 38.6963 22.5663 38.1989 23.0645C37.7029 23.5614 37.4189 24.2507 37.4189 24.9533C37.4189 25.6573 37.7029 26.3452 38.1989 26.8421C38.6963 27.3403 39.3829 27.6249 40.0856 27.6249Z" fill="white"/>
</g>
<path fill-rule="evenodd" clip-rule="evenodd" d="M-0.333332 37.1988C0.325418 37.1988 0.969168 36.9321 1.43542 36.465C1.90042 35.9991 2.16667 35.3542 2.16667 34.6942C2.16667 34.0343 1.90042 33.3893 1.43542 32.9235C0.969168 32.4564 0.325418 32.1896 -0.333332 32.1896C-0.990832 32.1896 -1.63583 32.4564 -2.10083 32.9235C-2.56708 33.3893 -2.83333 34.0343 -2.83333 34.6942C-2.83333 35.3542 -2.56708 35.9991 -2.10083 36.465C-1.63583 36.9321 -0.990832 37.1988 -0.333332 37.1988Z" fill="white"/>
<path fill-rule="evenodd" clip-rule="evenodd" d="M27.1604 37.1988H27.1729C28.5507 37.1988 29.6667 36.0768 29.6667 34.6942C29.6667 33.3117 28.5507 32.1896 27.1729 32.1896H27.1604C25.7839 32.1896 24.6667 33.3117 24.6667 34.6942C24.6667 36.0768 25.7839 37.1988 27.1604 37.1988Z" fill="white"/>
<path fill-rule="evenodd" clip-rule="evenodd" d="M12.9938 37.1988H13.0062C14.3828 37.1988 15.5 36.0768 15.5 34.6942C15.5 33.3117 14.3828 32.1896 13.0062 32.1896H12.9938C11.6172 32.1896 10.5 33.3117 10.5 34.6942C10.5 36.0768 11.6172 37.1988 12.9938 37.1988Z" fill="white"/>
<mask id="mask19_41_6348" style="mask-type:luminance" maskUnits="userSpaceOnUse" x="37" y="32" width="6" height="6">
<path fill-rule="evenodd" clip-rule="evenodd" d="M37.4189 32.5877H42.752V37.9308H37.4189V32.5877Z" fill="white"/>
</mask>
<g mask="url(#mask19_41_6348)">
<path fill-rule="evenodd" clip-rule="evenodd" d="M40.0856 37.9308C40.7869 37.9308 41.4749 37.6463 41.9709 37.1481C42.4683 36.6511 42.7523 35.9632 42.7523 35.2593C42.7523 34.5553 42.4683 33.8674 41.9709 33.3705C41.4749 32.8722 40.7869 32.5877 40.0856 32.5877C39.3829 32.5877 38.6963 32.8722 38.1989 33.3705C37.7029 33.8674 37.4189 34.5553 37.4189 35.2593C37.4189 35.9632 37.7029 36.6511 38.1989 37.1481C38.6963 37.6463 39.3829 37.9308 40.0856 37.9308Z" fill="white"/>
</g>
<path fill-rule="evenodd" clip-rule="evenodd" d="M-0.333332 48.052C0.325418 48.052 0.969168 47.7853 1.43542 47.3182C1.90042 46.8523 2.16667 46.2074 2.16667 45.5474C2.16667 44.8887 1.90042 44.2425 1.43542 43.7767C0.969168 43.3096 0.325418 43.0428 -0.333332 43.0428C-0.990832 43.0428 -1.63583 43.3096 -2.10083 43.7767C-2.56708 44.2425 -2.83333 44.8887 -2.83333 45.5474C-2.83333 46.2074 -2.56708 46.8523 -2.10083 47.3182C-1.63583 47.7853 -0.990832 48.052 -0.333332 48.052Z" fill="white"/>
<path fill-rule="evenodd" clip-rule="evenodd" d="M27.1604 48.052H27.1729C28.5507 48.052 29.6667 46.93 29.6667 45.5474C29.6667 44.1649 28.5507 43.0428 27.1729 43.0428H27.1604C25.7839 43.0428 24.6667 44.1649 24.6667 45.5474C24.6667 46.93 25.7839 48.052 27.1604 48.052Z" fill="white"/>
<path fill-rule="evenodd" clip-rule="evenodd" d="M12.9938 48.052H13.0062C14.3828 48.052 15.5 46.93 15.5 45.5474C15.5 44.1649 14.3828 43.0428 13.0062 43.0428H12.9938C11.6172 43.0428 10.5 44.1649 10.5 45.5474C10.5 46.93 11.6172 48.052 12.9938 48.052Z" fill="white"/>
<mask id="mask20_41_6348" style="mask-type:luminance" maskUnits="userSpaceOnUse" x="37" y="42" width="6" height="6">
<path fill-rule="evenodd" clip-rule="evenodd" d="M37.4189 42.3928H42.752V47.7359H37.4189V42.3928Z" fill="white"/>
</mask>
<g mask="url(#mask20_41_6348)">
<path fill-rule="evenodd" clip-rule="evenodd" d="M40.0856 47.7359C40.7869 47.7359 41.4749 47.4514 41.9709 46.9532C42.4683 46.4563 42.7523 45.7683 42.7523 45.0644C42.7523 44.3618 42.4683 43.6725 41.9709 43.1756C41.4749 42.6773 40.7869 42.3928 40.0856 42.3928C39.3829 42.3928 38.6963 42.6773 38.1989 43.1756C37.7029 43.6725 37.4189 44.3618 37.4189 45.0644C37.4189 45.7683 37.7029 46.4563 38.1989 46.9532C38.6963 47.4514 39.3829 47.7359 40.0856 47.7359Z" fill="white"/>
</g>
<path fill-rule="evenodd" clip-rule="evenodd" d="M-0.333332 58.9052C0.325418 58.9052 0.969168 58.6385 1.43542 58.1726C1.90042 57.7055 2.16667 57.0606 2.16667 56.4006C2.16667 55.7419 1.90042 55.0958 1.43542 54.6299C0.969168 54.1628 0.325418 53.8961 -0.333332 53.8961C-0.990832 53.8961 -1.63583 54.1628 -2.10083 54.6299C-2.56708 55.0958 -2.83333 55.7419 -2.83333 56.4006C-2.83333 57.0606 -2.56708 57.7055 -2.10083 58.1726C-1.63583 58.6385 -0.990832 58.9052 -0.333332 58.9052Z" fill="white"/>
<path fill-rule="evenodd" clip-rule="evenodd" d="M27.1604 58.9052H27.1729C28.5507 58.9052 29.6667 57.7832 29.6667 56.4006C29.6667 55.0181 28.5507 53.8961 27.1729 53.8961H27.1604C25.7839 53.8961 24.6667 55.0181 24.6667 56.4006C24.6667 57.7832 25.7839 58.9052 27.1604 58.9052Z" fill="white"/>
<path fill-rule="evenodd" clip-rule="evenodd" d="M12.9938 58.9052H13.0062C14.3828 58.9052 15.5 57.7832 15.5 56.4006C15.5 55.0181 14.3828 53.8961 13.0062 53.8961H12.9938C11.6172 53.8961 10.5 55.0181 10.5 56.4006C10.5 57.7832 11.6172 58.9052 12.9938 58.9052Z" fill="white"/>
<mask id="mask21_41_6348" style="mask-type:luminance" maskUnits="userSpaceOnUse" x="37" y="53" width="6" height="6">
<path fill-rule="evenodd" clip-rule="evenodd" d="M37.4189 53.5336H42.752V58.8767H37.4189V53.5336Z" fill="white"/>
</mask>
<g mask="url(#mask21_41_6348)">
<path fill-rule="evenodd" clip-rule="evenodd" d="M40.0856 58.8767C40.7869 58.8767 41.4749 58.5922 41.9709 58.0953C42.4683 57.5971 42.7523 56.9091 42.7523 56.2052C42.7523 55.5026 42.4683 54.8133 41.9709 54.3164C41.4749 53.8182 40.7869 53.5336 40.0856 53.5336C39.3829 53.5336 38.6963 53.8182 38.1989 54.3164C37.7029 54.8133 37.4189 55.5026 37.4189 56.2052C37.4189 56.9091 37.7029 57.5971 38.1989 58.0953C38.6963 58.5922 39.3829 58.8767 40.0856 58.8767Z" fill="white"/>
</g>
<path fill-rule="evenodd" clip-rule="evenodd" d="M-0.333332 68.9235C0.325418 68.9235 0.969168 68.6568 1.43542 68.1897C1.90042 67.7238 2.16667 67.0789 2.16667 66.419C2.16667 65.7602 1.90042 65.1141 1.43542 64.6482C0.969168 64.1811 0.325418 63.9144 -0.333332 63.9144C-0.990832 63.9144 -1.63583 64.1811 -2.10083 64.6482C-2.56708 65.1141 -2.83333 65.7602 -2.83333 66.419C-2.83333 67.0789 -2.56708 67.7238 -2.10083 68.1897C-1.63583 68.6568 -0.990832 68.9235 -0.333332 68.9235Z" fill="white"/>
<path fill-rule="evenodd" clip-rule="evenodd" d="M27.1604 68.9235H27.1729C28.5507 68.9235 29.6667 67.8015 29.6667 66.419C29.6667 65.0364 28.5507 63.9144 27.1729 63.9144H27.1604C25.7839 63.9144 24.6667 65.0364 24.6667 66.419C24.6667 67.8015 25.7839 68.9235 27.1604 68.9235Z" fill="white"/>
<path fill-rule="evenodd" clip-rule="evenodd" d="M12.9938 68.9235H13.0062C14.3828 68.9235 15.5 67.8015 15.5 66.419C15.5 65.0364 14.3828 63.9144 13.0062 63.9144H12.9938C11.6172 63.9144 10.5 65.0364 10.5 66.419C10.5 67.8015 11.6172 68.9235 12.9938 68.9235Z" fill="white"/>
<mask id="mask22_41_6348" style="mask-type:luminance" maskUnits="userSpaceOnUse" x="37" y="63" width="6" height="7">
<path fill-rule="evenodd" clip-rule="evenodd" d="M37.4189 63.8396H42.752V69.1827H37.4189V63.8396Z" fill="white"/>
</mask>
<g mask="url(#mask22_41_6348)">
<path fill-rule="evenodd" clip-rule="evenodd" d="M40.0856 69.1827C40.7869 69.1827 41.4749 68.8982 41.9709 68.4C42.4683 67.903 42.7523 67.2151 42.7523 66.5112C42.7523 65.8085 42.4683 65.1193 41.9709 64.6224C41.4749 64.1241 40.7869 63.8396 40.0856 63.8396C39.3829 63.8396 38.6963 64.1241 38.1989 64.6224C37.7029 65.1193 37.4189 65.8085 37.4189 66.5112C37.4189 67.2151 37.7029 67.903 38.1989 68.4C38.6963 68.8982 39.3829 69.1827 40.0856 69.1827Z" fill="white"/>
</g>
<path fill-rule="evenodd" clip-rule="evenodd" d="M-0.333332 80.6117C0.325418 80.6117 0.969168 80.3449 1.43542 79.8791C1.90042 79.412 2.16667 78.767 2.16667 78.1071C2.16667 77.4484 1.90042 76.8022 1.43542 76.3363C0.969168 75.8692 0.325418 75.6025 -0.333332 75.6025C-0.990832 75.6025 -1.63583 75.8692 -2.10083 76.3363C-2.56708 76.8022 -2.83333 77.4484 -2.83333 78.1071C-2.83333 78.767 -2.56708 79.412 -2.10083 79.8791C-1.63583 80.3449 -0.990832 80.6117 -0.333332 80.6117Z" fill="white"/>
<path fill-rule="evenodd" clip-rule="evenodd" d="M27.1604 80.6117H27.1729C28.5507 80.6117 29.6667 79.4908 29.6667 78.1071C29.6667 76.7245 28.5507 75.6025 27.1729 75.6025H27.1604C25.7839 75.6025 24.6667 76.7245 24.6667 78.1071C24.6667 79.4908 25.7839 80.6117 27.1604 80.6117Z" fill="white"/>
<path fill-rule="evenodd" clip-rule="evenodd" d="M12.9938 80.6117H13.0062C14.3828 80.6117 15.5 79.4908 15.5 78.1071C15.5 76.7245 14.3828 75.6025 13.0062 75.6025H12.9938C11.6172 75.6025 10.5 76.7245 10.5 78.1071C10.5 79.4908 11.6172 80.6117 12.9938 80.6117Z" fill="white"/>
<mask id="mask23_41_6348" style="mask-type:luminance" maskUnits="userSpaceOnUse" x="37" y="75" width="6" height="7">
<path fill-rule="evenodd" clip-rule="evenodd" d="M37.4189 75.8154H42.752V81.1585H37.4189V75.8154Z" fill="white"/>
</mask>
<g mask="url(#mask23_41_6348)">
<path fill-rule="evenodd" clip-rule="evenodd" d="M40.0856 81.1585C40.7869 81.1585 41.4749 80.874 41.9709 80.3771C42.4683 79.8788 42.7523 79.1909 42.7523 78.4869C42.7523 77.7843 42.4683 77.095 41.9709 76.5981C41.4749 76.0999 40.7869 75.8154 40.0856 75.8154C39.3829 75.8154 38.6963 76.0999 38.1989 76.5981C37.7029 77.095 37.4189 77.7843 37.4189 78.4869C37.4189 79.1909 37.7029 79.8788 38.1989 80.3771C38.6963 80.874 39.3829 81.1585 40.0856 81.1585Z" fill="white"/>
</g>
<mask id="mask24_41_6348" style="mask-type:luminance" maskUnits="userSpaceOnUse" x="-4" y="85" width="7" height="6">
<path fill-rule="evenodd" clip-rule="evenodd" d="M-3.3324 85.6211H2.00093V90.63H-3.3324V85.6211Z" fill="white"/>
</mask>
<g mask="url(#mask24_41_6348)">
<path fill-rule="evenodd" clip-rule="evenodd" d="M-0.665735 90.6303C0.036932 90.6303 0.723598 90.3635 1.22093 89.8964C1.71693 89.4306 2.00093 88.7844 2.00093 88.1257C2.00093 87.4657 1.71693 86.8208 1.22093 86.3537C0.723598 85.8878 0.036932 85.6211 -0.665735 85.6211C-1.36707 85.6211 -2.05507 85.8878 -2.55107 86.3537C-3.0484 86.8208 -3.3324 87.4657 -3.3324 88.1257C-3.3324 88.7844 -3.0484 89.4306 -2.55107 89.8964C-2.05507 90.3635 -1.36707 90.6303 -0.665735 90.6303Z" fill="white"/>
</g>
<mask id="mask25_41_6348" style="mask-type:luminance" maskUnits="userSpaceOnUse" x="24" y="85" width="6" height="6">
<path fill-rule="evenodd" clip-rule="evenodd" d="M24.1617 85.6211H29.5084V90.63H24.1617V85.6211Z" fill="white"/>
</mask>
<g mask="url(#mask25_41_6348)">
<path fill-rule="evenodd" clip-rule="evenodd" d="M26.8284 90.6303H26.8417C28.3151 90.6303 29.5084 89.5082 29.5084 88.1257C29.5084 86.7419 28.3151 85.6211 26.8417 85.6211H26.8284C25.3564 85.6211 24.1617 86.7419 24.1617 88.1257C24.1617 89.5082 25.3564 90.6303 26.8284 90.6303Z" fill="white"/>
</g>
<mask id="mask26_41_6348" style="mask-type:luminance" maskUnits="userSpaceOnUse" x="10" y="85" width="6" height="6">
<path fill-rule="evenodd" clip-rule="evenodd" d="M10.4117 85.6211H15.7584V90.63H10.4117V85.6211Z" fill="white"/>
</mask>
<g mask="url(#mask26_41_6348)">
<path fill-rule="evenodd" clip-rule="evenodd" d="M13.0784 90.6303H13.0917C14.5637 90.6303 15.7584 89.5082 15.7584 88.1257C15.7584 86.7419 14.5637 85.6211 13.0917 85.6211H13.0784C11.6064 85.6211 10.4117 86.7419 10.4117 88.1257C10.4117 89.5082 11.6064 90.6303 13.0784 90.6303Z" fill="white"/>
</g>
<mask id="mask27_41_6348" style="mask-type:luminance" maskUnits="userSpaceOnUse" x="37" y="85" width="6" height="6">
<path fill-rule="evenodd" clip-rule="evenodd" d="M37.4189 85.6211H42.752V90.63H37.4189V85.6211Z" fill="white"/>
</mask>
<g mask="url(#mask27_41_6348)">
<path fill-rule="evenodd" clip-rule="evenodd" d="M40.0856 90.6303C40.7869 90.6303 41.4749 90.3635 41.9709 89.8964C42.4683 89.4306 42.7523 88.7844 42.7523 88.1257C42.7523 87.4657 42.4683 86.8208 41.9709 86.3537C41.4749 85.8878 40.7869 85.6211 40.0856 85.6211C39.3829 85.6211 38.6963 85.8878 38.1989 86.3537C37.7029 86.8208 37.4189 87.4657 37.4189 88.1257C37.4189 88.7844 37.7029 89.4306 38.1989 89.8964C38.6963 90.3635 39.3829 90.6303 40.0856 90.6303Z" fill="white"/>
</g>
<path fill-rule="evenodd" clip-rule="evenodd" d="M52.5 112.492C53.1575 112.492 53.8025 112.226 54.2675 111.759C54.7337 111.293 55 110.648 55 109.988C55 109.328 54.7337 108.683 54.2675 108.217C53.8025 107.75 53.1575 107.483 52.5 107.483C51.8412 107.483 51.1975 107.75 50.7312 108.217C50.2662 108.683 50 109.328 50 109.988C50 110.648 50.2662 111.293 50.7312 111.759C51.1975 112.226 51.8412 112.492 52.5 112.492Z" fill="white"/>
<path fill-rule="evenodd" clip-rule="evenodd" d="M79.9938 112.492H80.0062C81.384 112.492 82.5 111.37 82.5 109.988C82.5 108.605 81.384 107.483 80.0062 107.483H79.9938C78.6172 107.483 77.5 108.605 77.5 109.988C77.5 111.37 78.6172 112.492 79.9938 112.492Z" fill="white"/>
<path fill-rule="evenodd" clip-rule="evenodd" d="M65.8271 112.492H65.8396C67.2161 112.492 68.3333 111.37 68.3333 109.988C68.3333 108.605 67.2161 107.483 65.8396 107.483H65.8271C64.4505 107.483 63.3333 108.605 63.3333 109.988C63.3333 111.37 64.4505 112.492 65.8271 112.492Z" fill="white"/>
<path fill-rule="evenodd" clip-rule="evenodd" d="M93.3333 112.492C93.9908 112.492 94.6358 112.226 95.1008 111.759C95.5671 111.293 95.8333 110.648 95.8333 109.988C95.8333 109.328 95.5671 108.683 95.1008 108.217C94.6358 107.75 93.9908 107.483 93.3333 107.483C92.6746 107.483 92.0308 107.75 91.5646 108.217C91.0996 108.683 90.8333 109.328 90.8333 109.988C90.8333 110.648 91.0996 111.293 91.5646 111.759C92.0308 112.226 92.6746 112.492 93.3333 112.492Z" fill="white"/>
<path fill-rule="evenodd" clip-rule="evenodd" d="M106.667 112.492C107.325 112.492 107.969 112.226 108.435 111.759C108.9 111.293 109.167 110.648 109.167 109.988C109.167 109.328 108.9 108.683 108.435 108.217C107.969 107.75 107.325 107.483 106.667 107.483C106.009 107.483 105.364 107.75 104.899 108.217C104.433 108.683 104.167 109.328 104.167 109.988C104.167 110.648 104.433 111.293 104.899 111.759C105.364 112.226 106.009 112.492 106.667 112.492Z" fill="white"/>
<path fill-rule="evenodd" clip-rule="evenodd" d="M134.16 112.492H134.173C135.551 112.492 136.667 111.37 136.667 109.988C136.667 108.605 135.551 107.483 134.173 107.483H134.16C132.784 107.483 131.667 108.605 131.667 109.988C131.667 111.37 132.784 112.492 134.16 112.492Z" fill="white"/>
<path fill-rule="evenodd" clip-rule="evenodd" d="M119.994 112.492H120.006C121.383 112.492 122.5 111.37 122.5 109.988C122.5 108.605 121.383 107.483 120.006 107.483H119.994C118.617 107.483 117.5 108.605 117.5 109.988C117.5 111.37 118.617 112.492 119.994 112.492Z" fill="white"/>
<mask id="mask28_41_6348" style="mask-type:luminance" maskUnits="userSpaceOnUse" x="144" y="107" width="6" height="6">
<path fill-rule="evenodd" clip-rule="evenodd" d="M144.419 107.306H149.752V112.649H144.419V107.306Z" fill="white"/>
</mask>
<g mask="url(#mask28_41_6348)">
<path fill-rule="evenodd" clip-rule="evenodd" d="M147.086 112.649C147.787 112.649 148.475 112.365 148.971 111.866C149.468 111.37 149.752 110.682 149.752 109.978C149.752 109.274 149.468 108.586 148.971 108.089C148.475 107.591 147.787 107.306 147.086 107.306C146.383 107.306 145.696 107.591 145.199 108.089C144.703 108.586 144.419 109.274 144.419 109.978C144.419 110.682 144.703 111.37 145.199 111.866C145.696 112.365 146.383 112.649 147.086 112.649Z" fill="white"/>
</g>
<path fill-rule="evenodd" clip-rule="evenodd" d="M52.5 102.474C53.1575 102.474 53.8025 102.207 54.2675 101.74C54.7337 101.274 55 100.628 55 99.9694C55 99.3095 54.7337 98.6645 54.2675 98.1974C53.8025 97.7316 53.1575 97.4648 52.5 97.4648C51.8412 97.4648 51.1975 97.7316 50.7312 98.1974C50.2662 98.6645 50 99.3095 50 99.9694C50 100.628 50.2662 101.274 50.7312 101.74C51.1975 102.207 51.8412 102.474 52.5 102.474Z" fill="white"/>
<path fill-rule="evenodd" clip-rule="evenodd" d="M79.9938 102.474H80.0062C81.384 102.474 82.5 101.352 82.5 99.9694C82.5 98.5869 81.384 97.4648 80.0062 97.4648H79.9938C78.6172 97.4648 77.5 98.5869 77.5 99.9694C77.5 101.352 78.6172 102.474 79.9938 102.474Z" fill="white"/>
<path fill-rule="evenodd" clip-rule="evenodd" d="M65.8271 102.474H65.8396C67.2161 102.474 68.3333 101.352 68.3333 99.9694C68.3333 98.5869 67.2161 97.4648 65.8396 97.4648H65.8271C64.4505 97.4648 63.3333 98.5869 63.3333 99.9694C63.3333 101.352 64.4505 102.474 65.8271 102.474Z" fill="white"/>
<path fill-rule="evenodd" clip-rule="evenodd" d="M93.3333 102.474C93.9908 102.474 94.6358 102.207 95.1008 101.74C95.5671 101.274 95.8333 100.628 95.8333 99.9694C95.8333 99.3095 95.5671 98.6645 95.1008 98.1974C94.6358 97.7316 93.9908 97.4648 93.3333 97.4648C92.6746 97.4648 92.0308 97.7316 91.5646 98.1974C91.0996 98.6645 90.8333 99.3095 90.8333 99.9694C90.8333 100.628 91.0996 101.274 91.5646 101.74C92.0308 102.207 92.6746 102.474 93.3333 102.474Z" fill="white"/>
<path fill-rule="evenodd" clip-rule="evenodd" d="M106.667 102.474C107.325 102.474 107.969 102.207 108.435 101.74C108.9 101.274 109.167 100.628 109.167 99.9694C109.167 99.3095 108.9 98.6645 108.435 98.1974C107.969 97.7316 107.325 97.4648 106.667 97.4648C106.009 97.4648 105.364 97.7316 104.899 98.1974C104.433 98.6645 104.167 99.3095 104.167 99.9694C104.167 100.628 104.433 101.274 104.899 101.74C105.364 102.207 106.009 102.474 106.667 102.474Z" fill="white"/>
<path fill-rule="evenodd" clip-rule="evenodd" d="M134.16 102.474H134.173C135.551 102.474 136.667 101.352 136.667 99.9694C136.667 98.5869 135.551 97.4648 134.173 97.4648H134.16C132.784 97.4648 131.667 98.5869 131.667 99.9694C131.667 101.352 132.784 102.474 134.16 102.474Z" fill="white"/>
<path fill-rule="evenodd" clip-rule="evenodd" d="M119.994 102.474H120.006C121.383 102.474 122.5 101.352 122.5 99.9694C122.5 98.5869 121.383 97.4648 120.006 97.4648H119.994C118.617 97.4648 117.5 98.5869 117.5 99.9694C117.5 101.352 118.617 102.474 119.994 102.474Z" fill="white"/>
<mask id="mask29_41_6348" style="mask-type:luminance" maskUnits="userSpaceOnUse" x="144" y="97" width="6" height="6">
<path fill-rule="evenodd" clip-rule="evenodd" d="M144.419 97H149.752V102.343H144.419V97Z" fill="white"/>
</mask>
<g mask="url(#mask29_41_6348)">
<path fill-rule="evenodd" clip-rule="evenodd" d="M147.086 102.343C147.787 102.343 148.475 102.059 148.971 101.56C149.468 101.063 149.752 100.374 149.752 99.6716C149.752 98.9676 149.468 98.2797 148.971 97.7814C148.475 97.2845 147.787 97 147.086 97C146.383 97 145.696 97.2845 145.199 97.7814C144.703 98.2797 144.419 98.9676 144.419 99.6716C144.419 100.374 144.703 101.063 145.199 101.56C145.696 102.059 146.383 102.343 147.086 102.343Z" fill="white"/>
</g>
<path fill-rule="evenodd" clip-rule="evenodd" d="M52.5 124.18C53.1575 124.18 53.8025 123.914 54.2675 123.447C54.7337 122.981 55 122.336 55 121.676C55 121.017 54.7337 120.371 54.2675 119.905C53.8025 119.438 53.1575 119.171 52.5 119.171C51.8412 119.171 51.1975 119.438 50.7312 119.905C50.2662 120.371 50 121.017 50 121.676C50 122.336 50.2662 122.981 50.7312 123.447C51.1975 123.914 51.8412 124.18 52.5 124.18Z" fill="white"/>
<path fill-rule="evenodd" clip-rule="evenodd" d="M79.9938 124.18H80.0062C81.384 124.18 82.5 123.058 82.5 121.676C82.5 120.293 81.384 119.171 80.0062 119.171H79.9938C78.6172 119.171 77.5 120.293 77.5 121.676C77.5 123.058 78.6172 124.18 79.9938 124.18Z" fill="white"/>
<path fill-rule="evenodd" clip-rule="evenodd" d="M65.8271 124.18H65.8396C67.2161 124.18 68.3333 123.058 68.3333 121.676C68.3333 120.293 67.2161 119.171 65.8396 119.171H65.8271C64.4505 119.171 63.3333 120.293 63.3333 121.676C63.3333 123.058 64.4505 124.18 65.8271 124.18Z" fill="white"/>
<path fill-rule="evenodd" clip-rule="evenodd" d="M93.3333 124.18C93.9908 124.18 94.6358 123.914 95.1008 123.447C95.5671 122.981 95.8333 122.336 95.8333 121.676C95.8333 121.017 95.5671 120.371 95.1008 119.905C94.6358 119.438 93.9908 119.171 93.3333 119.171C92.6746 119.171 92.0308 119.438 91.5646 119.905C91.0996 120.371 90.8333 121.017 90.8333 121.676C90.8333 122.336 91.0996 122.981 91.5646 123.447C92.0308 123.914 92.6746 124.18 93.3333 124.18Z" fill="white"/>
<path fill-rule="evenodd" clip-rule="evenodd" d="M106.667 124.18C107.325 124.18 107.969 123.914 108.435 123.447C108.9 122.981 109.167 122.336 109.167 121.676C109.167 121.017 108.9 120.371 108.435 119.905C107.969 119.438 107.325 119.171 106.667 119.171C106.009 119.171 105.364 119.438 104.899 119.905C104.433 120.371 104.167 121.017 104.167 121.676C104.167 122.336 104.433 122.981 104.899 123.447C105.364 123.914 106.009 124.18 106.667 124.18Z" fill="white"/>
<path fill-rule="evenodd" clip-rule="evenodd" d="M134.16 124.18H134.173C135.551 124.18 136.667 123.058 136.667 121.676C136.667 120.293 135.551 119.171 134.173 119.171H134.16C132.784 119.171 131.667 120.293 131.667 121.676C131.667 123.058 132.784 124.18 134.16 124.18Z" fill="white"/>
<path fill-rule="evenodd" clip-rule="evenodd" d="M119.994 124.18H120.006C121.383 124.18 122.5 123.058 122.5 121.676C122.5 120.293 121.383 119.171 120.006 119.171H119.994C118.617 119.171 117.5 120.293 117.5 121.676C117.5 123.058 118.617 124.18 119.994 124.18Z" fill="white"/>
<mask id="mask30_41_6348" style="mask-type:luminance" maskUnits="userSpaceOnUse" x="144" y="119" width="6" height="6">
<path fill-rule="evenodd" clip-rule="evenodd" d="M144.419 119.282H149.752V124.625H144.419V119.282Z" fill="white"/>
</mask>
<g mask="url(#mask30_41_6348)">
<path fill-rule="evenodd" clip-rule="evenodd" d="M147.086 124.625C147.787 124.625 148.475 124.34 148.971 123.842C149.468 123.345 149.752 122.657 149.752 121.953C149.752 121.251 149.468 120.561 148.971 120.065C148.475 119.566 147.787 119.282 147.086 119.282C146.383 119.282 145.696 119.566 145.199 120.065C144.703 120.561 144.419 121.251 144.419 121.953C144.419 122.657 144.703 123.345 145.199 123.842C145.696 124.34 146.383 124.625 147.086 124.625Z" fill="white"/>
</g>
<path fill-rule="evenodd" clip-rule="evenodd" d="M52.5 134.199C53.1575 134.199 53.8025 133.932 54.2675 133.465C54.7337 132.999 55 132.354 55 131.694C55 131.034 54.7337 130.389 54.2675 129.923C53.8025 129.456 53.1575 129.19 52.5 129.19C51.8412 129.19 51.1975 129.456 50.7312 129.923C50.2662 130.389 50 131.034 50 131.694C50 132.354 50.2662 132.999 50.7312 133.465C51.1975 133.932 51.8412 134.199 52.5 134.199Z" fill="white"/>
<path fill-rule="evenodd" clip-rule="evenodd" d="M79.9938 134.199H80.0062C81.384 134.199 82.5 133.077 82.5 131.694C82.5 130.312 81.384 129.19 80.0062 129.19H79.9938C78.6172 129.19 77.5 130.312 77.5 131.694C77.5 133.077 78.6172 134.199 79.9938 134.199Z" fill="white"/>
<path fill-rule="evenodd" clip-rule="evenodd" d="M65.8271 134.199H65.8396C67.2161 134.199 68.3333 133.077 68.3333 131.694C68.3333 130.312 67.2161 129.19 65.8396 129.19H65.8271C64.4505 129.19 63.3333 130.312 63.3333 131.694C63.3333 133.077 64.4505 134.199 65.8271 134.199Z" fill="white"/>
<path fill-rule="evenodd" clip-rule="evenodd" d="M93.3333 134.199C93.9908 134.199 94.6358 133.932 95.1008 133.465C95.5671 132.999 95.8333 132.354 95.8333 131.694C95.8333 131.034 95.5671 130.389 95.1008 129.923C94.6358 129.456 93.9908 129.19 93.3333 129.19C92.6746 129.19 92.0308 129.456 91.5646 129.923C91.0996 130.389 90.8333 131.034 90.8333 131.694C90.8333 132.354 91.0996 132.999 91.5646 133.465C92.0308 133.932 92.6746 134.199 93.3333 134.199Z" fill="white"/>
<path fill-rule="evenodd" clip-rule="evenodd" d="M106.667 134.199C107.325 134.199 107.969 133.932 108.435 133.465C108.9 132.999 109.167 132.354 109.167 131.694C109.167 131.034 108.9 130.389 108.435 129.923C107.969 129.456 107.325 129.19 106.667 129.19C106.009 129.19 105.364 129.456 104.899 129.923C104.433 130.389 104.167 131.034 104.167 131.694C104.167 132.354 104.433 132.999 104.899 133.465C105.364 133.932 106.009 134.199 106.667 134.199Z" fill="white"/>
<path fill-rule="evenodd" clip-rule="evenodd" d="M134.16 134.199H134.173C135.551 134.199 136.667 133.077 136.667 131.694C136.667 130.312 135.551 129.19 134.173 129.19H134.16C132.784 129.19 131.667 130.312 131.667 131.694C131.667 133.077 132.784 134.199 134.16 134.199Z" fill="white"/>
<path fill-rule="evenodd" clip-rule="evenodd" d="M119.994 134.199H120.006C121.383 134.199 122.5 133.077 122.5 131.694C122.5 130.312 121.383 129.19 120.006 129.19H119.994C118.617 129.19 117.5 130.312 117.5 131.694C117.5 133.077 118.617 134.199 119.994 134.199Z" fill="white"/>
<mask id="mask31_41_6348" style="mask-type:luminance" maskUnits="userSpaceOnUse" x="144" y="129" width="6" height="6">
<path fill-rule="evenodd" clip-rule="evenodd" d="M144.419 129.588H149.752V134.931H144.419V129.588Z" fill="white"/>
</mask>
<g mask="url(#mask31_41_6348)">
<path fill-rule="evenodd" clip-rule="evenodd" d="M147.086 134.931C147.787 134.931 148.475 134.646 148.971 134.148C149.468 133.651 149.752 132.963 149.752 132.259C149.752 131.555 149.468 130.867 148.971 130.37C148.475 129.872 147.787 129.588 147.086 129.588C146.383 129.588 145.696 129.872 145.199 130.37C144.703 130.867 144.419 131.555 144.419 132.259C144.419 132.963 144.703 133.651 145.199 134.148C145.696 134.646 146.383 134.931 147.086 134.931Z" fill="white"/>
</g>
<path fill-rule="evenodd" clip-rule="evenodd" d="M52.5 145.052C53.1575 145.052 53.8025 144.785 54.2675 144.318C54.7337 143.852 55 143.207 55 142.547C55 141.889 54.7337 141.243 54.2675 140.777C53.8025 140.31 53.1575 140.043 52.5 140.043C51.8412 140.043 51.1975 140.31 50.7312 140.777C50.2662 141.243 50 141.889 50 142.547C50 143.207 50.2662 143.852 50.7312 144.318C51.1975 144.785 51.8412 145.052 52.5 145.052Z" fill="white"/>
<path fill-rule="evenodd" clip-rule="evenodd" d="M79.9938 145.052H80.0062C81.384 145.052 82.5 143.93 82.5 142.547C82.5 141.165 81.384 140.043 80.0062 140.043H79.9938C78.6172 140.043 77.5 141.165 77.5 142.547C77.5 143.93 78.6172 145.052 79.9938 145.052Z" fill="white"/>
<path fill-rule="evenodd" clip-rule="evenodd" d="M65.8271 145.052H65.8396C67.2161 145.052 68.3333 143.93 68.3333 142.547C68.3333 141.165 67.2161 140.043 65.8396 140.043H65.8271C64.4505 140.043 63.3333 141.165 63.3333 142.547C63.3333 143.93 64.4505 145.052 65.8271 145.052Z" fill="white"/>
<path fill-rule="evenodd" clip-rule="evenodd" d="M93.3333 145.052C93.9908 145.052 94.6358 144.785 95.1008 144.318C95.5671 143.852 95.8333 143.207 95.8333 142.547C95.8333 141.889 95.5671 141.243 95.1008 140.777C94.6358 140.31 93.9908 140.043 93.3333 140.043C92.6746 140.043 92.0308 140.31 91.5646 140.777C91.0996 141.243 90.8333 141.889 90.8333 142.547C90.8333 143.207 91.0996 143.852 91.5646 144.318C92.0308 144.785 92.6746 145.052 93.3333 145.052Z" fill="white"/>
<path fill-rule="evenodd" clip-rule="evenodd" d="M106.667 145.052C107.325 145.052 107.969 144.785 108.435 144.318C108.9 143.852 109.167 143.207 109.167 142.547C109.167 141.889 108.9 141.243 108.435 140.777C107.969 140.31 107.325 140.043 106.667 140.043C106.009 140.043 105.364 140.31 104.899 140.777C104.433 141.243 104.167 141.889 104.167 142.547C104.167 143.207 104.433 143.852 104.899 144.318C105.364 144.785 106.009 145.052 106.667 145.052Z" fill="white"/>
<path fill-rule="evenodd" clip-rule="evenodd" d="M134.16 145.052H134.173C135.551 145.052 136.667 143.93 136.667 142.547C136.667 141.165 135.551 140.043 134.173 140.043H134.16C132.784 140.043 131.667 141.165 131.667 142.547C131.667 143.93 132.784 145.052 134.16 145.052Z" fill="white"/>
<path fill-rule="evenodd" clip-rule="evenodd" d="M119.994 145.052H120.006C121.383 145.052 122.5 143.93 122.5 142.547C122.5 141.165 121.383 140.043 120.006 140.043H119.994C118.617 140.043 117.5 141.165 117.5 142.547C117.5 143.93 118.617 145.052 119.994 145.052Z" fill="white"/>
<mask id="mask32_41_6348" style="mask-type:luminance" maskUnits="userSpaceOnUse" x="144" y="139" width="6" height="6">
<path fill-rule="evenodd" clip-rule="evenodd" d="M144.419 139.393H149.752V144.736H144.419V139.393Z" fill="white"/>
</mask>
<g mask="url(#mask32_41_6348)">
<path fill-rule="evenodd" clip-rule="evenodd" d="M147.086 144.736C147.787 144.736 148.475 144.451 148.971 143.953C149.468 143.456 149.752 142.768 149.752 142.064C149.752 141.362 149.468 140.672 148.971 140.176C148.475 139.677 147.787 139.393 147.086 139.393C146.383 139.393 145.696 139.677 145.199 140.176C144.703 140.672 144.419 141.362 144.419 142.064C144.419 142.768 144.703 143.456 145.199 143.953C145.696 144.451 146.383 144.736 147.086 144.736Z" fill="white"/>
</g>
<path fill-rule="evenodd" clip-rule="evenodd" d="M52.5 155.905C53.1575 155.905 53.8025 155.638 54.2675 155.173C54.7337 154.706 55 154.061 55 153.401C55 152.742 54.7337 152.096 54.2675 151.63C53.8025 151.163 53.1575 150.896 52.5 150.896C51.8412 150.896 51.1975 151.163 50.7312 151.63C50.2662 152.096 50 152.742 50 153.401C50 154.061 50.2662 154.706 50.7312 155.173C51.1975 155.638 51.8412 155.905 52.5 155.905Z" fill="white"/>
<path fill-rule="evenodd" clip-rule="evenodd" d="M79.9938 155.905H80.0062C81.384 155.905 82.5 154.783 82.5 153.401C82.5 152.018 81.384 150.896 80.0062 150.896H79.9938C78.6172 150.896 77.5 152.018 77.5 153.401C77.5 154.783 78.6172 155.905 79.9938 155.905Z" fill="white"/>
<path fill-rule="evenodd" clip-rule="evenodd" d="M65.8271 155.905H65.8396C67.2161 155.905 68.3333 154.783 68.3333 153.401C68.3333 152.018 67.2161 150.896 65.8396 150.896H65.8271C64.4505 150.896 63.3333 152.018 63.3333 153.401C63.3333 154.783 64.4505 155.905 65.8271 155.905Z" fill="white"/>
<path fill-rule="evenodd" clip-rule="evenodd" d="M93.3333 155.905C93.9908 155.905 94.6358 155.638 95.1008 155.173C95.5671 154.706 95.8333 154.061 95.8333 153.401C95.8333 152.742 95.5671 152.096 95.1008 151.63C94.6358 151.163 93.9908 150.896 93.3333 150.896C92.6746 150.896 92.0308 151.163 91.5646 151.63C91.0996 152.096 90.8333 152.742 90.8333 153.401C90.8333 154.061 91.0996 154.706 91.5646 155.173C92.0308 155.638 92.6746 155.905 93.3333 155.905Z" fill="white"/>
<path fill-rule="evenodd" clip-rule="evenodd" d="M106.667 155.905C107.325 155.905 107.969 155.638 108.435 155.173C108.9 154.706 109.167 154.061 109.167 153.401C109.167 152.742 108.9 152.096 108.435 151.63C107.969 151.163 107.325 150.896 106.667 150.896C106.009 150.896 105.364 151.163 104.899 151.63C104.433 152.096 104.167 152.742 104.167 153.401C104.167 154.061 104.433 154.706 104.899 155.173C105.364 155.638 106.009 155.905 106.667 155.905Z" fill="white"/>
<path fill-rule="evenodd" clip-rule="evenodd" d="M134.16 155.905H134.173C135.551 155.905 136.667 154.783 136.667 153.401C136.667 152.018 135.551 150.896 134.173 150.896H134.16C132.784 150.896 131.667 152.018 131.667 153.401C131.667 154.783 132.784 155.905 134.16 155.905Z" fill="white"/>
<path fill-rule="evenodd" clip-rule="evenodd" d="M119.994 155.905H120.006C121.383 155.905 122.5 154.783 122.5 153.401C122.5 152.018 121.383 150.896 120.006 150.896H119.994C118.617 150.896 117.5 152.018 117.5 153.401C117.5 154.783 118.617 155.905 119.994 155.905Z" fill="white"/>
<mask id="mask33_41_6348" style="mask-type:luminance" maskUnits="userSpaceOnUse" x="144" y="150" width="6" height="6">
<path fill-rule="evenodd" clip-rule="evenodd" d="M144.419 150.534H149.752V155.877H144.419V150.534Z" fill="white"/>
</mask>
<g mask="url(#mask33_41_6348)">
<path fill-rule="evenodd" clip-rule="evenodd" d="M147.086 155.877C147.787 155.877 148.475 155.592 148.971 155.095C149.468 154.597 149.752 153.909 149.752 153.205C149.752 152.503 149.468 151.813 148.971 151.316C148.475 150.818 147.787 150.534 147.086 150.534C146.383 150.534 145.696 150.818 145.199 151.316C144.703 151.813 144.419 152.503 144.419 153.205C144.419 153.909 144.703 154.597 145.199 155.095C145.696 155.592 146.383 155.877 147.086 155.877Z" fill="white"/>
</g>
<path fill-rule="evenodd" clip-rule="evenodd" d="M52.5 165.924C53.1575 165.924 53.8025 165.657 54.2675 165.19C54.7337 164.724 55 164.079 55 163.419C55 162.76 54.7337 162.114 54.2675 161.648C53.8025 161.181 53.1575 160.914 52.5 160.914C51.8412 160.914 51.1975 161.181 50.7312 161.648C50.2662 162.114 50 162.76 50 163.419C50 164.079 50.2662 164.724 50.7312 165.19C51.1975 165.657 51.8412 165.924 52.5 165.924Z" fill="white"/>
<path fill-rule="evenodd" clip-rule="evenodd" d="M79.9938 165.924H80.0062C81.384 165.924 82.5 164.801 82.5 163.419C82.5 162.036 81.384 160.914 80.0062 160.914H79.9938C78.6172 160.914 77.5 162.036 77.5 163.419C77.5 164.801 78.6172 165.924 79.9938 165.924Z" fill="white"/>
<path fill-rule="evenodd" clip-rule="evenodd" d="M65.8271 165.924H65.8396C67.2161 165.924 68.3333 164.801 68.3333 163.419C68.3333 162.036 67.2161 160.914 65.8396 160.914H65.8271C64.4505 160.914 63.3333 162.036 63.3333 163.419C63.3333 164.801 64.4505 165.924 65.8271 165.924Z" fill="white"/>
<path fill-rule="evenodd" clip-rule="evenodd" d="M93.3333 165.924C93.9908 165.924 94.6358 165.657 95.1008 165.19C95.5671 164.724 95.8333 164.079 95.8333 163.419C95.8333 162.76 95.5671 162.114 95.1008 161.648C94.6358 161.181 93.9908 160.914 93.3333 160.914C92.6746 160.914 92.0308 161.181 91.5646 161.648C91.0996 162.114 90.8333 162.76 90.8333 163.419C90.8333 164.079 91.0996 164.724 91.5646 165.19C92.0308 165.657 92.6746 165.924 93.3333 165.924Z" fill="white"/>
<path fill-rule="evenodd" clip-rule="evenodd" d="M106.667 165.924C107.325 165.924 107.969 165.657 108.435 165.19C108.9 164.724 109.167 164.079 109.167 163.419C109.167 162.76 108.9 162.114 108.435 161.648C107.969 161.181 107.325 160.914 106.667 160.914C106.009 160.914 105.364 161.181 104.899 161.648C104.433 162.114 104.167 162.76 104.167 163.419C104.167 164.079 104.433 164.724 104.899 165.19C105.364 165.657 106.009 165.924 106.667 165.924Z" fill="white"/>
<path fill-rule="evenodd" clip-rule="evenodd" d="M134.16 165.924H134.173C135.551 165.924 136.667 164.801 136.667 163.419C136.667 162.036 135.551 160.914 134.173 160.914H134.16C132.784 160.914 131.667 162.036 131.667 163.419C131.667 164.801 132.784 165.924 134.16 165.924Z" fill="white"/>
<path fill-rule="evenodd" clip-rule="evenodd" d="M119.994 165.924H120.006C121.383 165.924 122.5 164.801 122.5 163.419C122.5 162.036 121.383 160.914 120.006 160.914H119.994C118.617 160.914 117.5 162.036 117.5 163.419C117.5 164.801 118.617 165.924 119.994 165.924Z" fill="white"/>
<mask id="mask34_41_6348" style="mask-type:luminance" maskUnits="userSpaceOnUse" x="144" y="160" width="6" height="7">
<path fill-rule="evenodd" clip-rule="evenodd" d="M144.419 160.84H149.752V166.183H144.419V160.84Z" fill="white"/>
</mask>
<g mask="url(#mask34_41_6348)">
<path fill-rule="evenodd" clip-rule="evenodd" d="M147.086 166.183C147.787 166.183 148.475 165.898 148.971 165.4C149.468 164.903 149.752 164.215 149.752 163.511C149.752 162.809 149.468 162.119 148.971 161.622C148.475 161.124 147.787 160.84 147.086 160.84C146.383 160.84 145.696 161.124 145.199 161.622C144.703 162.119 144.419 162.809 144.419 163.511C144.419 164.215 144.703 164.903 145.199 165.4C145.696 165.898 146.383 166.183 147.086 166.183Z" fill="white"/>
</g>
<path fill-rule="evenodd" clip-rule="evenodd" d="M52.5 177.612C53.1575 177.612 53.8025 177.345 54.2675 176.879C54.7337 176.412 55 175.767 55 175.107C55 174.448 54.7337 173.802 54.2675 173.336C53.8025 172.869 53.1575 172.602 52.5 172.602C51.8412 172.602 51.1975 172.869 50.7312 173.336C50.2662 173.802 50 174.448 50 175.107C50 175.767 50.2662 176.412 50.7312 176.879C51.1975 177.345 51.8412 177.612 52.5 177.612Z" fill="white"/>
<path fill-rule="evenodd" clip-rule="evenodd" d="M79.9938 177.612H80.0062C81.384 177.612 82.5 176.491 82.5 175.107C82.5 173.725 81.384 172.602 80.0062 172.602H79.9938C78.6172 172.602 77.5 173.725 77.5 175.107C77.5 176.491 78.6172 177.612 79.9938 177.612Z" fill="white"/>
<path fill-rule="evenodd" clip-rule="evenodd" d="M65.8271 177.612H65.8396C67.2161 177.612 68.3333 176.491 68.3333 175.107C68.3333 173.725 67.2161 172.602 65.8396 172.602H65.8271C64.4505 172.602 63.3333 173.725 63.3333 175.107C63.3333 176.491 64.4505 177.612 65.8271 177.612Z" fill="white"/>
<path fill-rule="evenodd" clip-rule="evenodd" d="M93.3333 177.612C93.9908 177.612 94.6358 177.345 95.1008 176.879C95.5671 176.412 95.8333 175.767 95.8333 175.107C95.8333 174.448 95.5671 173.802 95.1008 173.336C94.6358 172.869 93.9908 172.602 93.3333 172.602C92.6746 172.602 92.0308 172.869 91.5646 173.336C91.0996 173.802 90.8333 174.448 90.8333 175.107C90.8333 175.767 91.0996 176.412 91.5646 176.879C92.0308 177.345 92.6746 177.612 93.3333 177.612Z" fill="white"/>
<path fill-rule="evenodd" clip-rule="evenodd" d="M106.667 177.612C107.325 177.612 107.969 177.345 108.435 176.879C108.9 176.412 109.167 175.767 109.167 175.107C109.167 174.448 108.9 173.802 108.435 173.336C107.969 172.869 107.325 172.602 106.667 172.602C106.009 172.602 105.364 172.869 104.899 173.336C104.433 173.802 104.167 174.448 104.167 175.107C104.167 175.767 104.433 176.412 104.899 176.879C105.364 177.345 106.009 177.612 106.667 177.612Z" fill="white"/>
<path fill-rule="evenodd" clip-rule="evenodd" d="M134.16 177.612H134.173C135.551 177.612 136.667 176.491 136.667 175.107C136.667 173.725 135.551 172.602 134.173 172.602H134.16C132.784 172.602 131.667 173.725 131.667 175.107C131.667 176.491 132.784 177.612 134.16 177.612Z" fill="white"/>
<path fill-rule="evenodd" clip-rule="evenodd" d="M119.994 177.612H120.006C121.383 177.612 122.5 176.491 122.5 175.107C122.5 173.725 121.383 172.602 120.006 172.602H119.994C118.617 172.602 117.5 173.725 117.5 175.107C117.5 176.491 118.617 177.612 119.994 177.612Z" fill="white"/>
<mask id="mask35_41_6348" style="mask-type:luminance" maskUnits="userSpaceOnUse" x="144" y="172" width="6" height="7">
<path fill-rule="evenodd" clip-rule="evenodd" d="M144.419 172.815H149.752V178.158H144.419V172.815Z" fill="white"/>
</mask>
<g mask="url(#mask35_41_6348)">
<path fill-rule="evenodd" clip-rule="evenodd" d="M147.086 178.158C147.787 178.158 148.475 177.874 148.971 177.377C149.468 176.879 149.752 176.191 149.752 175.487C149.752 174.784 149.468 174.095 148.971 173.598C148.475 173.1 147.787 172.815 147.086 172.815C146.383 172.815 145.696 173.1 145.199 173.598C144.703 174.095 144.419 174.784 144.419 175.487C144.419 176.191 144.703 176.879 145.199 177.377C145.696 177.874 146.383 178.158 147.086 178.158Z" fill="white"/>
</g>
<mask id="mask36_41_6348" style="mask-type:luminance" maskUnits="userSpaceOnUse" x="50" y="182" width="6" height="6">
<path fill-rule="evenodd" clip-rule="evenodd" d="M50.0003 182.621H55.0003V187.63H50.0003V182.621Z" fill="white"/>
</mask>
<g mask="url(#mask36_41_6348)">
<path fill-rule="evenodd" clip-rule="evenodd" d="M52.5003 187.63C53.1578 187.63 53.8028 187.364 54.2678 186.896C54.734 186.431 55.0003 185.784 55.0003 185.126C55.0003 184.466 54.734 183.821 54.2678 183.354C53.8028 182.888 53.1578 182.621 52.5003 182.621C51.8415 182.621 51.1978 182.888 50.7315 183.354C50.2665 183.821 50.0003 184.466 50.0003 185.126C50.0003 185.784 50.2665 186.431 50.7315 186.896C51.1978 187.364 51.8415 187.63 52.5003 187.63Z" fill="white"/>
</g>
<mask id="mask37_41_6348" style="mask-type:luminance" maskUnits="userSpaceOnUse" x="77" y="182" width="6" height="6">
<path fill-rule="evenodd" clip-rule="evenodd" d="M77.4937 182.621H82.8404V187.63H77.4937V182.621Z" fill="white"/>
</mask>
<g mask="url(#mask37_41_6348)">
<path fill-rule="evenodd" clip-rule="evenodd" d="M80.1604 187.63H80.1737C81.6471 187.63 82.8404 186.508 82.8404 185.126C82.8404 183.742 81.6471 182.621 80.1737 182.621H80.1604C78.6884 182.621 77.4937 183.742 77.4937 185.126C77.4937 186.508 78.6884 187.63 80.1604 187.63Z" fill="white"/>
</g>
<mask id="mask38_41_6348" style="mask-type:luminance" maskUnits="userSpaceOnUse" x="62" y="182" width="7" height="6">
<path fill-rule="evenodd" clip-rule="evenodd" d="M62.9104 182.621H68.2571V187.63H62.9104V182.621Z" fill="white"/>
</mask>
<g mask="url(#mask38_41_6348)">
<path fill-rule="evenodd" clip-rule="evenodd" d="M65.5771 187.63H65.5904C67.0624 187.63 68.2571 186.508 68.2571 185.126C68.2571 183.742 67.0624 182.621 65.5904 182.621H65.5771C64.1051 182.621 62.9104 183.742 62.9104 185.126C62.9104 186.508 64.1051 187.63 65.5771 187.63Z" fill="white"/>
</g>
<mask id="mask39_41_6348" style="mask-type:luminance" maskUnits="userSpaceOnUse" x="90" y="182" width="6" height="6">
<path fill-rule="evenodd" clip-rule="evenodd" d="M90.4176 182.621H95.7509V187.63H90.4176V182.621Z" fill="white"/>
</mask>
<g mask="url(#mask39_41_6348)">
<path fill-rule="evenodd" clip-rule="evenodd" d="M93.0843 187.63C93.7856 187.63 94.4736 187.364 94.9696 186.896C95.4669 186.431 95.7509 185.784 95.7509 185.126C95.7509 184.466 95.4669 183.821 94.9696 183.354C94.4736 182.888 93.7856 182.621 93.0843 182.621C92.3816 182.621 91.6949 182.888 91.1976 183.354C90.7016 183.821 90.4176 184.466 90.4176 185.126C90.4176 185.784 90.7016 186.431 91.1976 186.896C91.6949 187.364 92.3816 187.63 93.0843 187.63Z" fill="white"/>
</g>
<mask id="mask40_41_6348" style="mask-type:luminance" maskUnits="userSpaceOnUse" x="103" y="182" width="7" height="6">
<path fill-rule="evenodd" clip-rule="evenodd" d="M103.668 182.621H109.001V187.63H103.668V182.621Z" fill="white"/>
</mask>
<g mask="url(#mask40_41_6348)">
<path fill-rule="evenodd" clip-rule="evenodd" d="M106.334 187.63C107.037 187.63 107.724 187.364 108.221 186.896C108.717 186.431 109.001 185.784 109.001 185.126C109.001 184.466 108.717 183.821 108.221 183.354C107.724 182.888 107.037 182.621 106.334 182.621C105.633 182.621 104.945 182.888 104.449 183.354C103.952 183.821 103.668 184.466 103.668 185.126C103.668 185.784 103.952 186.431 104.449 186.896C104.945 187.364 105.633 187.63 106.334 187.63Z" fill="white"/>
</g>
<mask id="mask41_41_6348" style="mask-type:luminance" maskUnits="userSpaceOnUse" x="131" y="182" width="6" height="6">
<path fill-rule="evenodd" clip-rule="evenodd" d="M131.162 182.621H136.508V187.63H131.162V182.621Z" fill="white"/>
</mask>
<g mask="url(#mask41_41_6348)">
<path fill-rule="evenodd" clip-rule="evenodd" d="M133.828 187.63H133.842C135.315 187.63 136.508 186.508 136.508 185.126C136.508 183.742 135.315 182.621 133.842 182.621H133.828C132.356 182.621 131.162 183.742 131.162 185.126C131.162 186.508 132.356 187.63 133.828 187.63Z" fill="white"/>
</g>
<mask id="mask42_41_6348" style="mask-type:luminance" maskUnits="userSpaceOnUse" x="117" y="182" width="6" height="6">
<path fill-rule="evenodd" clip-rule="evenodd" d="M117.412 182.621H122.758V187.63H117.412V182.621Z" fill="white"/>
</mask>
<g mask="url(#mask42_41_6348)">
<path fill-rule="evenodd" clip-rule="evenodd" d="M120.078 187.63H120.092C121.564 187.63 122.758 186.508 122.758 185.126C122.758 183.742 121.564 182.621 120.092 182.621H120.078C118.606 182.621 117.412 183.742 117.412 185.126C117.412 186.508 118.606 187.63 120.078 187.63Z" fill="white"/>
</g>
<mask id="mask43_41_6348" style="mask-type:luminance" maskUnits="userSpaceOnUse" x="144" y="182" width="6" height="6">
<path fill-rule="evenodd" clip-rule="evenodd" d="M144.419 182.621H149.752V187.63H144.419V182.621Z" fill="white"/>
</mask>
<g mask="url(#mask43_41_6348)">
<path fill-rule="evenodd" clip-rule="evenodd" d="M147.086 187.63C147.787 187.63 148.475 187.364 148.971 186.896C149.468 186.431 149.752 185.784 149.752 185.126C149.752 184.466 149.468 183.821 148.971 183.354C148.475 182.888 147.787 182.621 147.086 182.621C146.383 182.621 145.696 182.888 145.199 183.354C144.703 183.821 144.419 184.466 144.419 185.126C144.419 185.784 144.703 186.431 145.199 186.896C145.696 187.364 146.383 187.63 147.086 187.63Z" fill="white"/>
</g>
<path fill-rule="evenodd" clip-rule="evenodd" d="M-0.333332 112.492C0.325418 112.492 0.969168 112.226 1.43542 111.759C1.90042 111.293 2.16667 110.648 2.16667 109.988C2.16667 109.328 1.90042 108.683 1.43542 108.217C0.969168 107.75 0.325418 107.483 -0.333332 107.483C-0.990832 107.483 -1.63583 107.75 -2.10083 108.217C-2.56708 108.683 -2.83333 109.328 -2.83333 109.988C-2.83333 110.648 -2.56708 111.293 -2.10083 111.759C-1.63583 112.226 -0.990832 112.492 -0.333332 112.492Z" fill="white"/>
<path fill-rule="evenodd" clip-rule="evenodd" d="M27.1604 112.492H27.1729C28.5507 112.492 29.6667 111.37 29.6667 109.988C29.6667 108.605 28.5507 107.483 27.1729 107.483H27.1604C25.7839 107.483 24.6667 108.605 24.6667 109.988C24.6667 111.37 25.7839 112.492 27.1604 112.492Z" fill="white"/>
<path fill-rule="evenodd" clip-rule="evenodd" d="M12.9938 112.492H13.0062C14.3828 112.492 15.5 111.37 15.5 109.988C15.5 108.605 14.3828 107.483 13.0062 107.483H12.9938C11.6172 107.483 10.5 108.605 10.5 109.988C10.5 111.37 11.6172 112.492 12.9938 112.492Z" fill="white"/>
<mask id="mask44_41_6348" style="mask-type:luminance" maskUnits="userSpaceOnUse" x="37" y="107" width="6" height="6">
<path fill-rule="evenodd" clip-rule="evenodd" d="M37.4189 107.306H42.752V112.649H37.4189V107.306Z" fill="white"/>
</mask>
<g mask="url(#mask44_41_6348)">
<path fill-rule="evenodd" clip-rule="evenodd" d="M40.0856 112.649C40.7869 112.649 41.4749 112.365 41.9709 111.866C42.4683 111.37 42.7523 110.682 42.7523 109.978C42.7523 109.274 42.4683 108.586 41.9709 108.089C41.4749 107.591 40.7869 107.306 40.0856 107.306C39.3829 107.306 38.6963 107.591 38.1989 108.089C37.7029 108.586 37.4189 109.274 37.4189 109.978C37.4189 110.682 37.7029 111.37 38.1989 111.866C38.6963 112.365 39.3829 112.649 40.0856 112.649Z" fill="white"/>
</g>
<path fill-rule="evenodd" clip-rule="evenodd" d="M-0.333332 102.474C0.325418 102.474 0.969168 102.207 1.43542 101.74C1.90042 101.274 2.16667 100.628 2.16667 99.9694C2.16667 99.3095 1.90042 98.6645 1.43542 98.1974C0.969168 97.7316 0.325418 97.4648 -0.333332 97.4648C-0.990832 97.4648 -1.63583 97.7316 -2.10083 98.1974C-2.56708 98.6645 -2.83333 99.3095 -2.83333 99.9694C-2.83333 100.628 -2.56708 101.274 -2.10083 101.74C-1.63583 102.207 -0.990832 102.474 -0.333332 102.474Z" fill="white"/>
<path fill-rule="evenodd" clip-rule="evenodd" d="M27.1604 102.474H27.1729C28.5507 102.474 29.6667 101.352 29.6667 99.9694C29.6667 98.5869 28.5507 97.4648 27.1729 97.4648H27.1604C25.7839 97.4648 24.6667 98.5869 24.6667 99.9694C24.6667 101.352 25.7839 102.474 27.1604 102.474Z" fill="white"/>
<path fill-rule="evenodd" clip-rule="evenodd" d="M12.9938 102.474H13.0062C14.3828 102.474 15.5 101.352 15.5 99.9694C15.5 98.5869 14.3828 97.4648 13.0062 97.4648H12.9938C11.6172 97.4648 10.5 98.5869 10.5 99.9694C10.5 101.352 11.6172 102.474 12.9938 102.474Z" fill="white"/>
<mask id="mask45_41_6348" style="mask-type:luminance" maskUnits="userSpaceOnUse" x="37" y="97" width="6" height="6">
<path fill-rule="evenodd" clip-rule="evenodd" d="M37.4189 97H42.752V102.343H37.4189V97Z" fill="white"/>
</mask>
<g mask="url(#mask45_41_6348)">
<path fill-rule="evenodd" clip-rule="evenodd" d="M40.0856 102.343C40.7869 102.343 41.4749 102.059 41.9709 101.56C42.4683 101.063 42.7523 100.374 42.7523 99.6716C42.7523 98.9676 42.4683 98.2797 41.9709 97.7814C41.4749 97.2845 40.7869 97 40.0856 97C39.3829 97 38.6963 97.2845 38.1989 97.7814C37.7029 98.2797 37.4189 98.9676 37.4189 99.6716C37.4189 100.374 37.7029 101.063 38.1989 101.56C38.6963 102.059 39.3829 102.343 40.0856 102.343Z" fill="white"/>
</g>
<path fill-rule="evenodd" clip-rule="evenodd" d="M-0.333332 124.18C0.325418 124.18 0.969168 123.914 1.43542 123.447C1.90042 122.981 2.16667 122.336 2.16667 121.676C2.16667 121.017 1.90042 120.371 1.43542 119.905C0.969168 119.438 0.325418 119.171 -0.333332 119.171C-0.990832 119.171 -1.63583 119.438 -2.10083 119.905C-2.56708 120.371 -2.83333 121.017 -2.83333 121.676C-2.83333 122.336 -2.56708 122.981 -2.10083 123.447C-1.63583 123.914 -0.990832 124.18 -0.333332 124.18Z" fill="white"/>
<path fill-rule="evenodd" clip-rule="evenodd" d="M27.1604 124.18H27.1729C28.5507 124.18 29.6667 123.058 29.6667 121.676C29.6667 120.293 28.5507 119.171 27.1729 119.171H27.1604C25.7839 119.171 24.6667 120.293 24.6667 121.676C24.6667 123.058 25.7839 124.18 27.1604 124.18Z" fill="white"/>
<path fill-rule="evenodd" clip-rule="evenodd" d="M12.9938 124.18H13.0062C14.3828 124.18 15.5 123.058 15.5 121.676C15.5 120.293 14.3828 119.171 13.0062 119.171H12.9938C11.6172 119.171 10.5 120.293 10.5 121.676C10.5 123.058 11.6172 124.18 12.9938 124.18Z" fill="white"/>
<mask id="mask46_41_6348" style="mask-type:luminance" maskUnits="userSpaceOnUse" x="37" y="119" width="6" height="6">
<path fill-rule="evenodd" clip-rule="evenodd" d="M37.4189 119.282H42.752V124.625H37.4189V119.282Z" fill="white"/>
</mask>
<g mask="url(#mask46_41_6348)">
<path fill-rule="evenodd" clip-rule="evenodd" d="M40.0856 124.625C40.7869 124.625 41.4749 124.34 41.9709 123.842C42.4683 123.345 42.7523 122.657 42.7523 121.953C42.7523 121.251 42.4683 120.561 41.9709 120.065C41.4749 119.566 40.7869 119.282 40.0856 119.282C39.3829 119.282 38.6963 119.566 38.1989 120.065C37.7029 120.561 37.4189 121.251 37.4189 121.953C37.4189 122.657 37.7029 123.345 38.1989 123.842C38.6963 124.34 39.3829 124.625 40.0856 124.625Z" fill="white"/>
</g>
<path fill-rule="evenodd" clip-rule="evenodd" d="M-0.333332 134.199C0.325418 134.199 0.969168 133.932 1.43542 133.465C1.90042 132.999 2.16667 132.354 2.16667 131.694C2.16667 131.034 1.90042 130.389 1.43542 129.923C0.969168 129.456 0.325418 129.19 -0.333332 129.19C-0.990832 129.19 -1.63583 129.456 -2.10083 129.923C-2.56708 130.389 -2.83333 131.034 -2.83333 131.694C-2.83333 132.354 -2.56708 132.999 -2.10083 133.465C-1.63583 133.932 -0.990832 134.199 -0.333332 134.199Z" fill="white"/>
<path fill-rule="evenodd" clip-rule="evenodd" d="M27.1604 134.199H27.1729C28.5507 134.199 29.6667 133.077 29.6667 131.694C29.6667 130.312 28.5507 129.19 27.1729 129.19H27.1604C25.7839 129.19 24.6667 130.312 24.6667 131.694C24.6667 133.077 25.7839 134.199 27.1604 134.199Z" fill="white"/>
<path fill-rule="evenodd" clip-rule="evenodd" d="M12.9938 134.199H13.0062C14.3828 134.199 15.5 133.077 15.5 131.694C15.5 130.312 14.3828 129.19 13.0062 129.19H12.9938C11.6172 129.19 10.5 130.312 10.5 131.694C10.5 133.077 11.6172 134.199 12.9938 134.199Z" fill="white"/>
<mask id="mask47_41_6348" style="mask-type:luminance" maskUnits="userSpaceOnUse" x="37" y="129" width="6" height="6">
<path fill-rule="evenodd" clip-rule="evenodd" d="M37.4189 129.588H42.752V134.931H37.4189V129.588Z" fill="white"/>
</mask>
<g mask="url(#mask47_41_6348)">
<path fill-rule="evenodd" clip-rule="evenodd" d="M40.0856 134.931C40.7869 134.931 41.4749 134.646 41.9709 134.148C42.4683 133.651 42.7523 132.963 42.7523 132.259C42.7523 131.555 42.4683 130.867 41.9709 130.37C41.4749 129.872 40.7869 129.588 40.0856 129.588C39.3829 129.588 38.6963 129.872 38.1989 130.37C37.7029 130.867 37.4189 131.555 37.4189 132.259C37.4189 132.963 37.7029 133.651 38.1989 134.148C38.6963 134.646 39.3829 134.931 40.0856 134.931Z" fill="white"/>
</g>
<path fill-rule="evenodd" clip-rule="evenodd" d="M-0.333332 145.052C0.325418 145.052 0.969168 144.785 1.43542 144.318C1.90042 143.852 2.16667 143.207 2.16667 142.547C2.16667 141.889 1.90042 141.243 1.43542 140.777C0.969168 140.31 0.325418 140.043 -0.333332 140.043C-0.990832 140.043 -1.63583 140.31 -2.10083 140.777C-2.56708 141.243 -2.83333 141.889 -2.83333 142.547C-2.83333 143.207 -2.56708 143.852 -2.10083 144.318C-1.63583 144.785 -0.990832 145.052 -0.333332 145.052Z" fill="white"/>
<path fill-rule="evenodd" clip-rule="evenodd" d="M27.1604 145.052H27.1729C28.5507 145.052 29.6667 143.93 29.6667 142.547C29.6667 141.165 28.5507 140.043 27.1729 140.043H27.1604C25.7839 140.043 24.6667 141.165 24.6667 142.547C24.6667 143.93 25.7839 145.052 27.1604 145.052Z" fill="white"/>
<path fill-rule="evenodd" clip-rule="evenodd" d="M12.9938 145.052H13.0062C14.3828 145.052 15.5 143.93 15.5 142.547C15.5 141.165 14.3828 140.043 13.0062 140.043H12.9938C11.6172 140.043 10.5 141.165 10.5 142.547C10.5 143.93 11.6172 145.052 12.9938 145.052Z" fill="white"/>
<mask id="mask48_41_6348" style="mask-type:luminance" maskUnits="userSpaceOnUse" x="37" y="139" width="6" height="6">
<path fill-rule="evenodd" clip-rule="evenodd" d="M37.4189 139.393H42.752V144.736H37.4189V139.393Z" fill="white"/>
</mask>
<g mask="url(#mask48_41_6348)">
<path fill-rule="evenodd" clip-rule="evenodd" d="M40.0856 144.736C40.7869 144.736 41.4749 144.451 41.9709 143.953C42.4683 143.456 42.7523 142.768 42.7523 142.064C42.7523 141.362 42.4683 140.672 41.9709 140.176C41.4749 139.677 40.7869 139.393 40.0856 139.393C39.3829 139.393 38.6963 139.677 38.1989 140.176C37.7029 140.672 37.4189 141.362 37.4189 142.064C37.4189 142.768 37.7029 143.456 38.1989 143.953C38.6963 144.451 39.3829 144.736 40.0856 144.736Z" fill="white"/>
</g>
<path fill-rule="evenodd" clip-rule="evenodd" d="M-0.333332 155.905C0.325418 155.905 0.969168 155.638 1.43542 155.173C1.90042 154.706 2.16667 154.061 2.16667 153.401C2.16667 152.742 1.90042 152.096 1.43542 151.63C0.969168 151.163 0.325418 150.896 -0.333332 150.896C-0.990832 150.896 -1.63583 151.163 -2.10083 151.63C-2.56708 152.096 -2.83333 152.742 -2.83333 153.401C-2.83333 154.061 -2.56708 154.706 -2.10083 155.173C-1.63583 155.638 -0.990832 155.905 -0.333332 155.905Z" fill="white"/>
<path fill-rule="evenodd" clip-rule="evenodd" d="M27.1604 155.905H27.1729C28.5507 155.905 29.6667 154.783 29.6667 153.401C29.6667 152.018 28.5507 150.896 27.1729 150.896H27.1604C25.7839 150.896 24.6667 152.018 24.6667 153.401C24.6667 154.783 25.7839 155.905 27.1604 155.905Z" fill="white"/>
<path fill-rule="evenodd" clip-rule="evenodd" d="M12.9938 155.905H13.0062C14.3828 155.905 15.5 154.783 15.5 153.401C15.5 152.018 14.3828 150.896 13.0062 150.896H12.9938C11.6172 150.896 10.5 152.018 10.5 153.401C10.5 154.783 11.6172 155.905 12.9938 155.905Z" fill="white"/>
<mask id="mask49_41_6348" style="mask-type:luminance" maskUnits="userSpaceOnUse" x="37" y="150" width="6" height="6">
<path fill-rule="evenodd" clip-rule="evenodd" d="M37.4189 150.534H42.752V155.877H37.4189V150.534Z" fill="white"/>
</mask>
<g mask="url(#mask49_41_6348)">
<path fill-rule="evenodd" clip-rule="evenodd" d="M40.0856 155.877C40.7869 155.877 41.4749 155.592 41.9709 155.095C42.4683 154.597 42.7523 153.909 42.7523 153.205C42.7523 152.503 42.4683 151.813 41.9709 151.316C41.4749 150.818 40.7869 150.534 40.0856 150.534C39.3829 150.534 38.6963 150.818 38.1989 151.316C37.7029 151.813 37.4189 152.503 37.4189 153.205C37.4189 153.909 37.7029 154.597 38.1989 155.095C38.6963 155.592 39.3829 155.877 40.0856 155.877Z" fill="white"/>
</g>
<path fill-rule="evenodd" clip-rule="evenodd" d="M-0.333332 165.924C0.325418 165.924 0.969168 165.657 1.43542 165.19C1.90042 164.724 2.16667 164.079 2.16667 163.419C2.16667 162.76 1.90042 162.114 1.43542 161.648C0.969168 161.181 0.325418 160.914 -0.333332 160.914C-0.990832 160.914 -1.63583 161.181 -2.10083 161.648C-2.56708 162.114 -2.83333 162.76 -2.83333 163.419C-2.83333 164.079 -2.56708 164.724 -2.10083 165.19C-1.63583 165.657 -0.990832 165.924 -0.333332 165.924Z" fill="white"/>
<path fill-rule="evenodd" clip-rule="evenodd" d="M27.1604 165.924H27.1729C28.5507 165.924 29.6667 164.801 29.6667 163.419C29.6667 162.036 28.5507 160.914 27.1729 160.914H27.1604C25.7839 160.914 24.6667 162.036 24.6667 163.419C24.6667 164.801 25.7839 165.924 27.1604 165.924Z" fill="white"/>
<path fill-rule="evenodd" clip-rule="evenodd" d="M12.9938 165.924H13.0062C14.3828 165.924 15.5 164.801 15.5 163.419C15.5 162.036 14.3828 160.914 13.0062 160.914H12.9938C11.6172 160.914 10.5 162.036 10.5 163.419C10.5 164.801 11.6172 165.924 12.9938 165.924Z" fill="white"/>
<mask id="mask50_41_6348" style="mask-type:luminance" maskUnits="userSpaceOnUse" x="37" y="160" width="6" height="7">
<path fill-rule="evenodd" clip-rule="evenodd" d="M37.4189 160.84H42.752V166.183H37.4189V160.84Z" fill="white"/>
</mask>
<g mask="url(#mask50_41_6348)">
<path fill-rule="evenodd" clip-rule="evenodd" d="M40.0856 166.183C40.7869 166.183 41.4749 165.898 41.9709 165.4C42.4683 164.903 42.7523 164.215 42.7523 163.511C42.7523 162.809 42.4683 162.119 41.9709 161.622C41.4749 161.124 40.7869 160.84 40.0856 160.84C39.3829 160.84 38.6963 161.124 38.1989 161.622C37.7029 162.119 37.4189 162.809 37.4189 163.511C37.4189 164.215 37.7029 164.903 38.1989 165.4C38.6963 165.898 39.3829 166.183 40.0856 166.183Z" fill="white"/>
</g>
<path fill-rule="evenodd" clip-rule="evenodd" d="M-0.333332 177.612C0.325418 177.612 0.969168 177.345 1.43542 176.879C1.90042 176.412 2.16667 175.767 2.16667 175.107C2.16667 174.448 1.90042 173.802 1.43542 173.336C0.969168 172.869 0.325418 172.602 -0.333332 172.602C-0.990832 172.602 -1.63583 172.869 -2.10083 173.336C-2.56708 173.802 -2.83333 174.448 -2.83333 175.107C-2.83333 175.767 -2.56708 176.412 -2.10083 176.879C-1.63583 177.345 -0.990832 177.612 -0.333332 177.612Z" fill="white"/>
<path fill-rule="evenodd" clip-rule="evenodd" d="M27.1604 177.612H27.1729C28.5507 177.612 29.6667 176.491 29.6667 175.107C29.6667 173.725 28.5507 172.602 27.1729 172.602H27.1604C25.7839 172.602 24.6667 173.725 24.6667 175.107C24.6667 176.491 25.7839 177.612 27.1604 177.612Z" fill="white"/>
<path fill-rule="evenodd" clip-rule="evenodd" d="M12.9938 177.612H13.0062C14.3828 177.612 15.5 176.491 15.5 175.107C15.5 173.725 14.3828 172.602 13.0062 172.602H12.9938C11.6172 172.602 10.5 173.725 10.5 175.107C10.5 176.491 11.6172 177.612 12.9938 177.612Z" fill="white"/>
<mask id="mask51_41_6348" style="mask-type:luminance" maskUnits="userSpaceOnUse" x="37" y="172" width="6" height="7">
<path fill-rule="evenodd" clip-rule="evenodd" d="M37.4189 172.815H42.752V178.158H37.4189V172.815Z" fill="white"/>
</mask>
<g mask="url(#mask51_41_6348)">
<path fill-rule="evenodd" clip-rule="evenodd" d="M40.0856 178.158C40.7869 178.158 41.4749 177.874 41.9709 177.377C42.4683 176.879 42.7523 176.191 42.7523 175.487C42.7523 174.784 42.4683 174.095 41.9709 173.598C41.4749 173.1 40.7869 172.815 40.0856 172.815C39.3829 172.815 38.6963 173.1 38.1989 173.598C37.7029 174.095 37.4189 174.784 37.4189 175.487C37.4189 176.191 37.7029 176.879 38.1989 177.377C38.6963 177.874 39.3829 178.158 40.0856 178.158Z" fill="white"/>
</g>
<mask id="mask52_41_6348" style="mask-type:luminance" maskUnits="userSpaceOnUse" x="-4" y="182" width="7" height="6">
<path fill-rule="evenodd" clip-rule="evenodd" d="M-3.3324 182.621H2.00093V187.63H-3.3324V182.621Z" fill="white"/>
</mask>
<g mask="url(#mask52_41_6348)">
<path fill-rule="evenodd" clip-rule="evenodd" d="M-0.665735 187.63C0.036932 187.63 0.723598 187.364 1.22093 186.896C1.71693 186.431 2.00093 185.784 2.00093 185.126C2.00093 184.466 1.71693 183.821 1.22093 183.354C0.723598 182.888 0.036932 182.621 -0.665735 182.621C-1.36707 182.621 -2.05507 182.888 -2.55107 183.354C-3.0484 183.821 -3.3324 184.466 -3.3324 185.126C-3.3324 185.784 -3.0484 186.431 -2.55107 186.896C-2.05507 187.364 -1.36707 187.63 -0.665735 187.63Z" fill="white"/>
</g>
<mask id="mask53_41_6348" style="mask-type:luminance" maskUnits="userSpaceOnUse" x="24" y="182" width="6" height="6">
<path fill-rule="evenodd" clip-rule="evenodd" d="M24.1617 182.621H29.5084V187.63H24.1617V182.621Z" fill="white"/>
</mask>
<g mask="url(#mask53_41_6348)">
<path fill-rule="evenodd" clip-rule="evenodd" d="M26.8284 187.63H26.8417C28.3151 187.63 29.5084 186.508 29.5084 185.126C29.5084 183.742 28.3151 182.621 26.8417 182.621H26.8284C25.3564 182.621 24.1617 183.742 24.1617 185.126C24.1617 186.508 25.3564 187.63 26.8284 187.63Z" fill="white"/>
</g>
<mask id="mask54_41_6348" style="mask-type:luminance" maskUnits="userSpaceOnUse" x="10" y="182" width="6" height="6">
<path fill-rule="evenodd" clip-rule="evenodd" d="M10.4117 182.621H15.7584V187.63H10.4117V182.621Z" fill="white"/>
</mask>
<g mask="url(#mask54_41_6348)">
<path fill-rule="evenodd" clip-rule="evenodd" d="M13.0784 187.63H13.0917C14.5637 187.63 15.7584 186.508 15.7584 185.126C15.7584 183.742 14.5637 182.621 13.0917 182.621H13.0784C11.6064 182.621 10.4117 183.742 10.4117 185.126C10.4117 186.508 11.6064 187.63 13.0784 187.63Z" fill="white"/>
</g>
<mask id="mask55_41_6348" style="mask-type:luminance" maskUnits="userSpaceOnUse" x="37" y="182" width="6" height="6">
<path fill-rule="evenodd" clip-rule="evenodd" d="M37.4189 182.621H42.752V187.63H37.4189V182.621Z" fill="white"/>
</mask>
<g mask="url(#mask55_41_6348)">
<path fill-rule="evenodd" clip-rule="evenodd" d="M40.0856 187.63C40.7869 187.63 41.4749 187.364 41.9709 186.896C42.4683 186.431 42.7523 185.784 42.7523 185.126C42.7523 184.466 42.4683 183.821 41.9709 183.354C41.4749 182.888 40.7869 182.621 40.0856 182.621C39.3829 182.621 38.6963 182.888 38.1989 183.354C37.7029 183.821 37.4189 184.466 37.4189 185.126C37.4189 185.784 37.7029 186.431 38.1989 186.896C38.6963 187.364 39.3829 187.63 40.0856 187.63Z" fill="white"/>
</g>
</g>
</svg>